<?xml version="1.0" encoding="utf-8"?>
<!-- Generator: Adobe Illustrator 12.0.0, SVG Export Plug-In . SVG Version: 6.00 Build 51448)  -->
<!DOCTYPE svg PUBLIC "-//W3C//DTD SVG 1.1//EN" "http://www.w3.org/Graphics/SVG/1.1/DTD/svg11.dtd" [
	<!ENTITY ns_svg "http://www.w3.org/2000/svg">
	<!ENTITY ns_xlink "http://www.w3.org/1999/xlink">
]>
<svg  version="1.1" id="レイヤー_1" xmlns="&ns_svg;" xmlns:xlink="&ns_xlink;" width="48" height="48.001"
	 viewBox="0 0 48 48.001" overflow="visible" enable-background="new 0 0 48 48.001" xml:space="preserve">
<circle fill="none" cx="24" cy="24.001" r="24"/>
<path fill="#222222" d="M36.656,33.319l-5.731-5.732c2.953-4.344,2.511-10.32-1.336-14.17c-4.354-4.352-11.438-4.352-15.793,0.002
	c-2.109,2.109-3.271,4.914-3.271,7.896c0,2.982,1.162,5.787,3.271,7.895c2.109,2.109,4.914,3.271,7.897,3.273
	c2.272,0,4.439-0.68,6.275-1.934l5.729,5.729c0.817,0.818,2.142,0.818,2.959,0C37.474,35.462,37.474,34.138,36.656,33.319z
	 M14.79,28.216c-1.844-1.842-2.859-4.293-2.859-6.9s1.015-5.059,2.859-6.902c3.807-3.807,10-3.807,13.805-0.002
	c1.903,1.904,2.855,4.404,2.855,6.904s-0.952,5-2.855,6.902c-1.843,1.844-4.294,2.857-6.902,2.857
	C19.085,31.075,16.634,30.06,14.79,28.216z"/>
<g>
	<line fill="none" stroke="#222222" stroke-width="1.5" stroke-linecap="round" x1="21.788" y1="16.662" x2="21.788" y2="26.662"/>
	<line fill="none" stroke="#222222" stroke-width="1.5" stroke-linecap="round" x1="26.788" y1="21.662" x2="16.788" y2="21.662"/>
</g>
</svg>
