<?xml version="1.0" encoding="utf-8"?>
<!-- Generator: Adobe Illustrator 12.0.0, SVG Export Plug-In . SVG Version: 6.00 Build 51448)  -->
<!DOCTYPE svg PUBLIC "-//W3C//DTD SVG 1.1//EN" "http://www.w3.org/Graphics/SVG/1.1/DTD/svg11.dtd" [
	<!ENTITY ns_svg "http://www.w3.org/2000/svg">
	<!ENTITY ns_xlink "http://www.w3.org/1999/xlink">
]>
<svg  version="1.1" id="レイヤー_1" xmlns="&ns_svg;" xmlns:xlink="&ns_xlink;" width="44" height="44" viewBox="0 0 44 44"
	 overflow="visible" enable-background="new 0 0 44 44" xml:space="preserve">
<rect fill="none" width="44" height="44"/>
<g>
	<g>
		<path fill="#FFFFFF" d="M21,14.041v15.916c0,0.553,0.448,1,1,1c0.553,0,1-0.447,1-1V14.041c0-0.552-0.447-1-1-1
			C21.447,13.041,21,13.489,21,14.041z"/>
	</g>
	<g>
		<path fill="#FFFFFF" d="M14.042,21c-0.552,0-1,0.448-1,1c0,0.553,0.448,1,1,1h15.915c0.553,0,1-0.447,1-1c0-0.552-0.447-1-1-1
			H14.042z"/>
	</g>
</g>
</svg>
