<?xml version="1.0" encoding="utf-8"?>
<!-- Generator: Adobe Illustrator 12.0.0, SVG Export Plug-In . SVG Version: 6.00 Build 51448)  -->
<!DOCTYPE svg PUBLIC "-//W3C//DTD SVG 1.1//EN" "http://www.w3.org/Graphics/SVG/1.1/DTD/svg11.dtd" [
	<!ENTITY ns_svg "http://www.w3.org/2000/svg">
	<!ENTITY ns_xlink "http://www.w3.org/1999/xlink">
]>
<svg  version="1.1" id="レイヤー_1" xmlns="&ns_svg;" xmlns:xlink="&ns_xlink;" width="48" height="48" viewBox="0 0 48 48"
	 overflow="visible" enable-background="new 0 0 48 48" xml:space="preserve">
<circle fill="none" cx="24" cy="24" r="24"/>
<g>
	<path fill="#222222" d="M38.245,24.001c-2.131,0.79-4.773,2.139-6.41,3.566l1.289-3.566l-1.289-3.566
		C33.471,21.862,36.114,23.211,38.245,24.001z"/>
	<g>
		<rect x="27.667" y="23.251" fill="#222222" width="6.051" height="1.5"/>
	</g>
</g>
<g>
	<polygon fill="#222222" points="9.756,24.001 17.218,20.952 15.447,24.001 17.218,27.049 	"/>
	<g>
		<rect x="15.051" y="23.251" fill="#222222" width="5.282" height="1.5"/>
	</g>
</g>
<g>
	<polygon fill="#222222" points="24,9.757 27.049,17.219 24,15.447 20.952,17.219 	"/>
	<g>
		<rect x="23.25" y="15.052" fill="#222222" width="1.5" height="5.282"/>
	</g>
</g>
<g>
	<path fill="#222222" d="M24,38.244c-0.791-2.13-2.139-4.772-3.566-6.41L24,33.124l3.566-1.29C26.139,33.472,24.79,36.114,24,38.244
		z"/>
	<g>
		<rect x="23.25" y="27.668" fill="#222222" width="1.5" height="6.05"/>
	</g>
</g>
</svg>
