<?xml version="1.0" encoding="utf-8"?>
<!-- Generator: Adobe Illustrator 21.1.0, SVG Export Plug-In . SVG Version: 6.00 Build 0)  -->
<!DOCTYPE svg PUBLIC "-//W3C//DTD SVG 1.1//EN" "http://www.w3.org/Graphics/SVG/1.1/DTD/svg11.dtd" [
	<!ENTITY ns_svg "http://www.w3.org/2000/svg">
	<!ENTITY ns_xlink "http://www.w3.org/1999/xlink">
]>
<svg version="1.1" id="レイヤー_1" xmlns="&ns_svg;" xmlns:xlink="&ns_xlink;" overflow="visible"  width="48" height="48"
	 viewBox="0 0 48 48" enable-background="new 0 0 48 48" xml:space="preserve">
<rect fill="none" width="48" height="48"/>
<g>
	<path fill="none" stroke="#222222" stroke-width="1.5" d="M28.8,16.2l-0.5-1.9c-0.2-0.7-0.9-1.3-1.6-1.3h-5.3c-0.7,0-1.5,0.6-1.6,1.3l-0.6,2.4h-5.9
		c-0.7,0-1.3,0.6-1.3,1.3v13.8c0,0.7,0.6,1.3,1.3,1.3H35c0.7,0,1.3-0.6,1.3-1.3V17.9c0-0.7-0.6-1.3-1.3-1.3h-4.6
		c-0.7,0-1.3-0.1-1.4-0.2C28.8,16.3,28.8,16.2,28.8,16.2z"/>
	<path fill="none" stroke="#222222" stroke-width="1.5" d="M30.6,24.7c0,3.7-3,6.6-6.6,6.6c-3.7,0-6.6-3-6.6-6.6c0-3.7,3-6.6,6.6-6.6C27.7,18.1,30.6,21.1,30.6,24.7z"/>
</g>
</svg>
