<?xml version="1.0" encoding="utf-8"?>
<!-- Generator: Adobe Illustrator 12.0.0, SVG Export Plug-In . SVG Version: 6.00 Build 51448)  -->
<!DOCTYPE svg PUBLIC "-//W3C//DTD SVG 1.1//EN" "http://www.w3.org/Graphics/SVG/1.1/DTD/svg11.dtd" [
	<!ENTITY ns_svg "http://www.w3.org/2000/svg">
	<!ENTITY ns_xlink "http://www.w3.org/1999/xlink">
]>
<svg  version="1.1" id="レイヤー_1" xmlns="&ns_svg;" xmlns:xlink="&ns_xlink;" width="47.999" height="48"
	 viewBox="0 0 47.999 48" overflow="visible" enable-background="new 0 0 47.999 48" xml:space="preserve">
<circle fill="none" cx="24" cy="24" r="24"/>
<g>
	<g>
		<polygon fill="#222222" enable-background="new    " points="9.247,38.341 10.442,34.148 13.525,37.314 		"/>
	</g>
	<path fill="#222222" d="M41.793,15.314l-9.492-9.49c-0.293-0.293-0.768-0.293-1.061,0L12.224,24.84
		c-0.092,0.092-0.158,0.205-0.192,0.33L8.396,38.296c-0.072,0.26,0,0.539,0.192,0.73c0.191,0.189,0.47,0.264,0.73,0.191l3.366-0.932
		l1.015-0.244c0.053-0.012,0.09-0.053,0.138-0.074l8.608-2.383c0.125-0.035,0.239-0.102,0.33-0.193l19.016-19.017
		c0.141-0.141,0.22-0.332,0.22-0.531C42.013,15.646,41.934,15.455,41.793,15.314z M10.32,37.312
		c0.203-0.711,0.284-0.998,0.488-1.713c0.522,0.535,0.732,0.752,1.26,1.293C11.335,37.07,11.043,37.138,10.32,37.312z
		 M21.856,34.193c-0.229,0.063-4.701,1.301-8.131,2.25l-2.537-2.605c0.948-3.424,2.173-7.85,2.236-8.078
		c0.202-0.201,9.994-9.992,15.204-15.203l2.104,2.104L16.083,27.306c-0.293,0.293-0.293,0.768,0,1.061s0.768,0.293,1.061,0
		l14.648-14.646l2.104,2.104L19.248,30.47c-0.293,0.293-0.293,0.77,0,1.061c0.293,0.293,0.768,0.293,1.061,0l14.647-14.646
		l2.104,2.104C31.849,24.199,22.058,33.99,21.856,34.193z M38.12,17.928l-8.432-8.432c1.123-1.123,1.894-1.893,2.082-2.082
		c0.89,0.891,7.542,7.541,8.432,8.43C40.013,16.033,39.243,16.805,38.12,17.928z"/>
</g>
</svg>
