<?xml version="1.0" encoding="utf-8"?>
<!-- Generator: Adobe Illustrator 12.0.0, SVG Export Plug-In . SVG Version: 6.00 Build 51448)  -->
<!DOCTYPE svg PUBLIC "-//W3C//DTD SVG 1.1//EN" "http://www.w3.org/Graphics/SVG/1.1/DTD/svg11.dtd" [
	<!ENTITY ns_svg "http://www.w3.org/2000/svg">
	<!ENTITY ns_xlink "http://www.w3.org/1999/xlink">
]>
<svg  version="1.1" id="レイヤー_1" xmlns="&ns_svg;" xmlns:xlink="&ns_xlink;" width="180" height="180" viewBox="0 0 180 180"
	 overflow="visible" enable-background="new 0 0 180 180" xml:space="preserve">
<g>
	<circle cx="90" cy="90" r="90"/>
	<path opacity="0.9" fill="none" stroke="#707070" stroke-width="1.095" d="M177.412,90c0,48.277-39.138,87.412-87.414,87.412
		c-48.28,0-87.411-39.135-87.411-87.412c0-48.275,39.131-87.414,87.411-87.414C138.274,2.586,177.412,41.725,177.412,90z"/>
</g>
<g opacity="0.9">
	<g>
		<path fill="#707070" d="M80,7.25c-0.553,0-1,0.448-1,1c0,0.553,0.447,1,1,1h20c0.553,0,1-0.447,1-1c0-0.552-0.447-1-1-1H80z"/>
	</g>
	<g>
		<path fill="#707070" d="M80,11.25c-0.553,0-1,0.448-1,1c0,0.553,0.447,1,1,1h20c0.553,0,1-0.447,1-1c0-0.552-0.447-1-1-1H80z"/>
	</g>
	<g>
		<path fill="#707070" d="M80,15.25c-0.553,0-1,0.448-1,1c0,0.553,0.447,1,1,1h20c0.553,0,1-0.447,1-1c0-0.552-0.447-1-1-1H80z"/>
	</g>
</g>
</svg>
