<?xml version="1.0" encoding="utf-8"?>
<!-- Generator: Adobe Illustrator 12.0.0, SVG Export Plug-In . SVG Version: 6.00 Build 51448)  -->
<!DOCTYPE svg PUBLIC "-//W3C//DTD SVG 1.1//EN" "http://www.w3.org/Graphics/SVG/1.1/DTD/svg11.dtd" [
	<!ENTITY ns_svg "http://www.w3.org/2000/svg">
	<!ENTITY ns_xlink "http://www.w3.org/1999/xlink">
]>
<svg  version="1.1" id="レイヤー_1" xmlns="&ns_svg;" xmlns:xlink="&ns_xlink;" width="64" height="64" viewBox="0 0 64 64"
	 overflow="visible" enable-background="new 0 0 64 64" xml:space="preserve">
<path fill="#FF0000" d="M64,32c0,17.674-14.327,32-32,32C14.329,64,0,49.674,0,32C0,14.328,14.329,0,32,0C49.673,0,64,14.328,64,32z
	 M32,3.556C16.293,3.556,3.556,16.289,3.556,32c0,15.712,12.737,28.445,28.444,28.445c15.712,0,28.444-12.733,28.444-28.445
	C60.444,16.289,47.712,3.556,32,3.556z"/>
<path fill="#FF0000" d="M16.616,32c0,8.483,6.901,15.385,15.384,15.385S47.384,40.483,47.384,32c0-8.482-6.901-15.385-15.384-15.385
	S16.616,23.518,16.616,32z"/>
</svg>
