<?xml version="1.0" encoding="utf-8"?>
<!-- Generator: Adobe Illustrator 12.0.0, SVG Export Plug-In . SVG Version: 6.00 Build 51448)  -->
<!DOCTYPE svg PUBLIC "-//W3C//DTD SVG 1.1//EN" "http://www.w3.org/Graphics/SVG/1.1/DTD/svg11.dtd" [
	<!ENTITY ns_svg "http://www.w3.org/2000/svg">
	<!ENTITY ns_xlink "http://www.w3.org/1999/xlink">
]>
<svg  version="1.1" id="レイヤー_1" xmlns="&ns_svg;" xmlns:xlink="&ns_xlink;" width="48" height="48" viewBox="0 0 48 48"
	 overflow="visible" enable-background="new 0 0 48 48" xml:space="preserve">
<circle fill="none" cx="24" cy="24" r="24"/>
<g>
	
		<rect x="9.506" y="11.78" transform="matrix(0.9747 -0.2237 0.2237 0.9747 -2.5256 5.6343)" stroke="#000000" stroke-width="2" width="28.205" height="4.373"/>
	<g>
		<polygon fill="#FFFFFF" points="23.253,11.806 19.458,17.161 23.964,16.128 27.759,10.771 		"/>
		<polygon fill="#FFFFFF" points="14.243,13.872 10.448,19.228 14.954,18.194 18.747,12.839 		"/>
		<polygon points="9.374,14.989 10.353,19.251 10.448,19.228 14.243,13.872 		"/>
		<polygon points="18.747,12.839 14.954,18.194 19.458,17.161 23.253,11.806 		"/>
		<polygon points="32.974,14.06 37.843,12.942 36.864,8.681 36.769,8.704 		"/>
		<polygon points="27.759,10.771 23.964,16.128 28.47,15.095 32.265,9.737 		"/>
		<polygon fill="#FFFFFF" points="32.265,9.737 28.47,15.095 32.974,14.06 36.769,8.704 		"/>
	</g>
	<polygon stroke="#000000" stroke-width="2" points="10.423,21.069 10.423,25.44 10.423,30.511 10.423,39.319 38.626,39.319 
		38.626,30.511 38.626,25.44 38.626,21.069 	"/>
	<g>
		<polygon fill="#FFFFFF" points="24.388,21.069 29.284,25.44 24.661,25.44 19.765,21.069 		"/>
		<polygon fill="#FFFFFF" points="33.632,21.069 38.528,25.44 33.907,25.44 29.011,21.069 		"/>
		<polygon points="38.626,21.069 38.626,25.44 38.528,25.44 33.632,21.069 		"/>
		<polygon points="29.011,21.069 33.907,25.44 29.284,25.44 24.388,21.069 		"/>
		<polygon points="15.415,25.44 10.423,25.44 10.423,21.069 10.521,21.069 		"/>
		<polygon points="19.765,21.069 24.661,25.44 20.04,25.44 15.142,21.069 		"/>
		<polygon fill="#FFFFFF" points="15.142,21.069 20.04,25.44 15.415,25.44 10.521,21.069 		"/>
	</g>
</g>
</svg>
