<?xml version="1.0" encoding="utf-8"?>
<!-- Generator: Adobe Illustrator 12.0.0, SVG Export Plug-In . SVG Version: 6.00 Build 51448)  -->
<!DOCTYPE svg PUBLIC "-//W3C//DTD SVG 1.1//EN" "http://www.w3.org/Graphics/SVG/1.1/DTD/svg11.dtd" [
	<!ENTITY ns_svg "http://www.w3.org/2000/svg">
	<!ENTITY ns_xlink "http://www.w3.org/1999/xlink">
]>
<svg  version="1.1" id="レイヤー_1" xmlns="&ns_svg;" xmlns:xlink="&ns_xlink;" width="18" height="18" viewBox="0 0 18 18"
	 overflow="visible" enable-background="new 0 0 18 18" xml:space="preserve">
<circle fill="none" cx="9" cy="9" r="9"/>
<g>
	<polygon points="9.253,3.791 3.893,6.969 1.11,6.969 1.11,11.027 3.892,11.027 9.253,14.205 	"/>
	<g>
		<path d="M10.421,5.582c-0.209,0.209-0.209,0.549,0,0.758c1.465,1.467,1.465,3.852,0,5.316c-0.209,0.209-0.209,0.549,0,0.758
			c0.21,0.211,0.55,0.211,0.76,0c1.884-1.883,1.884-4.947,0-6.832C10.971,5.371,10.631,5.371,10.421,5.582z"/>
		<path d="M11.939,4.064c-0.209,0.209-0.209,0.549,0,0.758c2.303,2.303,2.303,6.049,0,8.352c-0.209,0.209-0.209,0.551,0,0.76
			c0.21,0.209,0.549,0.209,0.76,0c2.72-2.721,2.72-7.148,0-9.869C12.488,3.854,12.149,3.854,11.939,4.064z"/>
		<path d="M13.457,2.545c-0.209,0.211-0.209,0.551,0,0.76c1.521,1.521,2.359,3.543,2.359,5.693c0,2.152-0.838,4.172-2.359,5.695
			c-0.209,0.209-0.209,0.549,0,0.76c0.211,0.209,0.551,0.209,0.76,0c1.724-1.727,2.673-4.018,2.673-6.455
			c0-2.436-0.949-4.729-2.673-6.453C14.008,2.336,13.668,2.336,13.457,2.545z"/>
	</g>
</g>
</svg>
