<?xml version="1.0" encoding="utf-8"?>
<!-- Generator: Adobe Illustrator 12.0.0, SVG Export Plug-In . SVG Version: 6.00 Build 51448)  -->
<!DOCTYPE svg PUBLIC "-//W3C//DTD SVG 1.1//EN" "http://www.w3.org/Graphics/SVG/1.1/DTD/svg11.dtd" [
	<!ENTITY ns_svg "http://www.w3.org/2000/svg">
	<!ENTITY ns_xlink "http://www.w3.org/1999/xlink">
]>
<svg  version="1.1" id="レイヤー_1" xmlns="&ns_svg;" xmlns:xlink="&ns_xlink;" width="48" height="48" viewBox="0 0 48 48"
	 overflow="visible" enable-background="new 0 0 48 48" xml:space="preserve">
<circle fill="none" cx="24" cy="24" r="24"/>
<g>
	<path fill="none" stroke="#222222" stroke-width="1.5" d="M28.82,16.159l-0.5-1.929c-0.182-0.7-0.922-1.272-1.646-1.272h-5.348
		c-0.724,0-1.465,0.572-1.647,1.272l-0.616,2.381h-5.909c-0.723,0-1.314,0.593-1.314,1.316v13.801c0,0.723,0.592,1.313,1.314,1.313
		h21.689c0.724,0,1.315-0.59,1.315-1.313V17.928c0-0.724-0.592-1.316-1.315-1.316h-4.592c-0.724,0-1.342-0.101-1.375-0.226
		C28.847,16.261,28.82,16.159,28.82,16.159z"/>
	<path fill="none" stroke="#222222" stroke-width="1.5" d="M30.636,24.717c0,3.668-2.971,6.639-6.638,6.639
		c-3.664,0-6.634-2.971-6.634-6.639c0-3.665,2.97-6.634,6.634-6.634C27.666,18.083,30.636,21.053,30.636,24.717z"/>
</g>
</svg>
