<?xml version="1.0" encoding="utf-8"?>
<!-- Generator: Adobe Illustrator 12.0.0, SVG Export Plug-In . SVG Version: 6.00 Build 51448)  -->
<!DOCTYPE svg PUBLIC "-//W3C//DTD SVG 1.1//EN" "http://www.w3.org/Graphics/SVG/1.1/DTD/svg11.dtd" [
	<!ENTITY ns_svg "http://www.w3.org/2000/svg">
	<!ENTITY ns_xlink "http://www.w3.org/1999/xlink">
]>
<svg  version="1.1" id="レイヤー_1" xmlns="&ns_svg;" xmlns:xlink="&ns_xlink;" width="48" height="47.998"
	 viewBox="0 0 48 47.998" overflow="visible" enable-background="new 0 0 48 47.998" xml:space="preserve">
<g>
	<g>
		<path fill="#222222" d="M12.25,12.249v23.5h23.5v-23.5H12.25z M34.25,13.749c0,1.35,0,19.15,0,20.5c-1.351,0-19.15,0-20.5,0
			c0-1.35,0-19.15,0-20.5C15.1,13.749,32.899,13.749,34.25,13.749z"/>
	</g>
	<polygon fill="#222222" points="25.061,23.999 17.785,16.724 20.354,16.042 12.922,12.921 16.043,20.353 16.724,17.784 
		22.939,23.999 16.724,30.214 16.043,27.644 12.922,35.075 20.354,31.954 17.785,31.274 	"/>
</g>
<circle fill="none" cx="24" cy="24" r="24"/>
</svg>
