<?xml version="1.0" encoding="utf-8"?>
<!-- Generator: Adobe Illustrator 12.0.0, SVG Export Plug-In . SVG Version: 6.00 Build 51448)  -->
<!DOCTYPE svg PUBLIC "-//W3C//DTD SVG 1.1//EN" "http://www.w3.org/Graphics/SVG/1.1/DTD/svg11.dtd" [
	<!ENTITY ns_svg "http://www.w3.org/2000/svg">
	<!ENTITY ns_xlink "http://www.w3.org/1999/xlink">
]>
<svg  version="1.1" id="レイヤー_1" xmlns="&ns_svg;" xmlns:xlink="&ns_xlink;" width="48" height="48" viewBox="0 0 48 48"
	 overflow="visible" enable-background="new 0 0 48 48" xml:space="preserve">
<circle fill="none" cx="24" cy="24" r="24"/>
<g>
	<g>
		<path fill="#222222" d="M12.518,12.029v23.5h23.5v-23.5H12.518z M34.518,13.529c0,1.35,0,19.15,0,20.5c-1.351,0-19.15,0-20.5,0
			c0-1.35,0-19.15,0-20.5C15.368,13.529,33.167,13.529,34.518,13.529z"/>
	</g>
	<g>
		<g>
			
				<rect x="13.897" y="23.029" transform="matrix(-0.7071 -0.7071 0.7071 -0.7071 24.615 57.7537)" fill="#222222" width="20.742" height="1.5"/>
		</g>
		<polygon fill="#222222" points="35.346,34.856 27.913,31.736 31.321,30.832 32.224,27.425 		"/>
		<polygon fill="#222222" points="13.189,12.702 20.622,15.822 17.214,16.727 16.311,20.134 		"/>
	</g>
	<g>
		<g>
			
				<rect x="23.518" y="13.408" transform="matrix(-0.7071 -0.7071 0.7071 -0.7071 24.6133 57.7537)" fill="#222222" width="1.5" height="20.742"/>
		</g>
		<polygon fill="#222222" points="35.346,12.702 32.225,20.134 31.321,16.727 27.913,15.823 		"/>
		<polygon fill="#222222" points="13.189,34.856 16.311,27.425 17.214,30.832 20.622,31.735 		"/>
	</g>
</g>
</svg>
