<?xml version="1.0" encoding="utf-8"?>
<!-- Generator: Adobe Illustrator 12.0.0, SVG Export Plug-In . SVG Version: 6.00 Build 51448)  -->
<!DOCTYPE svg PUBLIC "-//W3C//DTD SVG 1.1//EN" "http://www.w3.org/Graphics/SVG/1.1/DTD/svg11.dtd" [
	<!ENTITY ns_svg "http://www.w3.org/2000/svg">
	<!ENTITY ns_xlink "http://www.w3.org/1999/xlink">
]>
<svg  version="1.1" id="レイヤー_1" xmlns="&ns_svg;" xmlns:xlink="&ns_xlink;" width="47.998" height="48"
	 viewBox="0 0 47.998 48" overflow="visible" enable-background="new 0 0 47.998 48" xml:space="preserve">
<g>
	<g>
		<path fill="#222222" d="M35.749,12.25h-23.5v23.5h23.5V12.25z M34.249,34.25c-1.35,0-19.15,0-20.5,0c0-1.351,0-19.15,0-20.5
			c1.35,0,19.15,0,20.5,0C34.249,15.1,34.249,32.899,34.249,34.25z"/>
	</g>
	<polygon fill="#222222" points="23.999,25.061 31.274,17.785 31.956,20.354 35.077,12.922 27.646,16.043 30.214,16.724 
		23.999,22.939 17.784,16.724 20.354,16.043 12.923,12.922 16.044,20.354 16.724,17.785 	"/>
</g>
<circle fill="none" cx="23.998" cy="24" r="24"/>
</svg>
