<?xml version="1.0" encoding="utf-8"?>
<!-- Generator: Adobe Illustrator 12.0.0, SVG Export Plug-In . SVG Version: 6.00 Build 51448)  -->
<!DOCTYPE svg PUBLIC "-//W3C//DTD SVG 1.1//EN" "http://www.w3.org/Graphics/SVG/1.1/DTD/svg11.dtd" [
	<!ENTITY ns_svg "http://www.w3.org/2000/svg">
	<!ENTITY ns_xlink "http://www.w3.org/1999/xlink">
]>
<svg  version="1.1" id="レイヤー_1" xmlns="&ns_svg;" xmlns:xlink="&ns_xlink;" width="48" height="48" viewBox="0 0 48 48"
	 overflow="visible" enable-background="new 0 0 48 48" xml:space="preserve">
<circle fill="none" cx="24" cy="24" r="24"/>
<g>
	<path fill="#222222" d="M12.25,12.25v23.5h23.5v-23.5H12.25z M34.25,13.75c0,1.35,0,19.15,0,20.5c-1.35,0-19.149,0-20.5,0
		c0-1.35,0-19.15,0-20.5C15.1,13.75,32.9,13.75,34.25,13.75z"/>
</g>
<g>
	<path fill="#222222" d="M18.25,18.25v11.5h11.5v-11.5H18.25z M28.25,19.75c0,1.18,0,7.32,0,8.5c-1.179,0-7.32,0-8.5,0
		c0-1.18,0-7.32,0-8.5C20.929,19.75,27.071,19.75,28.25,19.75z"/>
</g>
</svg>
