<?xml version="1.0" encoding="utf-8"?>
<!-- Generator: Adobe Illustrator 12.0.0, SVG Export Plug-In . SVG Version: 6.00 Build 51448)  -->
<!DOCTYPE svg PUBLIC "-//W3C//DTD SVG 1.1//EN" "http://www.w3.org/Graphics/SVG/1.1/DTD/svg11.dtd" [
	<!ENTITY ns_svg "http://www.w3.org/2000/svg">
	<!ENTITY ns_xlink "http://www.w3.org/1999/xlink">
]>
<svg  version="1.1" id="レイヤー_1" xmlns="&ns_svg;" xmlns:xlink="&ns_xlink;" width="48" height="48" viewBox="0 0 48 48"
	 overflow="visible" enable-background="new 0 0 48 48" xml:space="preserve">
<circle fill="none" cx="24" cy="24" r="24"/>
<g>
	<g>
		<path fill="#FFFFFF" d="M29.098,17.842L17.843,29.096c-0.293,0.293-0.293,0.769,0,1.062c0.292,0.292,0.768,0.292,1.061,0
			l11.254-11.255c0.293-0.292,0.293-0.768,0-1.061S29.391,17.549,29.098,17.842z"/>
	</g>
	<g>
		<path fill="#FFFFFF" d="M18.904,17.843c-0.293-0.293-0.768-0.293-1.061,0c-0.293,0.292-0.293,0.768,0,1.061l11.253,11.253
			c0.293,0.293,0.768,0.293,1.061,0s0.293-0.768,0-1.061L18.904,17.843z"/>
	</g>
</g>
</svg>
