<?xml version="1.0" encoding="utf-8"?>
<!-- Generator: Adobe Illustrator 12.0.0, SVG Export Plug-In . SVG Version: 6.00 Build 51448)  -->
<!DOCTYPE svg PUBLIC "-//W3C//DTD SVG 1.1//EN" "http://www.w3.org/Graphics/SVG/1.1/DTD/svg11.dtd" [
	<!ENTITY ns_svg "http://www.w3.org/2000/svg">
	<!ENTITY ns_xlink "http://www.w3.org/1999/xlink">
]>
<svg  version="1.1" id="レイヤー_1" xmlns="&ns_svg;" xmlns:xlink="&ns_xlink;" width="48" height="48" viewBox="0 0 48 48"
	 overflow="visible" enable-background="new 0 0 48 48" xml:space="preserve">
<g>
	<circle fill="none" cx="24" cy="24" r="24"/>
	<path fill="#222222" d="M28.775,29.449c-0.651,0.555-1.401,0.992-2.221,1.285l-0.245,2.846h-4.328l-0.245-2.846
		c-0.82-0.293-1.57-0.73-2.221-1.285l-2.589,1.213l-2.164-3.75l2.343-1.637c-0.075-0.416-0.117-0.844-0.117-1.281
		s0.042-0.865,0.117-1.283l-2.343-1.635l2.164-3.748l2.589,1.211c0.651-0.553,1.401-0.99,2.221-1.285l0.245-2.844h4.328l0.245,2.846
		c0.819,0.293,1.569,0.73,2.22,1.283l2.59-1.211l2.165,3.748l-2.344,1.635c0.074,0.418,0.116,0.846,0.116,1.283
		s-0.042,0.865-0.116,1.281l2.344,1.637l-2.165,3.75L28.775,29.449z M24.145,20.49c-1.935,0-3.504,1.568-3.504,3.504
		s1.569,3.504,3.504,3.504s3.505-1.568,3.505-3.504S26.08,20.49,24.145,20.49z"/>
</g>
</svg>
