<?xml version="1.0" encoding="utf-8"?>
<!-- Generator: Adobe Illustrator 12.0.0, SVG Export Plug-In . SVG Version: 6.00 Build 51448)  -->
<!DOCTYPE svg PUBLIC "-//W3C//DTD SVG 1.1//EN" "http://www.w3.org/Graphics/SVG/1.1/DTD/svg11.dtd" [
	<!ENTITY ns_svg "http://www.w3.org/2000/svg">
	<!ENTITY ns_xlink "http://www.w3.org/1999/xlink">
]>
<svg  version="1.1" id="レイヤー_1" xmlns="&ns_svg;" xmlns:xlink="&ns_xlink;" width="1920" height="1080"
	 viewBox="0 0 1920 1080" overflow="visible" enable-background="new 0 0 1920 1080" xml:space="preserve">
<linearGradient id="XMLID_3_" gradientUnits="userSpaceOnUse" x1="960" y1="1080" x2="959.9999" y2="4.882813e-004">
	<stop  offset="0" style="stop-color:#D1F0E9"/>
	<stop  offset="0.2648" style="stop-color:#CCF0E8"/>
	<stop  offset="0.5694" style="stop-color:#BEF0E6"/>
	<stop  offset="0.8926" style="stop-color:#A7F0E2"/>
	<stop  offset="1" style="stop-color:#9EF0E1"/>
</linearGradient>
<rect fill="url(#XMLID_3_)" width="1920" height="1080"/>
<path fill="#FFFFFF" d="M1160,1030c0,5.5-4.5,10-10,10H470c-5.5,0-10-4.5-10-10V550c0-5.5,4.5-10,10-10h680c5.5,0,10,4.5,10,10V1030
	z"/>
<path fill="#FFFFFF" d="M1870,1030c0,5.5-4.5,10-10,10h-680c-5.5,0-10-4.5-10-10V550c0-5.5,4.5-10,10-10h680c5.5,0,10,4.5,10,10
	V1030z"/>
<path fill="#FFFFFF" d="M1009.942,471.724c0,5.5-4.5,10-10,10h-320c-5.5,0-10-4.5-10-10v-28c0-5.5,4.5-10,10-10h320
	c5.5,0,10,4.5,10,10V471.724z"/>
<path fill="#DDDDDD" d="M1442.309,471.12c0,5.5-4.5,10-10,10h-320c-5.5,0-10-4.5-10-10v-28c0-5.5,4.5-10,10-10h320
	c5.5,0,10,4.5,10,10V471.12z"/>
<path fill="#DDDDDD" d="M1874.675,470.956c0,5.5-4.5,10-10,10h-320c-5.5,0-10-4.5-10-10v-28c0-5.5,4.5-10,10-10h320
	c5.5,0,10,4.5,10,10V470.956z"/>
<g>
	<path d="M1201.036,525.376c1.548,2.483,4.392,3.6,8.388,3.78c4.068,0.18,12.42,0.071,16.992-0.253
		c-0.396,0.757-0.899,2.305-1.08,3.276c-4.14,0.18-11.771,0.252-15.947,0.108c-4.465-0.181-7.561-1.368-9.756-4.141
		c-1.513,1.477-3.097,2.916-4.861,4.464l-1.655-3.312c1.44-0.972,3.204-2.34,4.716-3.672v-8.676h-4.32v-3.097h7.524V525.376z
		 M1199.309,508.672c-1.008-1.8-3.42-4.284-5.545-6.013l2.557-1.872c2.088,1.62,4.607,3.996,5.688,5.761L1199.309,508.672z
		 M1212.232,524.296h-9.864v-2.736h9.864v-2.124h-7.813v-11.808h7.813v-2.053h-9.36v-2.771h9.36v-2.916h3.24v2.916h9.792v2.771
		h-9.792v2.053h8.064v11.808h-8.064v2.124h10.296v2.736h-10.296v3.78h-3.24V524.296z M1207.516,512.344h4.717v-2.34h-4.717V512.344z
		 M1212.232,517.023v-2.376h-4.717v2.376H1212.232z M1215.473,510.004v2.34h4.859v-2.34H1215.473z M1220.332,514.647h-4.859v2.376
		h4.859V514.647z"/>
	<path d="M1237.324,520.983c-0.468,3.385-1.296,6.876-2.412,9.181c-0.54-0.396-1.872-1.008-2.556-1.261
		c1.08-2.159,1.764-5.327,2.124-8.424L1237.324,520.983z M1264.037,504.243c-1.332,3.421-3.24,6.372-5.58,8.856
		c2.483,1.872,5.328,3.348,8.172,4.32c-0.721,0.684-1.692,1.908-2.196,2.7l-0.72-0.288v13.032h-3.276v-1.549h-9.036v1.62h-3.132
		V520.3c-0.324,0.144-0.685,0.288-1.009,0.432c-0.215-0.432-0.647-1.08-1.115-1.655l-1.872,0.863
		c-0.108-0.576-0.324-1.224-0.54-1.908l-2.376,0.145v14.796h-2.988v-14.616c-1.979,0.108-3.815,0.216-5.437,0.324l-0.287-2.952
		l2.52-0.072c0.648-0.863,1.368-1.836,2.053-2.844c-1.117-1.62-2.881-3.563-4.465-5.04l1.62-2.196
		c0.324,0.252,0.648,0.54,0.972,0.828c1.117-1.979,2.305-4.571,2.953-6.516l2.951,1.152c-1.26,2.411-2.771,5.184-4.068,7.164
		c0.648,0.684,1.261,1.367,1.729,1.979c1.296-2.124,2.52-4.32,3.42-6.156l2.772,1.261c-2.017,3.275-4.608,7.199-6.948,10.224
		c1.439-0.036,2.952-0.108,4.5-0.216c-0.468-1.008-0.973-2.017-1.477-2.916l2.269-0.937c1.188,1.908,2.304,4.284,2.916,6.192
		c2.7-1.116,5.292-2.592,7.524-4.428c-1.332-1.296-2.521-2.7-3.564-4.177c-1.08,1.188-2.232,2.341-3.564,3.42
		c-0.432-0.684-1.512-1.728-2.231-2.159c3.96-2.988,6.588-7.057,7.956-10.404l3.24,0.576c-0.396,0.899-0.864,1.836-1.368,2.771
		h7.056l0.576-0.144L1264.037,504.243z M1244.452,520.191c0.9,2.053,1.872,4.752,2.269,6.517l-2.557,0.864
		c-0.359-1.765-1.224-4.501-2.123-6.589L1244.452,520.191z M1263.101,519.544c-2.412-1.08-4.752-2.557-6.876-4.284
		c-1.98,1.728-4.104,3.132-6.336,4.284H1263.101z M1260.437,528.399v-5.976h-9.036v5.976H1260.437z M1252.229,506.619
		c1.008,1.585,2.34,3.133,3.888,4.536c1.476-1.512,2.7-3.204,3.673-5.04h-7.201L1252.229,506.619z"/>
	<path d="M1305.328,522.855h-3.744v6.301h-3.383v-1.549h-7.668v1.872c0,1.836-0.469,2.593-1.693,3.061
		c-1.223,0.432-3.096,0.468-6.119,0.468c-0.18-0.756-0.684-1.98-1.152-2.7c1.98,0.072,4.141,0.072,4.717,0.036
		c0.647-0.036,0.863-0.216,0.863-0.828v-1.908h-11.232v-2.52h11.232v-2.232h-14.4v-2.628h14.4v-2.052h-10.908V515.8h10.908v-2.124
		h-9.973v-6.624h9.973v-1.836h-13.645v-2.7h13.645v-2.628h3.385v2.628h14.039v2.7h-14.039v1.836h10.476v6.624h-10.476v2.124h11.051
		v4.428h3.744V522.855z M1287.148,511.443v-2.16h-6.768v2.16H1287.148z M1290.533,509.283v2.16h7.092v-2.16H1290.533z
		 M1290.533,520.228h7.668v-2.052h-7.668V520.228z M1298.201,522.855h-7.668v2.232h7.668V522.855z"/>
	<path d="M1325.704,521.775c-4.429,1.62-9.072,3.313-12.636,4.536l-1.332-3.204c1.439-0.432,3.24-0.972,5.22-1.62v-14.472h-4.429
		v-3.096h12.205v3.096h-4.428v13.393l4.823-1.585L1325.704,521.775z M1333.229,528.256c-2.305,1.8-6.012,3.672-9.145,4.68
		c-0.468-0.647-1.439-1.728-2.088-2.304c3.023-0.972,6.66-2.772,8.46-4.248L1333.229,528.256z M1332.436,507.412
		c0.217-1.009,0.433-2.089,0.613-3.097h-8.064v-2.844h20.195v2.844h-8.315c-0.324,1.044-0.72,2.124-1.044,3.097h7.992v18.684
		h-17.172v-18.684H1332.436z M1340.536,509.932h-10.8v2.952h10.8V509.932z M1340.536,515.224h-10.8v2.988h10.8V515.224z
		 M1340.536,520.552h-10.8v3.024h10.8V520.552z M1338.628,526.527c2.341,1.188,5.509,3.097,7.164,4.429l-2.663,2.016
		c-1.477-1.296-4.645-3.312-6.984-4.644L1338.628,526.527z"/>
</g>
<g>
	<g>
		<path d="M506.237,406.063c-1.116,3.744-2.736,6.66-4.933,8.928c3.744,1.549,7.2,3.204,9.612,4.717l-2.628,2.735
			c-2.34-1.584-5.904-3.384-9.792-5.076c-3.816,2.664-8.784,4.141-14.94,5.112c-0.288-0.792-1.296-2.304-1.943-3.06
			c5.436-0.612,9.828-1.656,13.212-3.528c-2.016-0.792-4.068-1.512-6.012-2.16l-0.792,1.404l-3.492-0.937
			c1.332-2.16,2.952-5.111,4.536-8.136h-8.244v-3.204h9.899c0.973-1.944,1.908-3.852,2.7-5.544l3.492,0.756
			c-0.72,1.512-1.512,3.132-2.34,4.788h17.928v3.204H506.237z M485.105,400.88h-3.421v-7.956h13.068v-3.564h3.564v3.564h13.392
			v7.956h-3.563v-4.86h-23.04V400.88z M492.917,406.063c-0.9,1.764-1.8,3.456-2.664,5.04c2.448,0.72,5.076,1.584,7.704,2.592
			c2.088-1.943,3.564-4.428,4.464-7.632H492.917z"/>
		<path d="M537.881,418.483h13.644v3.024h-30.384v-3.024h13.212v-5.22h-10.296v-2.916h10.296v-4.968h-8.604v-2.664
			c-1.332,0.972-2.736,1.872-4.141,2.664c-0.432-0.792-1.368-1.98-2.124-2.7c6.156-3.276,12.024-8.856,14.725-13.393h3.42
			c3.78,5.364,9.828,10.332,15.408,12.996c-0.792,0.828-1.584,1.98-2.196,2.952c-1.296-0.72-2.628-1.584-3.96-2.52v2.664h-9v4.968
			h10.476v2.916h-10.476V418.483z M546.449,402.428c-4.104-2.952-8.064-6.588-10.368-9.828c-2.16,3.168-5.796,6.804-9.937,9.828
			H546.449z"/>
		<path d="M575.825,401.743c2.304,0,4.176,1.872,4.176,4.177c0,2.304-1.872,4.176-4.176,4.176s-4.176-1.872-4.176-4.176
			C571.649,403.615,573.521,401.743,575.825,401.743z"/>
		<path d="M623.741,404.983c-1.404,3.492-3.313,6.372-5.652,8.784c3.6,2.7,8.244,4.536,14.004,5.472
			c-0.792,0.792-1.728,2.269-2.231,3.204c-5.977-1.151-10.729-3.24-14.437-6.336c-3.924,3.024-8.748,5.04-14.4,6.444
			c-0.396-0.828-1.439-2.376-2.124-3.168c5.616-1.152,10.332-2.952,14.005-5.652c-2.196-2.412-3.925-5.256-5.292-8.604l3.204-0.973
			c1.115,2.809,2.663,5.256,4.68,7.309c2.016-2.053,3.6-4.536,4.68-7.488L623.741,404.983z M612.077,399.115
			c-2.557,3.42-6.517,6.805-9.937,8.893c-0.611-0.685-1.943-1.98-2.771-2.628c3.42-1.765,7.128-4.608,9.252-7.561L612.077,399.115z
			 M631.121,397.1h-31.393v-3.313h13.896v-4.464h3.456v4.464h14.04V397.1z M622.013,397.604c3.276,2.16,7.488,5.4,9.54,7.776
			l-2.952,2.304c-1.871-2.304-5.976-5.725-9.323-8.064L622.013,397.604z"/>
		<path d="M646.709,414.884c1.549,2.52,4.393,3.6,8.353,3.78c4.068,0.18,12.348,0.071,16.92-0.253
			c-0.359,0.757-0.899,2.305-1.08,3.276c-4.14,0.18-11.7,0.252-15.876,0.108c-4.464-0.181-7.56-1.368-9.756-4.141
			c-1.729,1.477-3.528,2.952-5.544,4.464l-1.584-3.312c1.656-1.008,3.636-2.376,5.364-3.744v-8.604h-4.933v-3.097h8.136V414.884z
			 M645.125,398.216c-1.151-1.765-3.743-4.284-6.012-5.94l2.34-2.088c2.232,1.548,4.933,3.888,6.156,5.616L645.125,398.216z
			 M653.262,416.756h-3.132v-18.433h9.252c-1.944-0.936-4.104-1.872-5.94-2.592l2.16-1.8c1.404,0.504,3.06,1.151,4.644,1.836
			c1.368-0.685,2.772-1.548,3.961-2.412h-13.933v-2.628h17.028l0.684-0.18l2.017,1.619c-1.872,1.729-4.356,3.528-6.876,4.896
			c0.936,0.432,1.764,0.864,2.447,1.26h4.429v15.336c0,1.513-0.252,2.269-1.296,2.736c-1.009,0.432-2.521,0.468-4.824,0.468
			c-0.108-0.828-0.504-1.943-0.9-2.7c1.512,0.072,2.88,0.036,3.313,0.036c0.396,0,0.54-0.144,0.54-0.575v-2.521h-5.364v5.544h-3.024
			v-5.544h-5.184V416.756z M653.262,400.808v2.628h5.184v-2.628H653.262z M658.445,408.584v-2.7h-5.184v2.7H658.445z
			 M666.834,400.808h-5.364v2.628h5.364V400.808z M666.834,408.584v-2.7h-5.364v2.7H666.834z"/>
		<path d="M686.417,409.016v9.468c0,1.729-0.36,2.592-1.404,3.061c-1.044,0.54-2.664,0.611-5.111,0.611
			c-0.108-0.828-0.576-2.195-0.973-3.023c1.584,0.036,3.097,0.036,3.528,0.036c0.504-0.036,0.72-0.181,0.72-0.721v-8.531
			c-1.548,0.432-2.987,0.863-4.355,1.224l-0.9-3.204c1.477-0.324,3.276-0.792,5.256-1.296v-7.092h-4.788v-3.097h4.788v-7.056h3.24
			v7.056h4.104v3.097h-4.104v6.228l3.853-1.044l0.396,3.061L686.417,409.016z M710.934,417.979v3.096h-21.744v-3.096H710.934z
			 M708.521,413.84h-16.74v-21.996h16.74V413.84z M705.173,394.939h-10.151v6.3h10.151V394.939z M705.173,404.336h-10.151v6.372
			h10.151V404.336z"/>
		<path d="M736.024,401.888h11.593v20.556h-3.564v-1.512H720.4v-3.348h23.652v-4.752h-21.708v-3.204h21.708v-4.393h-22.932v-3.348
			h11.268v-12.492h3.636V401.888z M724.9,400.375c-0.684-2.304-2.556-5.76-4.392-8.279l3.023-1.225
			c1.944,2.521,3.816,5.832,4.572,8.101L724.9,400.375z M748.121,391.735c-1.513,3.096-3.456,6.552-5.004,8.82l-2.952-1.08
			c1.476-2.376,3.312-6.12,4.319-8.928L748.121,391.735z"/>
		<path d="M776.562,403.544c-1.62,1.224-3.313,2.304-5.04,3.384h13.968V422.3h-3.456v-0.973h-13.572v1.116h-3.312v-12.096
			c-2.017,0.936-4.068,1.8-6.12,2.592c-0.396-0.756-1.44-2.088-2.052-2.771c4.968-1.656,9.756-3.889,14.076-6.624h-13.177v-2.988
			h11.916v-4.032h-8.784v-2.916h8.784v-4.212h3.313v4.212h8.388v1.584c1.44-1.476,2.772-3.024,3.924-4.644l2.881,1.512
			c-2.269,3.096-4.969,5.904-7.956,8.496h9.432v2.988H776.562z M782.033,409.699h-13.572v2.988h13.572V409.699z M782.033,418.483
			v-3.168h-13.572v3.168H782.033z M775.445,400.556c1.692-1.26,3.24-2.628,4.716-4.032h-7.056v4.032H775.445z"/>
	</g>
</g>
<g>
	<path d="M494.897,33.517h-10.621v4.752h-2.988v-7.056h13.608v-1.836h-11.413V26.82h26.208v2.556h-11.557v1.836h13.86v7.056h-3.096
		v-4.752h-10.765V41.4h-3.239V33.517z M508.073,55.621c1.8,0,2.16-0.612,2.376-3.96c0.684,0.504,1.944,0.972,2.844,1.08
		c-0.432,4.356-1.403,5.472-5.04,5.472h-7.884c-4.428,0-5.652-0.828-5.652-4.068V53.46h-7.056v1.728h-3.204V42.48h24.408v10.98
		h-10.944v0.684c0,1.26,0.433,1.476,2.664,1.476H508.073z M485.249,38.736h8.064v1.944h-8.064V38.736z M493.277,35.136v1.944h-7.308
		v-1.944H493.277z M487.661,44.82v2.124h7.056V44.82H487.661z M494.717,51.084v-2.052h-7.056v2.052H494.717z M505.589,44.82h-7.668
		v2.124h7.668V44.82z M505.589,51.084v-2.052h-7.668v2.052H505.589z M507.173,35.136v1.944h-7.38v-1.944H507.173z M499.793,38.736
		h8.28v1.944h-8.28V38.736z"/>
	<path d="M550.589,48.96c-1.872,1.296-4.248,2.592-6.3,3.528c2.376,1.584,5.256,2.7,8.64,3.348c-0.72,0.648-1.548,1.908-1.944,2.736
		c-7.235-1.692-12.096-5.544-14.976-11.556h-0.072c-1.332,1.152-2.952,2.196-4.752,3.132v4.284c2.448-0.324,5.076-0.684,7.668-1.044
		l0.145,2.772c-5.185,0.756-10.729,1.548-14.652,2.052l-0.54-2.844l4.176-0.54v-3.24c-2.124,0.828-4.392,1.512-6.588,1.944
		c-0.36-0.72-1.188-1.8-1.836-2.412c4.284-0.72,8.784-2.196,11.988-4.104h-11.376v-2.628h14.292v-2.664h3.348v2.664h14.508v2.628
		h-13.104c0.792,1.44,1.8,2.7,3.023,3.816c2.053-1.044,4.465-2.52,5.94-3.636L550.589,48.96z M527.477,37.548
		c-2.304,1.044-4.68,2.196-6.732,3.096l-1.151-2.772c1.872-0.72,4.536-1.836,7.2-2.988L527.477,37.548z M524.885,33.012
		c-0.864-1.152-2.772-2.772-4.356-3.852l1.98-1.944c1.584,1.008,3.563,2.556,4.464,3.672L524.885,33.012z M530.789,42.336h-3.133
		v-16.92h3.133V42.336z M540.545,32.904h-8.136v-2.916h8.136v-4.572h3.348v4.572h8.424v2.916h-8.424v5.04h7.416v2.916h-17.892
		v-2.916h7.128V32.904z"/>
	<path d="M564.773,34.021c-0.9,0.972-1.836,1.836-2.736,2.592c-0.612-0.612-1.944-1.656-2.771-2.196c3.06-2.124,5.903-5.544,7.56-9
		l3.276,0.936c-0.504,1.044-1.08,2.052-1.729,3.024h22.141v2.952h-3.528v5.4h4.86v3.024h-4.86v5.4h4.356v3.024h-30.925v-3.024h4.356
		v-5.4h-4.896v-3.024h4.896V34.021z M559.553,57.168c1.765-1.476,3.385-4.212,4.248-6.804l3.24,0.792
		c-0.899,2.7-2.448,5.544-4.319,7.344L559.553,57.168z M567.797,37.729h3.349v-5.4h-3.349V37.729z M567.797,46.152h3.349v-5.4
		h-3.349V46.152z M573.197,51.084c0.468,2.124,0.864,4.896,0.9,6.552l-3.276,0.468c0-1.692-0.288-4.536-0.72-6.696L573.197,51.084z
		 M577.445,37.729v-5.4h-3.492v5.4H577.445z M573.953,40.752v5.4h3.492v-5.4H573.953z M580.434,50.94
		c0.936,2.052,1.872,4.824,2.195,6.552l-3.312,0.648c-0.288-1.728-1.116-4.536-2.016-6.696L580.434,50.94z M583.854,32.329h-3.564
		v5.4h3.564V32.329z M583.854,40.752h-3.564v5.4h3.564V40.752z M587.634,50.221c1.728,2.16,3.815,5.148,4.752,7.092l-3.385,1.188
		c-0.863-1.908-2.808-5.004-4.535-7.272L587.634,50.221z"/>
	<path d="M616.973,39.024c-0.071,0.792-0.107,1.584-0.18,2.34c1.404,8.676,5.112,13.032,15.372,14.076
		c-0.72,0.756-1.548,2.196-1.944,3.168c-8.352-1.26-12.527-4.428-14.832-10.404c-1.8,4.896-5.651,8.352-14.544,10.26
		c-0.324-0.864-1.152-2.268-1.872-3.024c12.601-2.448,13.716-7.848,14.292-16.416H616.973z M608.333,41.904
		c-1.08,2.88-2.664,5.868-5.292,7.776l-2.772-1.872c2.412-1.656,4.177-4.356,5.148-7.092L608.333,41.904z M606.389,39.168
		c-1.116-1.908-3.384-4.68-5.796-7.164c1.944-2.196,4.032-4.86,5.148-6.588l3.42,0.9c-1.368,1.944-3.132,3.924-4.645,5.616
		c1.98,1.944,4.068,4.356,5.112,5.94L606.389,39.168z M616.541,38.701c-1.152-1.836-3.528-4.536-6.048-6.912
		c2.052-2.088,4.176-4.68,5.399-6.372l3.42,0.9c-1.439,1.872-3.239,3.78-4.787,5.436c1.979,1.836,4.14,4.14,5.256,5.652
		L616.541,38.701z M627.053,39.313c-1.296-1.944-3.96-4.752-6.804-7.236c2.232-2.196,4.644-4.896,5.94-6.66l3.42,1.008
		c-1.549,1.908-3.528,3.888-5.221,5.58c2.269,1.908,4.608,4.32,5.904,5.94L627.053,39.313z M621.761,48.276
		c1.548-1.98,3.384-5.112,4.464-7.452l3.601,0.972c-1.584,2.664-3.528,5.58-5.076,7.452L621.761,48.276z"/>
	<path d="M670.901,43.632v2.736h-31.644v-2.736h13.968V41.4h-10.477v-2.556h10.477v-2.016h-9.108v-2.592h9.108v-2.268h3.384v2.268
		h9.468v2.592h-9.468v2.016h11.017V41.4h-11.017v2.232H670.901z M643.47,35.497h-3.313v-6.732h13.068v-3.348h3.42v3.348h13.356
		v6.732h-3.42v-3.816H643.47V35.497z M644.262,48.168h21.96v10.188h-3.348v-0.972h-15.408v1.08h-3.204V48.168z M647.466,50.869
		v3.816h15.408v-3.816H647.466z"/>
	<path d="M706.722,27.72v30.205h-3.564v-2.196h-16.956v2.34h-3.42V27.72H706.722z M686.201,31.104v8.784h16.956v-8.784H686.201z
		 M703.157,52.345v-9.144h-16.956v9.144H703.157z"/>
	<path d="M748.625,35.064c-0.828,5.58-2.088,10.188-4.176,13.932c1.691,2.844,3.888,5.112,6.659,6.552
		c-0.756,0.648-1.836,1.944-2.34,2.88c-2.592-1.548-4.68-3.672-6.372-6.3c-2.052,2.628-4.68,4.752-7.992,6.444
		c-0.252-0.54-0.756-1.404-1.26-2.124l-1.188,1.224c-1.009-0.9-2.412-1.836-3.996-2.772c-2.088,1.656-4.933,2.772-8.748,3.564
		c-0.216-0.9-0.828-2.124-1.44-2.772c3.132-0.468,5.508-1.224,7.272-2.412c-0.937-0.468-1.872-0.936-2.845-1.368l-0.468,0.828
		l-2.916-0.9c0.792-1.332,1.729-3.06,2.7-4.86h-3.852v-2.772h5.22c0.504-0.972,0.936-1.944,1.332-2.844l0.864,0.18v-4.176
		c-1.729,1.872-3.853,3.564-5.868,4.716c-0.396-0.756-1.152-1.872-1.765-2.52c2.412-0.972,5.005-2.988,6.732-5.148h-6.229v-2.7h3.24
		c-0.288-1.26-1.188-3.132-2.052-4.536l2.412-1.008c1.008,1.368,1.944,3.24,2.304,4.5l-2.376,1.044h3.601V25.38h3.096v6.336h7.056
		v2.7h-6.876c1.62,0.9,5.112,3.06,6.013,3.708l-1.801,2.34c-0.863-0.828-2.771-2.34-4.392-3.564v4.932h-1.8l0.972,0.216
		c-0.324,0.684-0.684,1.404-1.044,2.16h9.072v2.772h-2.952c-0.468,2.232-1.188,4.104-2.269,5.616
		c1.368,0.756,2.629,1.548,3.637,2.268c2.88-1.548,5.076-3.564,6.804-6.048c-1.224-2.556-2.124-5.472-2.88-8.64
		c-0.684,1.332-1.404,2.592-2.232,3.672c-0.504-0.612-1.907-1.8-2.664-2.34c2.988-3.744,4.824-9.792,5.761-16.128l3.384,0.504
		c-0.36,2.052-0.756,4.068-1.26,6.012h10.044v3.168H748.625z M724.9,46.98c-0.468,0.828-0.899,1.692-1.332,2.484
		c1.261,0.504,2.557,1.044,3.78,1.656c0.864-1.116,1.44-2.484,1.872-4.14H724.9z M734.656,27.18
		c-1.151,1.62-2.304,3.348-3.203,4.464l-2.232-1.008c0.864-1.26,1.98-3.24,2.556-4.644L734.656,27.18z M739.805,35.064
		c0.648,3.672,1.512,7.128,2.772,10.152c1.224-2.88,2.052-6.264,2.592-10.152H739.805z"/>
</g>
<g>
	<g>
		<path d="M1220.1,41.002c-1.404,3.492-3.313,6.372-5.652,8.784c3.601,2.7,8.244,4.536,14.004,5.472
			c-0.792,0.792-1.728,2.268-2.231,3.204c-5.977-1.152-10.729-3.24-14.437-6.336c-3.924,3.024-8.748,5.04-14.4,6.444
			c-0.396-0.828-1.439-2.376-2.124-3.168c5.616-1.152,10.332-2.952,14.005-5.652c-2.196-2.412-3.925-5.256-5.292-8.604l3.203-0.972
			c1.116,2.808,2.664,5.256,4.681,7.308c2.016-2.052,3.6-4.536,4.68-7.488L1220.1,41.002z M1208.436,35.134
			c-2.557,3.42-6.517,6.804-9.937,8.892c-0.611-0.684-1.943-1.98-2.771-2.628c3.42-1.764,7.128-4.608,9.252-7.56L1208.436,35.134z
			 M1227.479,33.119h-31.393v-3.312h13.896v-4.464h3.456v4.464h14.04V33.119z M1218.371,33.623c3.276,2.16,7.488,5.4,9.54,7.776
			l-2.952,2.304c-1.872-2.304-5.976-5.724-9.323-8.064L1218.371,33.623z"/>
		<path d="M1243.066,50.903c1.549,2.52,4.393,3.6,8.353,3.78c4.068,0.18,12.348,0.072,16.92-0.252
			c-0.359,0.756-0.899,2.304-1.08,3.276c-4.14,0.18-11.7,0.252-15.876,0.108c-4.464-0.18-7.56-1.368-9.756-4.14
			c-1.729,1.476-3.528,2.952-5.544,4.464l-1.584-3.312c1.656-1.008,3.636-2.376,5.364-3.744v-8.604h-4.933v-3.096h8.136V50.903z
			 M1241.482,34.234c-1.151-1.764-3.743-4.284-6.012-5.94l2.34-2.088c2.232,1.548,4.933,3.888,6.156,5.616L1241.482,34.234z
			 M1249.619,52.774h-3.132V34.342h9.252c-1.944-0.936-4.104-1.872-5.94-2.592l2.16-1.8c1.404,0.504,3.06,1.152,4.644,1.836
			c1.368-0.684,2.772-1.548,3.961-2.412h-13.933v-2.628h17.028l0.684-0.18l2.017,1.62c-1.872,1.728-4.356,3.528-6.876,4.896
			c0.936,0.432,1.764,0.864,2.447,1.26h4.429v15.336c0,1.512-0.252,2.268-1.296,2.736c-1.009,0.432-2.521,0.468-4.824,0.468
			c-0.108-0.828-0.504-1.944-0.9-2.7c1.512,0.072,2.88,0.036,3.313,0.036c0.396,0,0.54-0.144,0.54-0.576v-2.52h-5.364v5.544h-3.024
			v-5.544h-5.184V52.774z M1249.619,36.827v2.628h5.184v-2.628H1249.619z M1254.803,44.603v-2.7h-5.184v2.7H1254.803z
			 M1263.191,36.827h-5.364v2.628h5.364V36.827z M1263.191,44.603v-2.7h-5.364v2.7H1263.191z"/>
		<path d="M1279.932,34.019c-0.9,0.972-1.836,1.836-2.736,2.592c-0.612-0.612-1.944-1.656-2.771-2.196
			c3.06-2.124,5.903-5.544,7.56-9l3.276,0.936c-0.504,1.044-1.08,2.052-1.729,3.024h22.141v2.952h-3.528v5.4h4.86v3.024h-4.86v5.4
			h4.356v3.024h-30.925V46.15h4.356v-5.4h-4.896v-3.024h4.896V34.019z M1274.711,57.167c1.765-1.476,3.385-4.212,4.248-6.804
			l3.24,0.792c-0.899,2.7-2.448,5.544-4.319,7.344L1274.711,57.167z M1282.955,37.727h3.349v-5.4h-3.349V37.727z M1282.955,46.15
			h3.349v-5.4h-3.349V46.15z M1288.355,51.083c0.468,2.124,0.864,4.896,0.9,6.552l-3.276,0.468c0-1.692-0.288-4.536-0.72-6.696
			L1288.355,51.083z M1292.604,37.727v-5.4h-3.492v5.4H1292.604z M1289.111,40.75v5.4h3.492v-5.4H1289.111z M1295.592,50.938
			c0.936,2.052,1.872,4.824,2.195,6.552l-3.312,0.648c-0.288-1.728-1.116-4.536-2.016-6.696L1295.592,50.938z M1299.012,32.327
			h-3.564v5.4h3.564V32.327z M1299.012,40.75h-3.564v5.4h3.564V40.75z M1302.792,50.219c1.728,2.16,3.815,5.148,4.752,7.092
			l-3.385,1.188c-0.863-1.908-2.808-5.004-4.535-7.272L1302.792,50.219z"/>
		<path d="M1346.927,48.383h-3.743v6.3h-3.385v-1.548h-7.668v1.872c0,1.836-0.468,2.592-1.691,3.06
			c-1.225,0.432-3.097,0.468-6.12,0.468c-0.181-0.756-0.685-1.98-1.152-2.7c1.98,0.072,4.14,0.072,4.716,0.036
			c0.648-0.036,0.864-0.216,0.864-0.828v-1.908h-11.232v-2.52h11.232v-2.232h-14.4v-2.628h14.4v-2.052h-10.908v-2.376h10.908v-2.124
			h-9.972v-6.624h9.972v-1.836h-13.645v-2.7h13.645v-2.628h3.384v2.628h14.04v2.7h-14.04v1.836h10.477v6.624h-10.477v2.124h11.053
			v4.428h3.743V48.383z M1328.747,36.971v-2.16h-6.768v2.16H1328.747z M1332.131,34.811v2.16h7.093v-2.16H1332.131z
			 M1332.131,45.754h7.668v-2.052h-7.668V45.754z M1339.799,48.383h-7.668v2.232h7.668V48.383z"/>
		<path d="M1384.224,35.099c-0.972,5.724-2.448,10.368-4.752,14.112c1.944,2.844,4.428,5.004,7.561,6.372
			c-0.757,0.684-1.836,1.98-2.305,2.916c-3.06-1.512-5.436-3.708-7.38-6.372c-2.268,2.628-5.147,4.716-8.784,6.372
			c-0.324-0.792-1.26-2.304-1.908-2.988c3.816-1.548,6.66-3.6,8.856-6.336c-1.476-2.772-2.628-5.904-3.528-9.36
			c-0.647,1.188-1.332,2.268-2.088,3.204c-0.359-0.36-0.936-0.828-1.548-1.332v12.924h-10.008v2.304h-3.097V41.398h4.896v-6.084
			h-6.408v-3.096h6.408V25.45h3.348v6.768h6.12v3.096h-6.12v6.084h4.465c-0.324-0.252-0.612-0.468-0.864-0.612
			c3.096-3.492,5.112-9.288,6.156-15.372l3.384,0.54c-0.36,2.052-0.864,4.068-1.44,5.976h11.557v3.168H1384.224z M1365.144,44.531
			h-6.804v6.948h6.804V44.531z M1374.107,35.17c0.721,3.96,1.872,7.668,3.456,10.8c1.584-2.988,2.593-6.588,3.313-10.872h-6.732
			L1374.107,35.17z"/>
		<path d="M1409.783,37.763c2.304,0,4.176,1.872,4.176,4.176c0,2.304-1.872,4.176-4.176,4.176s-4.176-1.872-4.176-4.176
			C1405.607,39.635,1407.479,37.763,1409.783,37.763z"/>
		<path d="M1438.331,34.019c-0.9,0.972-1.836,1.836-2.736,2.592c-0.612-0.612-1.944-1.656-2.771-2.196
			c3.06-2.124,5.903-5.544,7.56-9l3.276,0.936c-0.504,1.044-1.08,2.052-1.729,3.024h22.141v2.952h-3.528v5.4h4.86v3.024h-4.86v5.4
			h4.356v3.024h-30.925V46.15h4.356v-5.4h-4.896v-3.024h4.896V34.019z M1433.11,57.167c1.765-1.476,3.385-4.212,4.248-6.804
			l3.24,0.792c-0.899,2.7-2.448,5.544-4.319,7.344L1433.11,57.167z M1441.354,37.727h3.349v-5.4h-3.349V37.727z M1441.354,46.15
			h3.349v-5.4h-3.349V46.15z M1446.755,51.083c0.468,2.124,0.864,4.896,0.9,6.552l-3.276,0.468c0-1.692-0.288-4.536-0.72-6.696
			L1446.755,51.083z M1451.003,37.727v-5.4h-3.492v5.4H1451.003z M1447.511,40.75v5.4h3.492v-5.4H1447.511z M1453.991,50.938
			c0.936,2.052,1.872,4.824,2.195,6.552l-3.312,0.648c-0.288-1.728-1.116-4.536-2.016-6.696L1453.991,50.938z M1457.411,32.327
			h-3.564v5.4h3.564V32.327z M1457.411,40.75h-3.564v5.4h3.564V40.75z M1461.191,50.219c1.728,2.16,3.815,5.148,4.752,7.092
			l-3.385,1.188c-0.863-1.908-2.808-5.004-4.535-7.272L1461.191,50.219z"/>
		<path d="M1480.235,50.903c1.548,2.484,4.393,3.6,8.388,3.78c4.068,0.18,12.421,0.072,16.992-0.252
			c-0.396,0.756-0.899,2.304-1.08,3.276c-4.14,0.18-11.771,0.252-15.947,0.108c-4.465-0.18-7.561-1.368-9.757-4.14
			c-1.512,1.476-3.096,2.916-4.859,4.464l-1.656-3.312c1.44-0.972,3.204-2.34,4.716-3.672v-8.676h-4.32v-3.096h7.524V50.903z
			 M1478.004,33.982c-0.937-1.692-3.133-4.104-5.076-5.796l2.628-1.8c1.943,1.62,4.212,3.924,5.256,5.58L1478.004,33.982z
			 M1504.968,34.667h-23.437v-2.34h6.588c0.252-0.648,0.504-1.368,0.721-2.088h-4.969v-2.232h5.652c0.288-0.9,0.504-1.8,0.72-2.628
			l3.24,0.396c-0.18,0.72-0.432,1.476-0.647,2.232h7.991v4.32h4.141V34.667z M1493.771,53.747v-2.628h-12.168v-2.34h4.14v-2.232
			h-3.06v-2.34h11.088v-1.656h-9.432v-6.372h17.315v6.372h-4.716v1.656h6.948v2.34h-6.948v2.232h7.884v2.34h-7.884v2.628H1493.771z
			 M1487.399,40.499h11.017V38.23h-11.017V40.499z M1493.771,48.779v-2.232h-5.004v2.232H1493.771z M1492.115,30.238
			c-0.252,0.72-0.468,1.44-0.72,2.088h6.3v-2.088H1492.115z"/>
		<path d="M1541.363,37.402c-1.476,5.688-4.104,10.08-7.524,13.428c2.916,2.088,6.517,3.6,10.765,4.536
			c-0.792,0.756-1.765,2.196-2.269,3.132c-4.5-1.116-8.208-2.88-11.268-5.292c-3.132,2.34-6.696,4.032-10.584,5.22
			c-0.433-0.9-1.296-2.304-1.98-3.06c3.636-0.936,7.021-2.412,9.937-4.536c-2.845-2.952-4.969-6.588-6.589-10.98h-1.907
			c-0.181,5.904-1.152,13.428-4.717,18.504c-0.611-0.576-2.052-1.584-2.88-1.98c3.925-5.436,4.284-13.392,4.284-19.08v-9.792h26.532
			v3.312h-23.184v5.796h18.359l0.648-0.144L1541.363,37.402z M1525.379,39.851c1.332,3.42,3.24,6.372,5.725,8.748
			c2.483-2.34,4.464-5.256,5.796-8.748H1525.379z"/>
		<path d="M1580.28,27.718v30.205h-3.564v-2.196h-16.956v2.34h-3.42V27.718H1580.28z M1559.76,31.103v8.784h16.956v-8.784H1559.76z
			 M1576.716,52.343v-9.144h-16.956v9.144H1576.716z"/>
		<path d="M1622.184,35.063c-0.828,5.58-2.088,10.188-4.176,13.932c1.691,2.844,3.888,5.112,6.659,6.552
			c-0.756,0.648-1.836,1.944-2.34,2.88c-2.592-1.548-4.68-3.672-6.372-6.3c-2.052,2.628-4.68,4.752-7.992,6.444
			c-0.252-0.54-0.756-1.404-1.26-2.124l-1.188,1.224c-1.009-0.9-2.412-1.836-3.996-2.772c-2.088,1.656-4.933,2.772-8.748,3.564
			c-0.216-0.9-0.828-2.124-1.44-2.772c3.132-0.468,5.508-1.224,7.272-2.412c-0.937-0.468-1.872-0.936-2.845-1.368l-0.468,0.828
			l-2.916-0.9c0.792-1.332,1.729-3.06,2.7-4.86h-3.852v-2.772h5.22c0.504-0.972,0.936-1.944,1.332-2.844l0.864,0.18v-4.176
			c-1.729,1.872-3.853,3.564-5.868,4.716c-0.396-0.756-1.152-1.872-1.765-2.52c2.412-0.972,5.005-2.988,6.732-5.148h-6.229v-2.7
			h3.24c-0.288-1.26-1.188-3.132-2.052-4.536l2.412-1.008c1.008,1.368,1.944,3.24,2.304,4.5l-2.376,1.044h3.601v-6.336h3.096v6.336
			h7.056v2.7h-6.876c1.62,0.9,5.112,3.06,6.013,3.708l-1.801,2.34c-0.863-0.828-2.771-2.34-4.392-3.564v4.932h-1.8l0.972,0.216
			c-0.324,0.684-0.684,1.404-1.044,2.16h9.072v2.772h-2.952c-0.468,2.232-1.188,4.104-2.269,5.616
			c1.368,0.756,2.629,1.548,3.637,2.268c2.88-1.548,5.076-3.564,6.804-6.048c-1.224-2.556-2.124-5.472-2.88-8.64
			c-0.684,1.332-1.404,2.592-2.232,3.672c-0.504-0.612-1.907-1.8-2.664-2.34c2.988-3.744,4.824-9.792,5.761-16.128l3.384,0.504
			c-0.36,2.052-0.756,4.068-1.26,6.012h10.044v3.168H1622.184z M1598.459,46.979c-0.468,0.828-0.899,1.692-1.332,2.484
			c1.261,0.504,2.557,1.044,3.78,1.656c0.864-1.116,1.44-2.484,1.872-4.14H1598.459z M1608.216,27.178
			c-1.152,1.62-2.305,3.348-3.204,4.464l-2.232-1.008c0.864-1.26,1.98-3.24,2.556-4.644L1608.216,27.178z M1613.363,35.063
			c0.648,3.672,1.512,7.128,2.772,10.152c1.224-2.88,2.052-6.264,2.592-10.152H1613.363z"/>
	</g>
</g>
<g>
	<path fill="#FFFFFF" d="M39.636,933.904c-1.104,0-2,0.896-2,2s0.896,2,2,2H438c1.104,0,2-0.896,2-2s-0.896-2-2-2H39.636z"/>
</g>
<g>
	<g>
		<path fill="#111111" d="M1050.104,356.755c0,5.5-4.5,10-10,10H679.942c-5.5,0-10-4.5-10-10v-70c0-5.5,4.5-10,10-10h360.162
			c5.5,0,10,4.5,10,10V356.755z"/>
		<g>
			<path fill="#404040" d="M685.942,280.755c-6.617,0-12,5.383-12,12v58c0,6.617,5.383,12,12,12h348.162c6.617,0,12-5.383,12-12v-58
				c0-6.617-5.383-12-12-12H685.942z M677.942,350.755v-58c0-4.411,3.589-8,8-8h348.162c4.411,0,8,3.589,8,8v58c0,4.411-3.589,8-8,8
				H685.942C681.531,358.755,677.942,355.167,677.942,350.755z"/>
		</g>
		<g>
			<g>
				<path d="M1105.224,302.908v40.272h-4.752v-2.928h-22.607v3.12h-4.561v-40.464H1105.224z M1077.864,307.42v11.712h22.607V307.42
					H1077.864z M1100.472,335.74v-12.192h-22.607v12.192H1100.472z"/>
			</g>
		</g>
		<g>
			<g>
				<path d="M566.971,294.115v23.884h-2.744v-1.848h-13.832v1.848h-2.632v-23.884H566.971z M550.395,296.663v3.976h13.832v-3.976
					H550.395z M550.395,303.103v4.032h13.832v-4.032H550.395z M564.227,313.603v-4.004h-13.832v4.004H564.227z"/>
				<path d="M580.915,309.319c-0.364-0.896-1.176-2.436-1.904-3.752v12.6h-2.408v-11.844c-0.84,2.66-1.876,5.124-2.996,6.72
					c-0.252-0.7-0.868-1.68-1.232-2.24c1.652-2.296,3.248-6.44,4.004-9.996h-3.416v-2.408h3.64v-5.908h2.408v5.908h2.968v2.408
					h-2.968v1.652c0.784,1.036,2.856,4.2,3.304,4.956L580.915,309.319z M587.075,312.875c-1.12,1.68-2.828,3.388-4.452,4.508
					c-0.392-0.504-1.064-1.176-1.624-1.596c1.54-1.008,3.164-2.632,4.06-4.004L587.075,312.875z M591.331,311.335v4.424
					c0,1.092-0.168,1.736-0.98,2.072c-0.756,0.364-1.904,0.364-3.556,0.364c-0.084-0.644-0.448-1.512-0.728-2.1
					c1.148,0.028,2.128,0.028,2.436,0c0.336,0,0.392-0.084,0.392-0.364v-4.396h-6.86v-2.128h16.268v2.128H591.331z M587.019,295.795
					h-4.844v-2.128h16.1v2.128h-5.012v1.652h4.284v6.804h-14.504v-6.804h3.976V295.795z M583.799,307.611v-1.96h13.048v1.96H583.799
					z M585.199,302.347h2.044v-2.94h-2.044V302.347z M591.219,295.795h-2.156v1.652h2.156V295.795z M589.063,299.407v2.94h2.156
					v-2.94H589.063z M594.663,311.839c1.372,1.26,3.052,2.996,3.836,4.172l-1.932,1.372c-0.756-1.148-2.352-2.996-3.724-4.312
					L594.663,311.839z M595.307,299.407h-2.296v2.94h2.296V299.407z"/>
				<path d="M622.13,315.843c-1.568-1.456-3.696-3.024-6.188-4.032c0,0.56,0.028,1.036,0.028,1.428c0,2.1-1.512,4.032-5.124,4.032
					c-4.2,0-6.468-1.54-6.468-4.34c0-2.632,2.492-4.48,6.636-4.48c0.7,0,1.372,0.056,2.044,0.112
					c-0.056-1.036-0.084-2.156-0.112-3.164h-1.512c-1.764,0-4.9-0.14-6.832-0.364l0.028-2.632c1.736,0.336,5.152,0.532,6.832,0.532
					c0.476,0,0.952,0,1.428,0v-3.5c-0.448,0-0.896,0-1.372,0c-1.848,0-4.676-0.196-6.3-0.42v-2.548
					c1.708,0.308,4.48,0.532,6.272,0.532h1.428v-1.568c0-0.504-0.056-1.316-0.112-1.764h2.968c-0.056,0.504-0.14,1.12-0.168,1.876
					c0,0.308-0.028,0.812-0.028,1.372c2.324-0.112,4.48-0.336,6.916-0.7l0.028,2.548c-2.016,0.196-4.34,0.448-6.972,0.56v3.528
					c2.744-0.14,5.18-0.392,7.56-0.728l0.028,2.632c-2.576,0.308-4.872,0.476-7.532,0.588c0.028,1.26,0.112,2.576,0.196,3.78
					c3.584,1.008,6.328,2.968,7.924,4.284L622.13,315.843z M613.143,310.971c-0.812-0.14-1.624-0.224-2.492-0.224
					c-2.352,0-3.612,0.896-3.612,2.044c0,1.176,1.036,1.988,3.416,1.988c1.568,0,2.716-0.448,2.716-2.24
					C613.17,312.147,613.17,311.615,613.143,310.971z"/>
				<path d="M632.239,297.111c2.016-0.196,6.972-0.672,12.068-1.092c2.94-0.252,5.74-0.42,7.616-0.476l0.028,2.828
					c-1.54,0-3.948,0.028-5.404,0.392c-3.668,1.12-6.104,5.04-6.104,8.316c0,5.068,4.704,6.72,9.268,6.944l-1.008,2.968
					c-5.432-0.28-11.116-3.192-11.116-9.296c0-4.2,2.436-7.56,4.676-8.988c-2.408,0.252-9.212,0.924-12.32,1.596l-0.28-3.052
					C630.727,297.223,631.679,297.167,632.239,297.111z M650.327,305.287l-1.736,0.784c-0.672-1.428-1.4-2.716-2.24-3.92l1.68-0.728
					C648.703,302.403,649.739,304.111,650.327,305.287z M653.519,303.999l-1.708,0.84c-0.728-1.428-1.456-2.66-2.352-3.864
					l1.68-0.756C651.811,301.171,652.902,302.851,653.519,303.999z"/>
				<path d="M620.002,332.611c-0.168,0.364-0.364,1.036-0.532,1.54c3.36,1.008,5.46,3.528,5.46,6.664c0,3.948-2.52,7.56-9.1,8.596
					l-1.484-2.324c5.152-0.56,7.84-3.192,7.84-6.412c0-1.904-1.204-3.612-3.5-4.34c-1.54,3.864-3.752,6.832-5.992,8.736
					c0.196,0.756,0.42,1.484,0.644,2.156l-2.548,0.756c-0.14-0.42-0.28-0.868-0.392-1.344c-1.428,0.784-3.024,1.344-4.508,1.344
					c-1.932,0-3.5-1.176-3.5-3.752c0-3.556,3.052-7.28,6.888-9.044c0.056-1.288,0.168-2.576,0.28-3.78c-0.476,0-0.924,0-1.344,0
					c-1.316,0-3.472-0.112-4.648-0.196l-0.084-2.576c0.952,0.14,3.388,0.364,4.816,0.364c0.504,0,1.008,0,1.512,0l0.196-1.876
					c0.028-0.476,0.084-1.064,0.056-1.456l2.912,0.084c-0.14,0.42-0.252,0.924-0.336,1.316c-0.112,0.532-0.224,1.176-0.336,1.848
					c3.472-0.14,6.636-0.504,9.576-1.176l0.028,2.576c-2.8,0.476-6.496,0.84-9.912,1.008c-0.084,0.952-0.168,1.96-0.252,2.996
					c1.484-0.392,3.052-0.616,4.424-0.616c0.28,0,0.532,0,0.784,0.028c0.14-0.504,0.28-1.316,0.308-1.792L620.002,332.611z
					 M609.811,344.063c-0.364-1.96-0.616-4.116-0.616-6.244c-2.436,1.512-4.172,3.976-4.172,5.908c0,1.036,0.448,1.54,1.428,1.54
					C607.403,345.267,608.579,344.847,609.811,344.063z M611.659,337.371c0,1.736,0.168,3.36,0.42,4.844
					c1.596-1.568,3.052-3.556,4.144-6.244h-0.168c-1.68,0-3.164,0.336-4.396,0.728V337.371z"/>
				<path d="M649.823,331.491c-0.7,0.42-1.484,0.84-2.38,1.288c-1.82,0.924-5.488,2.66-8.12,4.396
					c-2.464,1.596-4.004,3.332-4.004,5.348c0,2.156,2.044,3.416,6.188,3.416c2.94,0,6.692-0.42,8.96-0.952l-0.028,3.136
					c-2.184,0.392-5.292,0.7-8.82,0.7c-5.348,0-9.296-1.568-9.296-5.992c0-2.94,1.876-5.208,4.704-7.224
					c-1.26-2.352-2.66-5.46-3.948-8.428l2.772-1.12c1.092,2.968,2.436,5.796,3.612,7.98c2.436-1.456,5.18-2.828,6.608-3.64
					c0.924-0.532,1.596-0.924,2.24-1.456L649.823,331.491z"/>
			</g>
		</g>
	</g>
	<g>
		<path fill="#111111" d="M1812.067,356.755c0,5.5-4.5,10-10,10h-360.162c-5.5,0-10-4.5-10-10v-70c0-5.5,4.5-10,10-10h360.162
			c5.5,0,10,4.5,10,10V356.755z"/>
		<g>
			<path fill="#404040" d="M1447.905,280.755c-6.617,0-12,5.383-12,12v58c0,6.617,5.383,12,12,12h348.162c6.617,0,12-5.383,12-12
				v-58c0-6.617-5.383-12-12-12H1447.905z M1439.905,350.755v-58c0-4.411,3.589-8,8-8h348.162c4.411,0,8,3.589,8,8v58
				c0,4.411-3.589,8-8,8h-348.162C1443.494,358.755,1439.905,355.167,1439.905,350.755z"/>
		</g>
		<g>
			<g>
				<path d="M1867.187,302.908v40.272h-4.752v-2.928h-22.607v3.12h-4.561v-40.464H1867.187z M1839.827,307.42v11.712h22.607V307.42
					H1839.827z M1862.435,335.74v-12.192h-22.607v12.192H1862.435z"/>
			</g>
		</g>
		<g>
			<g>
				<path d="M1328.934,294.115v23.884h-2.744v-1.848h-13.832v1.848h-2.632v-23.884H1328.934z M1312.357,296.663v3.976h13.832v-3.976
					H1312.357z M1312.357,303.103v4.032h13.832v-4.032H1312.357z M1326.189,313.603v-4.004h-13.832v4.004H1326.189z"/>
				<path d="M1342.877,309.319c-0.363-0.896-1.176-2.436-1.903-3.752v12.6h-2.408v-11.844c-0.84,2.66-1.876,5.124-2.996,6.72
					c-0.252-0.7-0.868-1.68-1.231-2.24c1.652-2.296,3.248-6.44,4.004-9.996h-3.416v-2.408h3.64v-5.908h2.408v5.908h2.968v2.408
					h-2.968v1.652c0.784,1.036,2.856,4.2,3.304,4.956L1342.877,309.319z M1349.037,312.875c-1.119,1.68-2.828,3.388-4.451,4.508
					c-0.393-0.504-1.064-1.176-1.625-1.596c1.541-1.008,3.164-2.632,4.061-4.004L1349.037,312.875z M1353.293,311.335v4.424
					c0,1.092-0.168,1.736-0.979,2.072c-0.756,0.364-1.903,0.364-3.556,0.364c-0.084-0.644-0.448-1.512-0.729-2.1
					c1.148,0.028,2.129,0.028,2.436,0c0.336,0,0.393-0.084,0.393-0.364v-4.396h-6.859v-2.128h16.268v2.128H1353.293z
					 M1348.981,295.795h-4.844v-2.128h16.1v2.128h-5.012v1.652h4.284v6.804h-14.504v-6.804h3.976V295.795z M1345.762,307.611v-1.96
					h13.048v1.96H1345.762z M1347.162,302.347h2.043v-2.94h-2.043V302.347z M1353.182,295.795h-2.156v1.652h2.156V295.795z
					 M1351.025,299.407v2.94h2.156v-2.94H1351.025z M1356.625,311.839c1.373,1.26,3.053,2.996,3.836,4.172l-1.932,1.372
					c-0.756-1.148-2.352-2.996-3.724-4.312L1356.625,311.839z M1357.27,299.407h-2.296v2.94h2.296V299.407z"/>
				<path d="M1384.094,315.843c-1.568-1.456-3.696-3.024-6.188-4.032c0,0.56,0.028,1.036,0.028,1.428c0,2.1-1.512,4.032-5.124,4.032
					c-4.2,0-6.468-1.54-6.468-4.34c0-2.632,2.492-4.48,6.636-4.48c0.7,0,1.372,0.056,2.044,0.112
					c-0.057-1.036-0.084-2.156-0.111-3.164h-1.513c-1.765,0-4.899-0.14-6.832-0.364l0.028-2.632
					c1.736,0.336,5.152,0.532,6.832,0.532c0.476,0,0.951,0,1.428,0v-3.5c-0.447,0-0.896,0-1.372,0c-1.849,0-4.676-0.196-6.3-0.42
					v-2.548c1.708,0.308,4.48,0.532,6.271,0.532h1.428v-1.568c0-0.504-0.055-1.316-0.111-1.764h2.968
					c-0.056,0.504-0.14,1.12-0.168,1.876c0,0.308-0.028,0.812-0.028,1.372c2.324-0.112,4.48-0.336,6.916-0.7l0.028,2.548
					c-2.017,0.196-4.34,0.448-6.972,0.56v3.528c2.744-0.14,5.18-0.392,7.56-0.728l0.028,2.632c-2.576,0.308-4.872,0.476-7.532,0.588
					c0.028,1.26,0.112,2.576,0.196,3.78c3.584,1.008,6.328,2.968,7.924,4.284L1384.094,315.843z M1375.105,310.971
					c-0.813-0.14-1.624-0.224-2.492-0.224c-2.352,0-3.611,0.896-3.611,2.044c0,1.176,1.035,1.988,3.416,1.988
					c1.567,0,2.715-0.448,2.715-2.24C1375.133,312.147,1375.133,311.615,1375.105,310.971z"/>
				<path d="M1394.201,297.111c2.017-0.196,6.973-0.672,12.068-1.092c2.939-0.252,5.74-0.42,7.615-0.476l0.029,2.828
					c-1.541,0-3.949,0.028-5.404,0.392c-3.668,1.12-6.104,5.04-6.104,8.316c0,5.068,4.703,6.72,9.268,6.944l-1.008,2.968
					c-5.433-0.28-11.117-3.192-11.117-9.296c0-4.2,2.437-7.56,4.677-8.988c-2.408,0.252-9.212,0.924-12.319,1.596l-0.281-3.052
					C1392.689,297.223,1393.642,297.167,1394.201,297.111z M1412.289,305.287l-1.735,0.784c-0.673-1.428-1.4-2.716-2.24-3.92
					l1.681-0.728C1410.666,302.403,1411.701,304.111,1412.289,305.287z M1415.481,303.999l-1.708,0.84
					c-0.729-1.428-1.456-2.66-2.352-3.864l1.68-0.756C1413.773,301.171,1414.865,302.851,1415.481,303.999z"/>
				<path d="M1381.965,332.611c-0.168,0.364-0.363,1.036-0.531,1.54c3.359,1.008,5.46,3.528,5.46,6.664
					c0,3.948-2.521,7.56-9.101,8.596l-1.483-2.324c5.151-0.56,7.84-3.192,7.84-6.412c0-1.904-1.204-3.612-3.5-4.34
					c-1.54,3.864-3.752,6.832-5.991,8.736c0.195,0.756,0.42,1.484,0.643,2.156l-2.547,0.756c-0.141-0.42-0.28-0.868-0.393-1.344
					c-1.428,0.784-3.023,1.344-4.508,1.344c-1.932,0-3.5-1.176-3.5-3.752c0-3.556,3.053-7.28,6.889-9.044
					c0.055-1.288,0.168-2.576,0.279-3.78c-0.477,0-0.924,0-1.344,0c-1.316,0-3.473-0.112-4.648-0.196l-0.084-2.576
					c0.952,0.14,3.389,0.364,4.816,0.364c0.504,0,1.008,0,1.512,0l0.196-1.876c0.028-0.476,0.084-1.064,0.056-1.456l2.912,0.084
					c-0.141,0.42-0.252,0.924-0.336,1.316c-0.111,0.532-0.225,1.176-0.336,1.848c3.472-0.14,6.636-0.504,9.576-1.176l0.027,2.576
					c-2.8,0.476-6.496,0.84-9.912,1.008c-0.084,0.952-0.168,1.96-0.252,2.996c1.484-0.392,3.053-0.616,4.424-0.616
					c0.281,0,0.533,0,0.785,0.028c0.14-0.504,0.279-1.316,0.308-1.792L1381.965,332.611z M1371.773,344.063
					c-0.363-1.96-0.615-4.116-0.615-6.244c-2.437,1.512-4.173,3.976-4.173,5.908c0,1.036,0.448,1.54,1.429,1.54
					C1369.365,345.267,1370.541,344.847,1371.773,344.063z M1373.621,337.371c0,1.736,0.168,3.36,0.42,4.844
					c1.597-1.568,3.053-3.556,4.145-6.244h-0.168c-1.68,0-3.164,0.336-4.396,0.728V337.371z"/>
				<path d="M1411.785,331.491c-0.699,0.42-1.484,0.84-2.38,1.288c-1.819,0.924-5.487,2.66-8.12,4.396
					c-2.463,1.596-4.004,3.332-4.004,5.348c0,2.156,2.045,3.416,6.188,3.416c2.94,0,6.692-0.42,8.96-0.952l-0.028,3.136
					c-2.185,0.392-5.292,0.7-8.819,0.7c-5.349,0-9.297-1.568-9.297-5.992c0-2.94,1.877-5.208,4.705-7.224
					c-1.261-2.352-2.66-5.46-3.949-8.428l2.772-1.12c1.093,2.968,2.437,5.796,3.612,7.98c2.436-1.456,5.18-2.828,6.607-3.64
					c0.924-0.532,1.596-0.924,2.24-1.456L1411.785,331.491z"/>
			</g>
		</g>
	</g>
</g>
<g>
	<g>
		<path fill="#111111" d="M1050.104,258.01c0,5.5-4.5,10-10,10H679.942c-5.5,0-10-4.5-10-10v-70c0-5.5,4.5-10,10-10h360.162
			c5.5,0,10,4.5,10,10V258.01z"/>
		<g>
			<path fill="#404040" d="M685.942,182.01c-6.617,0-12,5.383-12,12v58c0,6.617,5.383,12,12,12h348.162c6.617,0,12-5.383,12-12v-58
				c0-6.617-5.383-12-12-12H685.942z M677.942,252.01v-58c0-4.411,3.589-8,8-8h348.162c4.411,0,8,3.589,8,8v58c0,4.411-3.589,8-8,8
				H685.942C681.531,260.01,677.942,256.421,677.942,252.01z"/>
		</g>
		<g>
			<g>
				<path d="M1105.224,204.162v40.272h-4.752v-2.928h-22.607v3.12h-4.561v-40.464H1105.224z M1077.864,208.674v11.712h22.607
					v-11.712H1077.864z M1100.472,236.994v-12.192h-22.607v12.192H1100.472z"/>
			</g>
		</g>
		<g>
			<g>
				<path d="M622.971,211.37v23.884h-2.744v-1.848h-13.832v1.848h-2.632V211.37H622.971z M606.395,213.918v3.976h13.832v-3.976
					H606.395z M606.395,220.358v4.032h13.832v-4.032H606.395z M620.227,230.858v-4.004h-13.832v4.004H620.227z"/>
				<path d="M636.915,226.574c-0.364-0.896-1.176-2.436-1.904-3.752v12.6h-2.408v-11.844c-0.84,2.66-1.876,5.124-2.996,6.72
					c-0.252-0.7-0.868-1.68-1.232-2.24c1.652-2.296,3.248-6.44,4.004-9.996h-3.416v-2.408h3.64v-5.908h2.408v5.908h2.968v2.408
					h-2.968v1.652c0.784,1.036,2.856,4.2,3.304,4.956L636.915,226.574z M643.075,230.13c-1.12,1.68-2.828,3.388-4.452,4.508
					c-0.392-0.504-1.064-1.176-1.624-1.596c1.54-1.008,3.164-2.632,4.06-4.004L643.075,230.13z M647.331,228.59v4.424
					c0,1.092-0.168,1.736-0.98,2.072c-0.756,0.364-1.904,0.364-3.556,0.364c-0.084-0.644-0.448-1.512-0.728-2.1
					c1.148,0.028,2.128,0.028,2.436,0c0.336,0,0.392-0.084,0.392-0.364v-4.396h-6.86v-2.128h16.268v2.128H647.331z M643.019,213.05
					h-4.844v-2.128h16.1v2.128h-5.012v1.652h4.284v6.804h-14.504v-6.804h3.976V213.05z M639.799,224.866v-1.96h13.048v1.96H639.799z
					 M641.199,219.602h2.044v-2.94h-2.044V219.602z M647.219,213.05h-2.156v1.652h2.156V213.05z M645.063,216.662v2.94h2.156v-2.94
					H645.063z M650.663,229.094c1.372,1.26,3.052,2.996,3.836,4.172l-1.932,1.372c-0.756-1.148-2.352-2.996-3.724-4.312
					L650.663,229.094z M651.307,216.662h-2.296v2.94h2.296V216.662z"/>
			</g>
		</g>
	</g>
	<g>
		<path fill="#111111" d="M1812.067,258.01c0,5.5-4.5,10-10,10h-360.162c-5.5,0-10-4.5-10-10v-70c0-5.5,4.5-10,10-10h360.162
			c5.5,0,10,4.5,10,10V258.01z"/>
		<g>
			<path fill="#404040" d="M1447.905,182.01c-6.617,0-12,5.383-12,12v58c0,6.617,5.383,12,12,12h348.162c6.617,0,12-5.383,12-12v-58
				c0-6.617-5.383-12-12-12H1447.905z M1439.905,252.01v-58c0-4.411,3.589-8,8-8h348.162c4.411,0,8,3.589,8,8v58
				c0,4.411-3.589,8-8,8h-348.162C1443.494,260.01,1439.905,256.421,1439.905,252.01z"/>
		</g>
		<g>
			<g>
				<path d="M1867.187,204.162v40.272h-4.752v-2.928h-22.607v3.12h-4.561v-40.464H1867.187z M1839.827,208.674v11.712h22.607
					v-11.712H1839.827z M1862.435,236.994v-12.192h-22.607v12.192H1862.435z"/>
			</g>
		</g>
		<g>
			<g>
				<path d="M1384.934,211.369v23.884h-2.744v-1.848h-13.832v1.848h-2.632v-23.884H1384.934z M1368.357,213.917v3.976h13.832v-3.976
					H1368.357z M1368.357,220.357v4.032h13.832v-4.032H1368.357z M1382.189,230.857v-4.004h-13.832v4.004H1382.189z"/>
				<path d="M1398.877,226.573c-0.363-0.896-1.176-2.436-1.903-3.752v12.6h-2.408v-11.844c-0.84,2.66-1.876,5.124-2.996,6.72
					c-0.252-0.7-0.868-1.68-1.231-2.24c1.652-2.296,3.248-6.44,4.004-9.996h-3.416v-2.408h3.64v-5.908h2.408v5.908h2.968v2.408
					h-2.968v1.652c0.784,1.036,2.856,4.2,3.304,4.956L1398.877,226.573z M1405.037,230.129c-1.119,1.68-2.828,3.388-4.451,4.508
					c-0.393-0.504-1.064-1.176-1.625-1.596c1.541-1.008,3.164-2.632,4.061-4.004L1405.037,230.129z M1409.293,228.589v4.424
					c0,1.092-0.168,1.736-0.979,2.072c-0.756,0.364-1.903,0.364-3.556,0.364c-0.084-0.644-0.448-1.512-0.729-2.1
					c1.148,0.028,2.129,0.028,2.436,0c0.336,0,0.393-0.084,0.393-0.364v-4.396h-6.859v-2.128h16.268v2.128H1409.293z
					 M1404.981,213.049h-4.844v-2.128h16.1v2.128h-5.012v1.652h4.284v6.804h-14.504v-6.804h3.976V213.049z M1401.762,224.865v-1.96
					h13.048v1.96H1401.762z M1403.162,219.601h2.043v-2.94h-2.043V219.601z M1409.182,213.049h-2.156v1.652h2.156V213.049z
					 M1407.025,216.661v2.94h2.156v-2.94H1407.025z M1412.625,229.093c1.373,1.26,3.053,2.996,3.836,4.172l-1.932,1.372
					c-0.756-1.148-2.352-2.996-3.724-4.312L1412.625,229.093z M1413.27,216.661h-2.296v2.94h2.296V216.661z"/>
			</g>
		</g>
	</g>
</g>
<g>
	<g>
		<path fill="#111111" d="M1050.104,159.264c0,5.5-4.5,10-10,10H679.942c-5.5,0-10-4.5-10-10v-70c0-5.5,4.5-10,10-10h360.162
			c5.5,0,10,4.5,10,10V159.264z"/>
		<g>
			<path fill="#404040" d="M685.942,83.264c-6.617,0-12,5.383-12,12v58c0,6.617,5.383,12,12,12h348.162c6.617,0,12-5.383,12-12v-58
				c0-6.617-5.383-12-12-12H685.942z M677.942,153.264v-58c0-4.411,3.589-8,8-8h348.162c4.411,0,8,3.589,8,8v58c0,4.411-3.589,8-8,8
				H685.942C681.531,161.264,677.942,157.675,677.942,153.264z"/>
		</g>
		<g>
			<g>
				<path d="M1105.224,105.417v40.272h-4.752v-2.928h-22.607v3.12h-4.561v-40.464H1105.224z M1077.864,109.929v11.712h22.607
					v-11.712H1077.864z M1100.472,138.249v-12.192h-22.607v12.192H1100.472z"/>
			</g>
		</g>
		<g>
			<g>
				<path d="M520.854,116.691c-0.7,0.756-1.428,1.428-2.128,2.016c-0.476-0.476-1.512-1.288-2.156-1.708
					c2.38-1.652,4.592-4.312,5.88-7l2.548,0.728c-0.392,0.812-0.84,1.596-1.344,2.352h17.22v2.296h-2.744v4.2h3.78v2.352h-3.78v4.2
					h3.388v2.352h-24.052v-2.352h3.388v-4.2h-3.808v-2.352h3.808V116.691z M516.794,134.695c1.372-1.148,2.632-3.276,3.304-5.292
					l2.52,0.616c-0.7,2.1-1.904,4.312-3.36,5.712L516.794,134.695z M523.207,119.575h2.604v-4.2h-2.604V119.575z M523.207,126.127
					h2.604v-4.2h-2.604V126.127z M527.407,129.963c0.364,1.652,0.672,3.808,0.7,5.096l-2.548,0.364c0-1.316-0.224-3.528-0.56-5.208
					L527.407,129.963z M530.71,119.575v-4.2h-2.716v4.2H530.71z M527.995,121.927v4.2h2.716v-4.2H527.995z M533.035,129.851
					c0.728,1.596,1.456,3.752,1.708,5.096l-2.576,0.504c-0.224-1.344-0.868-3.528-1.568-5.208L533.035,129.851z M535.695,115.375
					h-2.772v4.2h2.772V115.375z M535.695,121.927h-2.772v4.2h2.772V121.927z M538.635,129.291c1.344,1.68,2.968,4.004,3.696,5.516
					l-2.632,0.924c-0.672-1.484-2.184-3.892-3.528-5.656L538.635,129.291z"/>
				<path d="M558.655,120.583c-0.056,0.616-0.084,1.232-0.14,1.82c1.092,6.748,3.976,10.136,11.956,10.948
					c-0.56,0.588-1.204,1.708-1.512,2.464c-6.496-0.98-9.744-3.444-11.536-8.092c-1.4,3.808-4.396,6.496-11.312,7.98
					c-0.252-0.672-0.896-1.764-1.456-2.352c9.8-1.904,10.668-6.104,11.116-12.768H558.655z M551.935,122.823
					c-0.84,2.24-2.072,4.564-4.116,6.048l-2.156-1.456c1.876-1.288,3.248-3.388,4.004-5.516L551.935,122.823z M550.423,120.695
					c-0.868-1.484-2.632-3.64-4.508-5.572c1.512-1.708,3.136-3.78,4.004-5.124l2.66,0.7c-1.064,1.512-2.436,3.052-3.612,4.368
					c1.54,1.512,3.164,3.388,3.976,4.62L550.423,120.695z M558.319,120.331c-0.896-1.428-2.744-3.528-4.704-5.376
					c1.596-1.624,3.248-3.64,4.2-4.956l2.66,0.7c-1.12,1.456-2.52,2.94-3.724,4.228c1.54,1.428,3.22,3.22,4.088,4.396
					L558.319,120.331z M566.495,120.807c-1.008-1.512-3.08-3.696-5.292-5.628c1.736-1.708,3.612-3.808,4.62-5.18l2.66,0.784
					c-1.204,1.484-2.744,3.024-4.06,4.34c1.764,1.484,3.584,3.36,4.592,4.62L566.495,120.807z M562.378,127.779
					c1.204-1.54,2.632-3.976,3.472-5.796l2.8,0.756c-1.232,2.072-2.744,4.34-3.948,5.796L562.378,127.779z"/>
				<path d="M597.798,124.167v2.128h-24.612v-2.128h10.864v-1.736h-8.148v-1.988h8.148v-1.568h-7.084v-2.016h7.084v-1.764h2.632
					v1.764h7.364v2.016h-7.364v1.568h8.568v1.988h-8.568v1.736H597.798z M576.463,117.839h-2.576v-5.236h10.164v-2.604h2.66v2.604
					h10.388v5.236h-2.66v-2.968h-17.976V117.839z M577.079,127.695h17.08v7.924h-2.604v-0.756h-11.984v0.84h-2.492V127.695z
					 M579.571,129.795v2.968h11.984v-2.968H579.571z"/>
				<path d="M600.571,114.619h11.172v2.072h-11.172V114.619z M610.595,134.163h-6.468v1.176h-2.296v-9.408h8.764V134.163z
					 M601.887,118.427h8.792v2.016h-8.792V118.427z M601.887,122.151h8.792v2.044h-8.792V122.151z M610.763,112.967h-8.708v-2.044
					h8.708V112.967z M604.126,128.031v4.032h4.144v-4.032H604.126z M622.187,132.958c1.4,0,1.596-0.7,1.792-4.396
					c0.588,0.448,1.708,0.896,2.436,1.064c-0.364,4.508-1.12,5.796-4.06,5.796h-5.152c-3.08,0-4.06-0.784-4.06-3.808v-11.144h9.184
					v-6.496h-9.38v-2.492h11.984v12.936h-2.604v-1.456h-6.552v8.652c0,1.12,0.28,1.344,1.708,1.344H622.187z"/>
				<path d="M645.119,130.019c-1.708,1.316-3.556,2.66-5.18,3.78l-0.672-1.176l0.028,0.224c-3.5,0.756-7.168,1.54-9.968,2.1
					l-0.532-2.38c1.232-0.196,2.744-0.476,4.396-0.784v-7.896h-4.088v-2.268h4.088v-2.548h-2.688v-1.232
					c-0.28,0.252-0.56,0.532-0.868,0.812c-0.336-0.532-1.12-1.316-1.596-1.652c2.436-2.072,4.172-4.816,5.068-7h2.212
					c1.652,1.428,3.696,3.5,4.676,4.9l-1.68,1.96h0.224v2.212h-3.08v2.548h3.78v2.268h-3.78v7.476l3.64-0.7l0.056,0.756
					c1.4-0.868,3.276-2.1,5.18-3.36L645.119,130.019z M631.287,125.147c0.532,1.652,0.98,3.696,1.092,5.068l-1.848,0.476
					c-0.056-1.372-0.476-3.5-0.952-5.096L631.287,125.147z M638.259,116.859c-0.784-1.204-2.296-3.08-3.696-4.424
					c-0.784,1.344-1.82,2.912-3.164,4.424H638.259z M636.159,129.739c0.42-1.316,0.896-3.416,1.092-4.816l1.96,0.504
					c-0.476,1.624-0.98,3.5-1.4,4.76L636.159,129.739z M649.403,126.323c1.176,2.268,2.912,4.396,5.376,5.656
					c-0.504,0.476-1.316,1.484-1.68,2.128c-2.436-1.512-4.144-3.976-5.292-6.384v5.376c0,1.176-0.168,1.82-0.924,2.212
					c-0.728,0.364-1.82,0.392-3.332,0.392c-0.056-0.644-0.364-1.624-0.644-2.268c0.924,0.028,1.82,0.028,2.1,0.028
					c0.308-0.028,0.392-0.112,0.392-0.42v-11.564h-6.02v-2.24h10.248v-1.988h-8.26v-2.044h8.26v-1.988h-8.82v-2.184h11.228v8.204
					h2.184v2.24h-6.412v0.7c0.336,1.204,0.784,2.52,1.4,3.78c1.008-1.008,2.24-2.576,2.94-3.696l2.044,1.288
					c-1.12,1.316-2.436,2.716-3.472,3.668L649.403,126.323z M641.535,122.711c1.148,1.064,2.436,2.576,2.996,3.612l-1.876,1.26
					c-0.504-1.064-1.736-2.632-2.856-3.752L641.535,122.711z"/>
			</g>
		</g>
	</g>
	<g>
		<path fill="#111111" d="M1812.067,159.264c0,5.5-4.5,10-10,10h-360.162c-5.5,0-10-4.5-10-10v-70c0-5.5,4.5-10,10-10h360.162
			c5.5,0,10,4.5,10,10V159.264z"/>
		<g>
			<path fill="#404040" d="M1447.905,83.264c-6.617,0-12,5.383-12,12v58c0,6.617,5.383,12,12,12h348.162c6.617,0,12-5.383,12-12v-58
				c0-6.617-5.383-12-12-12H1447.905z M1439.905,153.264v-58c0-4.411,3.589-8,8-8h348.162c4.411,0,8,3.589,8,8v58
				c0,4.411-3.589,8-8,8h-348.162C1443.494,161.264,1439.905,157.675,1439.905,153.264z"/>
		</g>
		<g>
			<g>
				<path d="M1867.187,105.417v40.272h-4.752v-2.928h-22.607v3.12h-4.561v-40.464H1867.187z M1839.827,109.929v11.712h22.607
					v-11.712H1839.827z M1862.435,138.249v-12.192h-22.607v12.192H1862.435z"/>
			</g>
		</g>
		<g>
			<g>
				<path d="M1198.818,116.691c-0.7,0.756-1.429,1.428-2.128,2.016c-0.477-0.476-1.513-1.288-2.156-1.708
					c2.38-1.652,4.592-4.312,5.88-7l2.548,0.728c-0.392,0.812-0.84,1.596-1.344,2.352h17.22v2.296h-2.744v4.2h3.78v2.352h-3.78v4.2
					h3.389v2.352h-24.053v-2.352h3.389v-4.2h-3.809v-2.352h3.809V116.691z M1194.758,134.695c1.372-1.148,2.632-3.276,3.305-5.292
					l2.52,0.616c-0.7,2.1-1.904,4.312-3.36,5.712L1194.758,134.695z M1201.17,119.575h2.604v-4.2h-2.604V119.575z M1201.17,126.127
					h2.604v-4.2h-2.604V126.127z M1205.37,129.963c0.364,1.652,0.672,3.808,0.7,5.096l-2.548,0.364c0-1.316-0.225-3.528-0.561-5.208
					L1205.37,129.963z M1208.674,119.575v-4.2h-2.716v4.2H1208.674z M1205.958,121.927v4.2h2.716v-4.2H1205.958z M1210.998,129.851
					c0.728,1.596,1.456,3.752,1.708,5.096l-2.576,0.504c-0.224-1.344-0.868-3.528-1.568-5.208L1210.998,129.851z M1213.658,115.375
					h-2.772v4.2h2.772V115.375z M1213.658,121.927h-2.772v4.2h2.772V121.927z M1216.598,129.291c1.345,1.68,2.969,4.004,3.696,5.516
					l-2.632,0.924c-0.672-1.484-2.185-3.892-3.528-5.656L1216.598,129.291z"/>
				<path d="M1248.126,127.863h-2.912v4.9h-2.632v-1.204h-5.964v1.456c0,1.428-0.364,2.016-1.316,2.38
					c-0.952,0.336-2.408,0.364-4.76,0.364c-0.14-0.588-0.532-1.54-0.896-2.1c1.539,0.056,3.22,0.056,3.668,0.028
					c0.504-0.028,0.672-0.168,0.672-0.644v-1.484h-8.736v-1.96h8.736v-1.736h-11.2v-2.044h11.2v-1.596h-8.484v-1.848h8.484v-1.652
					h-7.756v-5.152h7.756v-1.428h-10.612v-2.1h10.612v-2.044h2.632v2.044h10.92v2.1h-10.92v1.428h8.147v5.152h-8.147v1.652h8.596
					v3.444h2.912V127.863z M1233.986,118.987v-1.68h-5.265v1.68H1233.986z M1236.618,117.307v1.68h5.516v-1.68H1236.618z
					 M1236.618,125.819h5.964v-1.596h-5.964V125.819z M1242.582,127.863h-5.964v1.736h5.964V127.863z"/>
				<path d="M1274.334,117.531c-0.756,4.452-1.904,8.064-3.696,10.976c1.513,2.212,3.444,3.892,5.88,4.956
					c-0.588,0.532-1.428,1.54-1.792,2.268c-2.38-1.176-4.228-2.884-5.739-4.956c-1.765,2.044-4.004,3.668-6.832,4.956
					c-0.252-0.616-0.98-1.792-1.484-2.324c2.968-1.204,5.18-2.8,6.888-4.928c-1.147-2.156-2.044-4.592-2.743-7.28
					c-0.505,0.924-1.036,1.764-1.624,2.492c-0.28-0.28-0.729-0.644-1.204-1.036v10.052h-7.784v1.792h-2.408v-12.068h3.808v-4.732
					h-4.983v-2.408h4.983v-5.264h2.604v5.264h4.76v2.408h-4.76v4.732h3.472c-0.252-0.196-0.476-0.364-0.672-0.476
					c2.408-2.716,3.977-7.224,4.788-11.956l2.632,0.42c-0.28,1.596-0.672,3.164-1.12,4.648h8.988v2.464H1274.334z M1259.494,124.867
					h-5.292v5.404h5.292V124.867z M1266.466,117.587c0.561,3.08,1.456,5.964,2.688,8.4c1.231-2.324,2.016-5.124,2.575-8.456h-5.235
					L1266.466,117.587z"/>
				<path d="M1282.818,116.691c-0.7,0.756-1.429,1.428-2.128,2.016c-0.477-0.476-1.513-1.288-2.156-1.708
					c2.38-1.652,4.592-4.312,5.88-7l2.548,0.728c-0.392,0.812-0.84,1.596-1.344,2.352h17.22v2.296h-2.744v4.2h3.78v2.352h-3.78v4.2
					h3.389v2.352h-24.053v-2.352h3.389v-4.2h-3.809v-2.352h3.809V116.691z M1278.758,134.695c1.372-1.148,2.632-3.276,3.305-5.292
					l2.52,0.616c-0.7,2.1-1.904,4.312-3.36,5.712L1278.758,134.695z M1285.17,119.575h2.604v-4.2h-2.604V119.575z M1285.17,126.127
					h2.604v-4.2h-2.604V126.127z M1289.37,129.963c0.364,1.652,0.672,3.808,0.7,5.096l-2.548,0.364c0-1.316-0.225-3.528-0.561-5.208
					L1289.37,129.963z M1292.674,119.575v-4.2h-2.716v4.2H1292.674z M1289.958,121.927v4.2h2.716v-4.2H1289.958z M1294.998,129.851
					c0.728,1.596,1.456,3.752,1.708,5.096l-2.576,0.504c-0.224-1.344-0.868-3.528-1.568-5.208L1294.998,129.851z M1297.658,115.375
					h-2.772v4.2h2.772V115.375z M1297.658,121.927h-2.772v4.2h2.772V121.927z M1300.598,129.291c1.345,1.68,2.969,4.004,3.696,5.516
					l-2.632,0.924c-0.672-1.484-2.185-3.892-3.528-5.656L1300.598,129.291z"/>
				<path d="M1312.61,129.823c1.204,1.932,3.416,2.8,6.523,2.94c3.164,0.14,9.66,0.056,13.216-0.196
					c-0.308,0.588-0.699,1.792-0.84,2.548c-3.22,0.14-9.156,0.196-12.403,0.084c-3.473-0.14-5.881-1.064-7.589-3.22
					c-1.176,1.148-2.407,2.268-3.779,3.472l-1.288-2.576c1.12-0.756,2.492-1.82,3.668-2.856v-6.748h-3.36v-2.408h5.853V129.823z
					 M1310.874,116.663c-0.728-1.316-2.436-3.192-3.948-4.508l2.044-1.4c1.513,1.26,3.276,3.052,4.088,4.34L1310.874,116.663z
					 M1331.846,117.195h-18.228v-1.82h5.124c0.196-0.504,0.392-1.064,0.56-1.624h-3.863v-1.736h4.396
					c0.224-0.7,0.392-1.4,0.56-2.044l2.521,0.308c-0.14,0.56-0.336,1.148-0.504,1.736h6.216v3.36h3.22V117.195z M1323.138,132.035
					v-2.044h-9.464v-1.82h3.22v-1.736h-2.38v-1.82h8.624v-1.288h-7.336v-4.956h13.468v4.956h-3.668v1.288h5.404v1.82h-5.404v1.736
					h6.133v1.82h-6.133v2.044H1323.138z M1318.182,121.731h8.568v-1.764h-8.568V121.731z M1323.138,128.171v-1.736h-3.892v1.736
					H1323.138z M1321.85,113.751c-0.195,0.56-0.363,1.12-0.56,1.624h4.9v-1.624H1321.85z"/>
				<path d="M1357.354,119.323c-1.147,4.424-3.191,7.84-5.852,10.444c2.268,1.624,5.068,2.8,8.372,3.528
					c-0.616,0.588-1.372,1.708-1.764,2.436c-3.5-0.868-6.385-2.24-8.765-4.116c-2.436,1.82-5.208,3.136-8.231,4.06
					c-0.336-0.7-1.008-1.792-1.54-2.38c2.828-0.728,5.46-1.876,7.728-3.528c-2.212-2.296-3.863-5.124-5.124-8.54h-1.483
					c-0.141,4.592-0.896,10.444-3.668,14.392c-0.477-0.448-1.597-1.232-2.24-1.54c3.052-4.228,3.332-10.416,3.332-14.84v-7.616
					h20.636v2.576h-18.032v4.508h14.28l0.504-0.112L1357.354,119.323z M1344.922,121.227c1.036,2.66,2.521,4.956,4.452,6.804
					c1.932-1.82,3.472-4.088,4.508-6.804H1344.922z"/>
				<path d="M1362.534,114.619h11.172v2.072h-11.172V114.619z M1372.558,134.163h-6.468v1.176h-2.296v-9.408h8.764V134.163z
					 M1363.85,118.427h8.792v2.016h-8.792V118.427z M1363.85,122.151h8.792v2.044h-8.792V122.151z M1372.726,112.967h-8.708v-2.044
					h8.708V112.967z M1366.09,128.031v4.032h4.145v-4.032H1366.09z M1384.15,132.958c1.399,0,1.596-0.7,1.792-4.396
					c0.588,0.448,1.708,0.896,2.436,1.064c-0.364,4.508-1.12,5.796-4.06,5.796h-5.152c-3.08,0-4.06-0.784-4.06-3.808v-11.144h9.184
					v-6.496h-9.38v-2.492h11.983v12.936h-2.604v-1.456h-6.552v8.652c0,1.12,0.279,1.344,1.708,1.344H1384.15z"/>
				<path d="M1407.082,130.019c-1.708,1.316-3.556,2.66-5.18,3.78l-0.672-1.176l0.027,0.224c-3.5,0.756-7.168,1.54-9.968,2.1
					l-0.532-2.38c1.232-0.196,2.744-0.476,4.396-0.784v-7.896h-4.088v-2.268h4.088v-2.548h-2.688v-1.232
					c-0.279,0.252-0.56,0.532-0.868,0.812c-0.336-0.532-1.119-1.316-1.596-1.652c2.437-2.072,4.172-4.816,5.068-7h2.212
					c1.651,1.428,3.695,3.5,4.676,4.9l-1.68,1.96h0.224v2.212h-3.08v2.548h3.78v2.268h-3.78v7.476l3.64-0.7l0.057,0.756
					c1.399-0.868,3.275-2.1,5.18-3.36L1407.082,130.019z M1393.25,125.147c0.532,1.652,0.98,3.696,1.092,5.068l-1.848,0.476
					c-0.056-1.372-0.477-3.5-0.952-5.096L1393.25,125.147z M1400.222,116.859c-0.783-1.204-2.296-3.08-3.695-4.424
					c-0.784,1.344-1.82,2.912-3.164,4.424H1400.222z M1398.122,129.739c0.42-1.316,0.896-3.416,1.092-4.816l1.96,0.504
					c-0.476,1.624-0.979,3.5-1.399,4.76L1398.122,129.739z M1411.366,126.323c1.176,2.268,2.912,4.396,5.376,5.656
					c-0.504,0.476-1.316,1.484-1.681,2.128c-2.436-1.512-4.144-3.976-5.292-6.384v5.376c0,1.176-0.168,1.82-0.924,2.212
					c-0.728,0.364-1.819,0.392-3.332,0.392c-0.056-0.644-0.363-1.624-0.644-2.268c0.924,0.028,1.82,0.028,2.1,0.028
					c0.309-0.028,0.393-0.112,0.393-0.42v-11.564h-6.021v-2.24h10.248v-1.988h-8.26v-2.044h8.26v-1.988h-8.82v-2.184h11.229v8.204
					h2.184v2.24h-6.412v0.7c0.337,1.204,0.784,2.52,1.4,3.78c1.008-1.008,2.24-2.576,2.94-3.696l2.044,1.288
					c-1.12,1.316-2.437,2.716-3.473,3.668L1411.366,126.323z M1403.498,122.711c1.147,1.064,2.436,2.576,2.996,3.612l-1.876,1.26
					c-0.504-1.064-1.736-2.632-2.856-3.752L1403.498,122.711z"/>
			</g>
		</g>
	</g>
</g>
<g>
	<path d="M616.391,453.272c2.268,4.508,6.076,8.652,10.276,10.78c-0.616,0.532-1.54,1.596-1.96,2.296
		c-4.004-2.268-7.448-6.216-9.912-10.752v7.476h5.012v2.632h-5.012v4.956h-2.744v-4.956h-5.124v-2.632h5.124v-7.448
		c-2.464,4.536-5.936,8.456-9.856,10.808c-0.42-0.644-1.288-1.624-1.848-2.156c4.06-2.156,7.84-6.44,10.136-11.004h-9.156v-2.632
		h10.724v-5.656h2.744v5.656h10.836v2.632H616.391z"/>
	<path d="M650.858,446.776v23.492h-2.772v-1.708h-13.188v1.82h-2.66v-23.604H650.858z M634.898,449.408v6.832h13.188v-6.832H634.898
		z M648.086,465.928v-7.112h-13.188v7.112H648.086z"/>
</g>
<g>
	<path d="M1068.385,460.244c-2.016,2.24-4.312,4.62-6.188,6.496l-1.708-2.212c1.597-1.512,4.088-4.06,6.44-6.552L1068.385,460.244z
		 M1066.285,452.908c-0.98-1.204-3.164-3.024-4.928-4.256l1.82-1.876c1.764,1.12,4.031,2.828,5.067,4.032L1066.285,452.908z
		 M1077.821,455.708c0,2.688,1.483,9.464,8.708,12.6c-0.477,0.616-1.288,1.736-1.652,2.352c-5.488-2.492-7.979-7.868-8.428-10.416
		c-0.532,2.548-3.221,7.784-9.436,10.416c-0.309-0.56-1.148-1.68-1.596-2.156c8.063-3.192,9.659-9.968,9.659-12.796v-3.22h-2.884
		c-0.868,2.1-1.876,3.948-2.996,5.404c-0.561-0.42-1.792-1.12-2.464-1.428c2.323-2.632,4.032-6.972,4.928-11.396l2.716,0.504
		c-0.336,1.484-0.728,2.94-1.203,4.312h10.527l0.504-0.14l1.932,1.092c-0.756,2.716-2.071,5.6-3.107,7.476
		c-0.561-0.28-1.596-0.812-2.212-1.064c0.644-1.204,1.428-3.024,1.987-4.76h-4.983V455.708z"/>
</g>
<g>
	<path d="M1478.363,460.244c-2.017,2.24-4.313,4.62-6.188,6.496l-1.708-2.212c1.596-1.512,4.088-4.06,6.439-6.552L1478.363,460.244z
		 M1476.263,452.908c-0.979-1.204-3.164-3.024-4.928-4.256l1.819-1.876c1.765,1.12,4.033,2.828,5.068,4.032L1476.263,452.908z
		 M1487.799,455.708c0,2.688,1.484,9.464,8.708,12.6c-0.476,0.616-1.288,1.736-1.652,2.352c-5.487-2.492-7.979-7.868-8.428-10.416
		c-0.532,2.548-3.22,7.784-9.437,10.416c-0.308-0.56-1.147-1.68-1.596-2.156c8.064-3.192,9.66-9.968,9.66-12.796v-3.22h-2.884
		c-0.868,2.1-1.876,3.948-2.996,5.404c-0.56-0.42-1.792-1.12-2.464-1.428c2.324-2.632,4.031-6.972,4.928-11.396l2.717,0.504
		c-0.337,1.484-0.729,2.94-1.205,4.312h10.528l0.504-0.14l1.933,1.092c-0.756,2.716-2.072,5.6-3.108,7.476
		c-0.56-0.28-1.597-0.812-2.212-1.064c0.645-1.204,1.428-3.024,1.988-4.76h-4.984V455.708z"/>
	<path d="M1521.259,452.768c-1.231,3.528-3.556,7.756-5.908,10.948c1.484,0.98,2.8,1.988,3.696,2.912l-1.848,2.492
		c-2.101-2.296-6.721-5.32-10.612-7.14l1.651-2.184c1.484,0.672,3.137,1.512,4.705,2.436c1.735-2.296,3.359-5.264,4.424-7.784h-8.82
		c-1.652,3.22-3.668,6.244-6.02,8.512c-0.588-0.476-1.765-1.148-2.492-1.512c4.172-3.78,7.224-10.052,8.736-15.176l2.911,0.672
		c-0.532,1.568-1.147,3.22-1.876,4.844h8.96l0.504-0.112L1521.259,452.768z"/>
</g>
<g>
	<g>
		<g>
			<path fill="#DD0000" d="M101.376,579.434c-0.719,0-1.301,0.582-1.301,1.301c0,0.72,0.582,1.301,1.301,1.301h5.531
				c0.718,0,1.3-0.581,1.3-1.301c0-0.719-0.582-1.301-1.3-1.301H101.376z"/>
		</g>
		<g>
			<path fill="#DD0000" d="M101.376,573.578c-0.719,0-1.301,0.581-1.301,1.301c0,0.719,0.582,1.301,1.301,1.301h8.133
				c0.719,0,1.301-0.582,1.301-1.301c0-0.72-0.582-1.301-1.301-1.301H101.376z"/>
		</g>
		<g>
			<path fill="#DD0000" d="M101.376,585.29c-0.719,0-1.301,0.581-1.301,1.301c0,0.721,0.582,1.3,1.301,1.3h5.531
				c0.718,0,1.3-0.579,1.3-1.3c0-0.72-0.582-1.301-1.3-1.301H101.376z"/>
		</g>
		<g>
			<path fill="#00AADD" d="M101.376,591.146c-0.719,0-1.301,0.581-1.301,1.301c0,0.721,0.582,1.301,1.301,1.301h8.133
				c0.719,0,1.301-0.58,1.301-1.301c0-0.72-0.582-1.301-1.301-1.301H101.376z"/>
		</g>
		<g>
			<path fill="#00AADD" d="M101.376,597.001c-0.719,0-1.301,0.581-1.301,1.302s0.582,1.301,1.301,1.301h5.531
				c0.718,0,1.3-0.58,1.3-1.301s-0.582-1.302-1.3-1.302H101.376z"/>
		</g>
		<g>
			<path fill="#00AADD" d="M101.376,602.856c-0.719,0-1.301,0.583-1.301,1.302s0.582,1.301,1.301,1.301h5.531
				c0.718,0,1.3-0.582,1.3-1.301s-0.582-1.302-1.3-1.302H101.376z"/>
		</g>
		<g>
			<path fill="#00AADD" d="M101.376,608.713c-0.719,0-1.301,0.582-1.301,1.302c0,0.719,0.582,1.301,1.301,1.301h8.133
				c0.719,0,1.301-0.582,1.301-1.301c0-0.72-0.582-1.302-1.301-1.302H101.376z"/>
		</g>
		<path fill="none" enable-background="new    " d="M98.611,612.499v-36.541c0-3.681-2.985-6.669-6.668-6.669
			c-3.684,0-6.669,2.988-6.669,6.669v36.541c-4.453,2.383-7.483,7.076-7.483,12.479c0,7.814,6.336,14.152,14.152,14.152
			s14.151-6.338,14.151-14.152C106.094,619.575,103.063,614.882,98.611,612.499z"/>
		<g>
			<path fill="#FFFFFF" d="M82.02,575.958c0,0,0,33.643,0,34.908c-4.686,3.286-7.482,8.495-7.482,14.112
				c0,9.597,7.808,17.405,17.405,17.405c9.597,0,17.404-7.809,17.404-17.405c0-5.618-2.797-10.826-7.482-14.112
				c0-1.266,0-34.908,0-34.908c0-5.472-4.451-9.923-9.921-9.923C86.471,566.035,82.02,570.486,82.02,575.958z M77.14,624.979
				c0-4.971,2.573-9.592,6.884-12.36l0.598-0.384v-36.276c0-4.036,3.284-7.319,7.32-7.319c4.036,0,7.319,3.283,7.319,7.319v36.276
				l0.598,0.384c4.311,2.769,6.884,7.39,6.884,12.36c0,8.162-6.64,14.802-14.801,14.802C83.78,639.78,77.14,633.141,77.14,624.979z"
				/>
		</g>
		<path fill="#DD0000" d="M81.043,624.979c0-4.023,2.209-7.708,5.765-9.611l1.718-0.92v-26.086c0-1.885,1.532-3.416,3.416-3.416
			c1.883,0,3.416,1.531,3.416,3.416v26.086l1.718,0.92c3.556,1.903,5.765,5.588,5.765,9.611c0,6.01-4.889,10.897-10.898,10.897
			C85.933,635.876,81.043,630.988,81.043,624.979z"/>
	</g>
	<g>
		<path d="M69.085,659.155c-1.13-0.932-3.389-2.23-5.196-3.021l1.355-1.893c1.751,0.678,4.095,1.893,5.253,2.768L69.085,659.155z
			 M71.373,662.742c-1.356,2.937-3.079,6.298-4.604,8.952l-2.259-1.581c1.384-2.175,3.417-5.762,4.886-8.953L71.373,662.742z
			 M70.667,651.559c-1.073-0.932-3.333-2.231-5.083-3.021l1.412-1.864c1.723,0.678,4.038,1.893,5.168,2.796L70.667,651.559z
			 M89.898,669.125v2.287H70.243v-2.287h2.288v-8.614h15.589v8.614H89.898z M87.159,658.421H73.434v-10.9h13.725V658.421z
			 M74.874,669.125h2.231v-6.383h-2.231V669.125z M84.589,649.694h-8.67v2.231h8.67V649.694z M84.589,653.987h-8.67v2.259h8.67
			V653.987z M79.11,662.742v6.383h2.259v-6.383H79.11z M83.375,662.742v6.383h2.259v-6.383H83.375z"/>
		<path d="M96.931,656.925c0,4.434-0.396,10.985-2.853,15.278c-0.48-0.424-1.582-1.187-2.146-1.44
			c2.288-4.011,2.485-9.743,2.485-13.838v-7.965h10.167v-2.654h2.739v2.654h10.28v2.345H96.931V656.925z M115.711,663.053
			c-1.186,2.344-3.021,4.123-5.253,5.479c2.259,0.734,4.857,1.215,7.653,1.497c-0.537,0.536-1.214,1.581-1.525,2.259
			c-3.333-0.423-6.354-1.186-8.953-2.344c-2.852,1.187-6.156,1.893-9.602,2.316c-0.198-0.65-0.678-1.667-1.102-2.203
			c2.853-0.282,5.62-0.763,8.077-1.554c-1.554-1.017-2.853-2.23-3.897-3.643l1.271-0.48H98.06v-2.118h15.561l0.48-0.085
			L115.711,663.053z M101.929,660.793v-4.519h-4.18v-2.146h4.18v-2.146h2.485v2.146h6.1v-2.146h2.57v2.146h4.321v2.146h-4.321v4.519
			H101.929z M103.624,664.38c1.017,1.215,2.4,2.231,4.095,3.05c1.666-0.818,3.106-1.807,4.18-3.05H103.624z M104.415,656.274v2.485
			h6.1v-2.485H104.415z"/>
	</g>
</g>
<g>
	<g>
		<g>
			<g>
				<path enable-background="new    " d="M79.459,704.869v5.049c0,0.324,0.263,0.589,0.588,0.589c0.326,0,0.588-0.265,0.588-0.589
					v-5.049c0-0.326-0.263-0.589-0.588-0.589C79.722,704.28,79.459,704.543,79.459,704.869z"/>
				<path d="M78.871,704.869v5.049c0,0.649,0.528,1.177,1.177,1.177s1.177-0.527,1.177-1.177v-5.049
					c0-0.649-0.528-1.177-1.177-1.177S78.871,704.22,78.871,704.869z"/>
			</g>
		</g>
		<g>
			<g>
				<path enable-background="new    " d="M62.635,710.632c-0.249,0.21-0.282,0.58-0.073,0.83l3.246,3.868
					c0.208,0.248,0.579,0.281,0.829,0.071c0.249-0.208,0.281-0.578,0.072-0.828l-3.244-3.868
					C63.255,710.456,62.883,710.424,62.635,710.632z"/>
				<path d="M62.257,710.181l-0.001,0.001c-0.495,0.418-0.56,1.161-0.146,1.657l3.247,3.869c0,0.001,0.799,0.416,0.799,0.416
					l0.859-0.272c0-0.001,0.415-0.796,0.415-0.796l-0.271-0.86l-3.245-3.868C63.498,709.83,62.754,709.765,62.257,710.181z"/>
			</g>
		</g>
		<g>
			<g>
				<path enable-background="new    " d="M53.359,726.678c-0.057,0.319,0.157,0.625,0.477,0.683l4.974,0.877
					c0.319,0.056,0.624-0.158,0.681-0.477c0.057-0.319-0.156-0.625-0.477-0.682l-4.973-0.878
					C53.72,726.146,53.416,726.358,53.359,726.678z"/>
				<path d="M52.78,726.575c-0.013,0.069-0.019,0.138-0.019,0.206c0,0.559,0.401,1.056,0.971,1.158l4.976,0.877
					c0.638,0.111,1.249-0.316,1.362-0.952l-0.193-0.879l-0.76-0.485l-4.974-0.878C53.503,725.511,52.893,725.938,52.78,726.575z
					 M52.78,726.575L52.78,726.575L52.78,726.575z"/>
			</g>
		</g>
		<g>
			<g>
				<path enable-background="new    " d="M61.171,741.603l-4.372,2.523c-0.282,0.163-0.378,0.521-0.216,0.804
					c0.163,0.281,0.522,0.377,0.805,0.216l4.372-2.523c0.282-0.164,0.378-0.522,0.216-0.806
					C61.813,741.536,61.453,741.439,61.171,741.603z"/>
				<path d="M60.876,741.094c-0.001,0-4.371,2.522-4.371,2.522c-0.377,0.218-0.588,0.615-0.588,1.022c0,0.199,0.05,0.4,0.156,0.584
					c0.325,0.561,1.045,0.754,1.606,0.434l4.375-2.524c0.561-0.326,0.753-1.047,0.433-1.607
					C62.159,740.96,61.438,740.769,60.876,741.094z M60.876,741.094L60.876,741.094L60.876,741.094z"/>
			</g>
		</g>
		<g>
			<g>
				<path enable-background="new    " d="M96.632,710.705l-3.245,3.868c-0.209,0.25-0.176,0.62,0.072,0.828
					c0.249,0.21,0.62,0.177,0.829-0.071l3.245-3.868c0.21-0.25,0.177-0.622-0.072-0.83S96.84,710.456,96.632,710.705z"/>
				<path d="M96.181,710.327L96.181,710.327l-3.245,3.868c0,0-0.271,0.86-0.271,0.86l0.417,0.797
					c-0.002-0.002,0.856,0.271,0.856,0.271l0.8-0.415l3.245-3.869l0.271-0.861l-0.417-0.798
					C97.34,709.765,96.597,709.83,96.181,710.327z"/>
			</g>
		</g>
		<linearGradient id="XMLID_4_" gradientUnits="userSpaceOnUse" x1="56.1968" y1="730.623" x2="90.6154" y2="710.7662">
			<stop  offset="0" style="stop-color:#FFFFFF"/>
			<stop  offset="1" style="stop-color:#00AADD"/>
		</linearGradient>
		<path fill="url(#XMLID_4_)" d="M51.218,731.383c0-15.896,12.932-28.828,28.829-28.828c14.188,0,26.008,10.307,28.385,23.824
			l9.27-1.636c-3.154-17.93-18.833-31.603-37.654-31.603c-21.088,0-38.243,17.156-38.243,38.242
			c0,11.741,5.322,22.259,13.674,29.278l6.048-7.205C55.23,748.162,51.218,740.234,51.218,731.383z"/>
		<circle cx="80.033" cy="731.45" r="2.059"/>
		<g>
			<line enable-background="new    " x1="68.291" y1="717.456" x2="80.344" y2="731.822"/>
			<path d="M67.912,717.005c-0.248,0.21-0.281,0.58-0.072,0.83L79.893,732.2c0.209,0.25,0.58,0.282,0.829,0.073
				c0.248-0.209,0.282-0.58,0.072-0.828l-12.053-14.367C68.532,716.829,68.161,716.797,67.912,717.005z"/>
		</g>
		<g>
			<path fill="#00AADD" enable-background="new    " d="M137.532,744.17c0,8.449-6.848,15.299-15.297,15.299
				c-8.448,0-15.297-6.85-15.297-15.299c0-8.447,15.297-26.899,15.297-26.899S137.532,735.723,137.532,744.17z"/>
			<path fill="#FFFFFF" d="M121.329,716.52c-0.636,0.767-15.568,18.88-15.568,27.65c0,9.085,7.39,16.476,16.474,16.476
				c9.084,0,16.474-7.391,16.474-16.476c0-8.771-14.933-26.884-15.568-27.65l-0.906-1.093L121.329,716.52z M108.114,744.17
				L108.114,744.17c0-6.794,10.901-20.981,14.12-25.024c3.219,4.043,14.121,18.23,14.121,25.024c0,7.787-6.334,14.122-14.121,14.122
				S108.114,751.957,108.114,744.17z"/>
		</g>
	</g>
	<g>
		<path d="M67.5,772.864c-1.017-0.96-3.219-2.288-4.942-3.106l1.468-1.893c1.694,0.734,3.926,1.921,4.999,2.909L67.5,772.864z
			 M69.42,776.648c-1.129,2.938-2.57,6.298-3.897,8.924l-2.315-1.496c1.186-2.175,2.909-5.762,4.151-8.953L69.42,776.648z
			 M68.94,765.521c-0.988-0.96-3.106-2.231-4.829-2.993l1.44-1.921c1.723,0.678,3.869,1.864,4.942,2.796L68.94,765.521z
			 M88.511,783.088v2.287H68.968v-2.287h6.523v-9.771h2.429v9.771h2.373v-9.771h2.429v9.771H88.511z M72.696,781.986
			c-0.282-1.779-1.243-4.49-2.315-6.496l2.118-0.734c1.13,1.978,2.146,4.632,2.485,6.383L72.696,781.986z M86.619,772.525H71.708
			v-11.07h14.911V772.525z M84.021,763.629h-9.828v2.316h9.828V763.629z M84.021,768.007h-9.828v2.344h9.828V768.007z
			 M83.061,781.224c0.875-1.779,1.977-4.604,2.57-6.608l2.514,0.734c-0.96,2.259-2.175,4.914-3.163,6.58L83.061,781.224z"/>
		<path d="M95.6,770.888c0,4.434-0.396,10.985-2.853,15.278c-0.48-0.424-1.582-1.187-2.146-1.44
			c2.288-4.011,2.485-9.743,2.485-13.838v-7.965h10.167v-2.654h2.739v2.654h10.28v2.345H95.6V770.888z M114.38,777.016
			c-1.186,2.344-3.021,4.123-5.253,5.479c2.259,0.734,4.857,1.215,7.653,1.497c-0.537,0.536-1.214,1.581-1.525,2.259
			c-3.333-0.423-6.354-1.186-8.953-2.344c-2.852,1.187-6.156,1.893-9.602,2.316c-0.198-0.65-0.678-1.667-1.102-2.203
			c2.853-0.282,5.62-0.763,8.077-1.554c-1.554-1.017-2.853-2.23-3.897-3.643l1.271-0.48h-4.321v-2.118h15.561l0.48-0.085
			L114.38,777.016z M100.598,774.756v-4.519h-4.18v-2.146h4.18v-2.146h2.485v2.146h6.1v-2.146h2.57v2.146h4.321v2.146h-4.321v4.519
			H100.598z M102.293,778.343c1.017,1.215,2.4,2.231,4.095,3.05c1.666-0.818,3.106-1.807,4.18-3.05H102.293z M103.083,770.237v2.485
			h6.1v-2.485H103.083z"/>
	</g>
</g>
<g>
	<path d="M367.748,992.412h3.538l0.339,2.898h0.113c1.77-1.882,3.839-3.425,6.399-3.425c3.086,0,4.818,1.43,5.721,3.802
		c2.033-2.184,4.141-3.802,6.738-3.802c4.329,0,6.362,2.936,6.362,8.205v13.024h-4.329v-12.497c0-3.576-1.129-5.006-3.463-5.006
		c-1.431,0-2.936,0.94-4.667,2.822v14.681h-4.329v-12.497c0-3.576-1.091-5.006-3.463-5.006c-1.393,0-2.936,0.94-4.667,2.822v14.681
		h-4.291V992.412z"/>
	<path d="M410.847,983.077h3.011l-10.464,36.813h-3.011L410.847,983.077z"/>
	<path d="M415.703,1010.744l2.032-2.786c1.845,1.469,3.651,2.372,5.872,2.372c2.484,0,3.651-1.205,3.651-2.786
		c0-1.882-2.333-2.71-4.592-3.575c-2.748-1.055-5.91-2.522-5.91-6.023c0-3.463,2.786-6.06,7.34-6.06
		c2.785,0,5.044,1.129,6.738,2.446l-2.033,2.673c-1.431-1.054-2.898-1.807-4.63-1.807c-2.259,0-3.313,1.129-3.313,2.56
		c0,1.769,2.146,2.446,4.404,3.274c2.898,1.092,6.098,2.371,6.098,6.286c0,3.463-2.748,6.286-7.867,6.286
		C420.633,1013.604,417.697,1012.4,415.703,1010.744z"/>
</g>
<g>
	<g>
		<g>
			<ellipse fill="#FFBF00" enable-background="new    " cx="65.126" cy="982.911" rx="5.135" ry="18.111"/>
			<path fill="#FFFFFF" d="M58.815,982.911c0,9.29,1.976,19.288,6.313,19.288c4.336,0,6.311-9.998,6.311-19.288
				s-1.975-19.289-6.311-19.289C60.791,963.622,58.815,973.621,58.815,982.911z M61.168,982.911c0-10.958,2.615-16.936,3.959-16.936
				c1.343,0,3.957,5.978,3.957,16.936c0,10.957-2.614,16.935-3.957,16.935C63.784,999.846,61.168,993.868,61.168,982.911z"/>
		</g>
		<g>
			<path fill="#FFFFFF" enable-background="new    " d="M115.21,967.406l-24.433-1.271c1.878,2.691,3.204,9.184,3.204,16.776
				c0,7.592-1.326,14.083-3.204,16.776l24.433-1.274c1.491-3.167,2.491-8.917,2.491-15.502
				C117.701,976.324,116.701,970.575,115.21,967.406z"/>
			<path fill="#FFFFFF" d="M89.813,966.809c1.489,2.134,2.992,7.941,2.992,16.103c0,8.159-1.503,13.967-2.993,16.104l-1.376,1.974
				l27.539-1.437l0.3-0.638c1.63-3.461,2.603-9.443,2.603-16.003c0-6.559-0.973-12.543-2.603-16.006l-0.3-0.638l-27.539-1.433
				L89.813,966.809z M95.158,982.911c0-6.282-0.919-11.999-2.4-15.495c3.316,0.173,20.365,1.06,21.645,1.127
				c1.312,3.222,2.121,8.609,2.121,14.368s-0.809,11.146-2.121,14.366c-1.28,0.066-18.329,0.956-21.645,1.129
				C94.239,994.909,95.158,989.191,95.158,982.911z"/>
		</g>
		<g>
			<path fill="#FFBF00" enable-background="new    " d="M90.777,966.135l-25.65-1.336c2.835,0,5.134,8.109,5.134,18.112
				s-2.299,18.111-5.134,18.111l25.65-1.335c1.878-2.693,3.204-9.185,3.204-16.776C93.981,975.318,92.655,968.826,90.777,966.135z"
				/>
			<path fill="#FFFFFF" d="M65.066,965.974l0.064,0.004c1.344,0.01,3.954,5.984,3.954,16.934c0,10.948-2.609,16.924-3.954,16.933
				l-0.064,0.004l0.061,2.352c0.021,0,0.039-0.018,0.061-0.018l0,0.016l26.225-1.364l0.329-0.473
				c2.075-2.976,3.416-9.825,3.416-17.449c0-7.626-1.341-14.476-3.416-17.449l-0.329-0.473l-26.225-1.365l0,0.016
				c-0.021,0-0.039-0.018-0.061-0.018L65.066,965.974z M71.438,982.911c0-6.479-0.986-13.228-3.039-16.764
				c4.903,0.256,20.635,1.075,21.682,1.129c1.396,2.419,2.724,7.967,2.724,15.635c0,7.666-1.328,13.215-2.724,15.635
				c-1.047,0.054-16.779,0.873-21.682,1.128C70.452,996.138,71.438,989.391,71.438,982.911z"/>
		</g>
		<g>
			<path fill="#FFBF00" enable-background="new    " d="M131.394,968.249l-16.184-0.843c1.491,3.169,2.491,8.918,2.491,15.505
				c0,6.585-1,12.335-2.491,15.502l16.184-0.841c2.297,0,4.157-6.564,4.157-14.661C135.551,974.813,133.69,968.249,131.394,968.249z
				"/>
			<path fill="#FFFFFF" d="M114.145,967.907c1.467,3.118,2.379,8.867,2.379,15.004s-0.912,11.885-2.378,15.001l-0.837,1.778
				l18.146-0.943c3.604,0.002,5.273-8.208,5.273-15.836c0-7.629-1.669-15.839-5.334-15.839l0.061,0.002l-18.146-0.945
				L114.145,967.907z M118.877,982.911c0-5.605-0.743-10.688-1.966-14.238c2.799,0.146,14.452,0.753,14.452,0.753h0.031
				c0.865,0,2.98,4.726,2.98,13.485c0,8.759-2.115,13.484-2.98,13.484c0,0-11.681,0.605-14.482,0.751
				C118.135,993.597,118.877,988.517,118.877,982.911z"/>
		</g>
		<g>
			<path d="M50.137,952.536v60.561c0,0.649,0.527,1.177,1.177,1.177s1.177-0.527,1.177-1.177v-60.561
				c0-0.649-0.527-1.177-1.177-1.177S50.137,951.887,50.137,952.536z"/>
		</g>
		<g>
			<path d="M63.633,1000.2c-3.273,3.543-7.447,5.494-11.753,5.494c-0.65,0-1.177,0.527-1.177,1.177s0.527,1.177,1.177,1.177
				c4.971,0,9.759-2.22,13.482-6.25c0.441-0.478,0.412-1.223-0.066-1.663C64.819,999.693,64.074,999.724,63.633,1000.2z"/>
		</g>
		<g>
			<path d="M50.703,958.95c0,0.649,0.527,1.177,1.177,1.177c4.551,0,8.903,2.149,12.254,6.054c0.423,0.493,1.167,0.55,1.66,0.126
				c0.493-0.423,0.549-1.166,0.126-1.659c-3.806-4.433-8.792-6.874-14.041-6.874C51.23,957.773,50.703,958.301,50.703,958.95z"/>
		</g>
		<g>
			<circle fill="#FFFFFF" enable-background="new    " cx="51.313" cy="952.536" r="5.094"/>
			<path d="M45.042,952.536c0,3.458,2.813,6.271,6.271,6.271c3.458,0,6.271-2.813,6.271-6.271s-2.813-6.271-6.271-6.271
				C47.855,946.266,45.042,949.078,45.042,952.536z M47.396,952.536c0-2.16,1.757-3.917,3.917-3.917c2.16,0,3.917,1.757,3.917,3.917
				s-1.757,3.917-3.917,3.917C49.153,956.453,47.396,954.696,47.396,952.536z"/>
		</g>
	</g>
	<g>
		<path d="M86.538,1017.79c-0.085,10.703-0.057,21.746,1.468,21.746c0.311,0,0.48-1.779,0.509-4.18
			c0.423,0.734,1.073,1.553,1.525,2.005c-0.226,3.502-0.734,4.999-2.316,4.999c-3.7,0-3.728-10.026-3.784-22.142H69.367v6.891
			c0,4.632-0.452,11.099-3.586,15.307c-0.452-0.451-1.525-1.157-2.146-1.439c2.965-3.926,3.22-9.603,3.22-13.867v-9.319H86.538z
			 M81.369,1034.565c1.328,1.893,2.599,4.49,3.022,6.185l-2.146,0.763c-0.141-0.593-0.367-1.299-0.678-2.062
			c-4.434,0.339-8.98,0.678-12.2,0.932l-0.197-2.372c1.694-0.085,3.84-0.197,6.185-0.367v-3.474h-4.66v-7.879h4.66v-2.146
			c-1.61,0.169-3.219,0.254-4.745,0.339c-0.084-0.537-0.367-1.469-0.649-1.949c4.01-0.282,8.698-0.79,11.325-1.524l1.779,1.892
			c-1.525,0.424-3.417,0.734-5.422,0.989v2.4h4.801v7.879h-4.801v3.333l2.937-0.17c-0.396-0.734-0.819-1.469-1.243-2.118
			L81.369,1034.565z M75.354,1032.137v-3.784h-2.598v3.784H75.354z M77.642,1028.353v3.784h2.626v-3.784H77.642z"/>
		<path d="M98.54,1036.316c1.243,1.948,3.559,2.853,6.665,2.965c3.135,0.113,9.404,0.028,12.935-0.197
			c-0.311,0.621-0.734,1.864-0.875,2.683c-3.191,0.142-8.868,0.198-12.087,0.057c-3.586-0.141-6.016-1.073-7.794-3.248
			c-1.328,1.158-2.683,2.288-4.151,3.502l-1.356-2.711c1.271-0.791,2.768-1.836,4.095-2.908v-6.637h-3.615v-2.429h6.185V1036.316z
			 M97.241,1023.128c-0.904-1.327-2.938-3.22-4.716-4.462l1.948-1.582c1.751,1.215,3.869,2.966,4.83,4.321L97.241,1023.128z
			 M107.21,1032.306c-1.666,2.231-3.954,4.265-6.185,5.395c-0.367-0.621-1.13-1.525-1.694-2.005
			c2.457-1.017,5.027-3.022,6.608-5.168h-4.914v-7.174h6.185v-2.005H99.98v-2.203h7.229v-2.683h2.57v2.683h7.681v2.203h-7.681v2.005
			h6.552v7.174h-5.535c1.723,2.062,4.519,4.01,6.919,5.026c-0.593,0.509-1.384,1.44-1.779,2.09c-2.09-1.13-4.406-3.106-6.156-5.196
			v5.931h-2.57V1032.306z M103.426,1028.465h3.784v-3.078h-3.784V1028.465z M109.78,1025.387v3.078h4.01v-3.078H109.78z"/>
	</g>
</g>
<g>
	<path d="M255.582,570.764v2.736H229.05v-2.736h11.448v-3.275h-8.856v-2.664h8.856v-2.629l-9.504,0.396l-0.18-2.7
		c1.152,0,2.484-0.036,3.924-0.071c0.684-1.045,1.44-2.269,2.052-3.42h-6.588c-0.216,5.832-1.044,13.031-4.176,18.035
		c-0.648-0.539-2.124-1.404-2.988-1.728c3.528-5.652,3.852-13.753,3.852-19.477v-10.116h26.749v8.604h-23.4v1.512v0.468h24.372
		v2.701h-6.696c2.448,1.619,5.256,3.815,6.696,5.471l-2.7,1.801c-0.468-0.576-1.08-1.188-1.8-1.872l-6.336,0.288v2.736h9.144v2.664
		h-9.144v3.275H255.582z M230.238,545.852v3.132h20.016v-3.132H230.238z M240.534,556.4c-0.756,1.115-1.512,2.268-2.268,3.312
		c2.844-0.072,5.904-0.181,9.036-0.288c-0.864-0.648-1.728-1.296-2.556-1.836l1.908-1.188H240.534z"/>
	<path d="M288.666,558.02c2.448,2.196,5.184,4.068,7.92,5.292c-0.756,0.648-1.872,1.944-2.376,2.88
		c-1.908-0.972-3.78-2.268-5.544-3.744v11.881h-3.456v-15.156c-1.872-1.98-3.528-4.213-4.932-6.48
		c-2.664,10.764-7.884,17.748-14.472,21.492c-0.576-0.756-1.872-2.016-2.7-2.484c4.14-2.16,7.596-5.436,10.224-9.972
		c-1.548-1.476-3.96-3.239-6.192-4.68c-0.684,0.899-1.404,1.728-2.124,2.483c-0.612-0.576-2.016-1.691-2.808-2.195
		c3.96-3.6,6.912-9.541,8.532-15.984l3.312,0.684c-0.432,1.621-0.9,3.168-1.476,4.681h5.94l0.612-0.108l2.232,0.756
		c-0.18,1.045-0.36,2.088-0.54,3.061l1.296-0.504c0.828,1.512,1.872,3.023,3.096,4.5v-12.996h3.456V558.02z M271.278,549.884
		c-0.72,1.655-1.548,3.204-2.412,4.608c2.088,1.26,4.392,2.844,6.012,4.211c1.152-2.592,2.052-5.543,2.664-8.819H271.278z"/>
</g>
<g>
	<g>
		<g>
			<path d="M365.941,611.209c0-3.425,2.521-5.684,5.571-5.684c3.049,0,5.608,2.259,5.608,5.684c0,3.351-2.56,5.608-5.608,5.608
				C368.463,616.817,365.941,614.56,365.941,611.209z M374.636,611.209c0-1.995-1.28-3.35-3.124-3.35
				c-1.807,0-3.049,1.354-3.049,3.35c0,1.957,1.242,3.313,3.049,3.313C373.356,614.521,374.636,613.166,374.636,611.209z
				 M379.831,620.771c0-9.072,5.533-14.455,12.647-14.455c3.35,0,6.098,1.694,7.792,3.463l-2.484,2.823
				c-1.431-1.505-3.049-2.371-5.232-2.371c-4.818,0-8.13,3.952-8.13,10.389c0,6.513,3.086,10.54,7.98,10.54
				c2.522,0,4.329-1.054,5.947-2.86l2.522,2.747c-2.259,2.598-5.082,4.028-8.545,4.028
				C385.214,635.074,379.831,629.879,379.831,620.771z"/>
		</g>
	</g>
	<path fill="#FFFFFF" d="M349,652c0,5.5-4.5,10-10,10H179c-5.5,0-10-4.5-10-10v-60c0-5.5,4.5-10,10-10h160c5.5,0,10,4.5,10,10V652z"
		/>
</g>
<g>
	<g>
		<g>
			<path d="M366.92,723.92c0-5.533,2.635-8.733,6.512-8.733c3.915,0,6.512,3.2,6.512,8.733c0,5.608-2.597,8.846-6.512,8.846
				C369.555,732.766,366.92,729.528,366.92,723.92z M376.782,723.92c0-4.254-1.355-6.174-3.35-6.174
				c-1.919,0-3.313,1.92-3.313,6.174c0,4.291,1.393,6.248,3.313,6.248C375.427,730.168,376.782,728.211,376.782,723.92z
				 M389.542,715.187h2.748l-15.245,28.834h-2.748L389.542,715.187z M386.644,735.175c0-5.571,2.672-8.733,6.55-8.733
				c3.877,0,6.512,3.162,6.512,8.733c0,5.608-2.635,8.846-6.512,8.846C389.316,744.021,386.644,740.783,386.644,735.175z
				 M396.544,735.175c0-4.292-1.393-6.174-3.35-6.174c-1.958,0-3.35,1.882-3.35,6.174c0,4.291,1.393,6.248,3.35,6.248
				C395.151,741.423,396.544,739.466,396.544,735.175z"/>
		</g>
	</g>
	<path fill="#FFFFFF" d="M349,760.639c0,5.5-4.5,10-10,10H179c-5.5,0-10-4.5-10-10v-60c0-5.5,4.5-10,10-10h160c5.5,0,10,4.5,10,10
		V760.639z"/>
</g>
<path fill="#FFFFFF" d="M349,1031c0,5.5-4.5,10-10,10H179c-5.5,0-10-4.5-10-10v-60c0-5.5,4.5-10,10-10h160c5.5,0,10,4.5,10,10V1031z
	"/>
<g>
	<path d="M49.303,831.198h3.389l1.949,10.816l1.101,6.664h0.113c0.452-2.23,0.932-4.462,1.412-6.664l2.683-10.816h2.881
		l2.711,10.816c0.48,2.174,0.932,4.405,1.412,6.664h0.141c0.339-2.259,0.706-4.49,1.045-6.664l1.977-10.816h3.135l-4.095,20.785
		h-4.038l-2.796-11.551c-0.367-1.638-0.678-3.191-0.96-4.772h-0.141c-0.282,1.581-0.621,3.135-0.96,4.772l-2.74,11.551h-3.954
		L49.303,831.198z"/>
	<path d="M76.668,831.198h6.439c4.265,0,7.343,1.355,7.343,5.111c0,1.977-1.102,3.869-2.965,4.49v0.142
		c2.373,0.508,4.095,2.118,4.095,4.942c0,4.123-3.361,6.1-7.964,6.1h-6.947V831.198z M82.74,839.868
		c3.163,0,4.491-1.187,4.491-3.135c0-2.175-1.469-2.994-4.406-2.994h-2.881v6.129H82.74z M83.249,849.413
		c3.248,0,5.111-1.157,5.111-3.699c0-2.344-1.807-3.36-5.111-3.36h-3.305v7.06H83.249z"/>
	<path d="M94.375,841.647c0-6.778,4.18-10.845,9.687-10.845c2.937,0,4.914,1.299,6.185,2.626l-1.779,2.09
		c-1.017-1.045-2.288-1.863-4.293-1.863c-3.869,0-6.439,2.993-6.439,7.879c0,4.942,2.288,7.964,6.581,7.964
		c1.271,0,2.542-0.367,3.276-1.017v-4.886h-4.123v-2.683h7.088v9.009c-1.384,1.384-3.728,2.429-6.58,2.429
		C98.414,852.351,94.375,848.453,94.375,841.647z"/>
	<path d="M119.538,833.938h-6.1v-2.739h15.504v2.739h-6.128v18.046h-3.276V833.938z"/>
</g>
<g>
	<g>
		<path d="M365.941,829.209c0-3.425,2.521-5.684,5.571-5.684c3.049,0,5.608,2.259,5.608,5.684c0,3.351-2.56,5.608-5.608,5.608
			C368.463,834.817,365.941,832.56,365.941,829.209z M374.636,829.209c0-1.995-1.28-3.35-3.124-3.35
			c-1.807,0-3.049,1.354-3.049,3.35c0,1.957,1.242,3.313,3.049,3.313C373.356,832.521,374.636,831.166,374.636,829.209z
			 M379.831,838.771c0-9.072,5.533-14.455,12.647-14.455c3.35,0,6.098,1.694,7.792,3.463l-2.484,2.823
			c-1.431-1.505-3.049-2.371-5.232-2.371c-4.818,0-8.13,3.952-8.13,10.389c0,6.513,3.086,10.54,7.98,10.54
			c2.522,0,4.329-1.054,5.947-2.86l2.522,2.747c-2.259,2.598-5.082,4.028-8.545,4.028
			C385.214,853.074,379.831,847.879,379.831,838.771z"/>
	</g>
</g>
<path fill="#FFFFFF" d="M349,870c0,5.5-4.5,10-10,10H179c-5.5,0-10-4.5-10-10v-60c0-5.5,4.5-10,10-10h160c5.5,0,10,4.5,10,10V870z"
	/>
</svg>
