<?xml version="1.0" encoding="utf-8"?>
<!-- Generator: Adobe Illustrator 12.0.0, SVG Export Plug-In . SVG Version: 6.00 Build 51448)  -->
<!DOCTYPE svg PUBLIC "-//W3C//DTD SVG 1.1//EN" "http://www.w3.org/Graphics/SVG/1.1/DTD/svg11.dtd" [
	<!ENTITY ns_svg "http://www.w3.org/2000/svg">
	<!ENTITY ns_xlink "http://www.w3.org/1999/xlink">
]>
<svg  version="1.1" id="レイヤー_1" xmlns="&ns_svg;" xmlns:xlink="&ns_xlink;" width="48" height="48" viewBox="0 0 48 48"
	 overflow="visible" enable-background="new 0 0 48 48" xml:space="preserve">
<circle fill="none" cx="24" cy="24" r="24"/>
<g>
	<g>
		<g>
			<path fill="#FFFFFF" d="M22.629,16.121l0.053,1.5L24,17.592c9.542,0,15.952,3.313,15.952,6.407c0,1.7-1.86,3.389-5.104,4.632
				l0.536,1.4c3.913-1.499,6.068-3.642,6.068-6.032c0-4.434-7.666-7.907-17.452-7.907L22.629,16.121z"/>
		</g>
		<polygon fill="#FFFFFF" points="16.353,17.088 25.109,13.154 23.126,16.854 25.358,20.41 		"/>
	</g>
	<g>
		<g>
			<path fill="#FFFFFF" d="M6.547,23.999c0,2.23,1.899,4.273,5.347,5.751c3.246,1.391,7.545,2.157,12.106,2.157l1.368-0.028
				l-0.049-1.5L24,30.407c-4.362,0-8.452-0.723-11.515-2.036c-2.82-1.209-4.438-2.802-4.438-4.372c0-1.701,1.86-3.389,5.104-4.631
				l-0.536-1.4C8.702,19.466,6.547,21.607,6.547,23.999z"/>
		</g>
		<polygon fill="#FFFFFF" points="31.646,30.912 22.89,34.845 24.873,31.145 22.641,27.59 		"/>
	</g>
</g>
</svg>
