<?xml version="1.0" encoding="utf-8"?>
<!-- Generator: Adobe Illustrator 16.0.0, SVG Export Plug-In . SVG Version: 6.00 Build 0)  -->
<!DOCTYPE svg PUBLIC "-//W3C//DTD SVG 1.1//EN" "http://www.w3.org/Graphics/SVG/1.1/DTD/svg11.dtd">
<svg version="1.1" xmlns="http://www.w3.org/2000/svg" xmlns:xlink="http://www.w3.org/1999/xlink" x="0px" y="0px" width="1920px"
	 height="1080px" viewBox="0 0 1920 1080" enable-background="new 0 0 1920 1080" xml:space="preserve">
<g id="背景">
	<linearGradient id="SVGID_1_" gradientUnits="userSpaceOnUse" x1="960.0005" y1="1080" x2="960.0004" y2="4.882813e-004">
		<stop  offset="0" style="stop-color:#D1F0E9"/>
		<stop  offset="0.2648" style="stop-color:#CCF0E8"/>
		<stop  offset="0.5694" style="stop-color:#BEF0E6"/>
		<stop  offset="0.8926" style="stop-color:#A7F0E2"/>
		<stop  offset="1" style="stop-color:#9EF0E1"/>
	</linearGradient>
	<rect fill="url(#SVGID_1_)" width="1920" height="1080"/>
</g>
<g id="パーツ">
	<g>
		<path d="M512.965,66.777h-3.744v6.299h-3.383v-1.548h-7.667V73.4c0,1.835-0.469,2.592-1.692,3.06
			c-1.224,0.432-3.096,0.468-6.119,0.468c-0.18-0.756-0.684-1.979-1.152-2.7c1.98,0.072,4.139,0.072,4.715,0.036
			c0.648-0.036,0.864-0.216,0.864-0.828v-1.908h-11.231v-2.52h11.231v-2.231h-14.398v-2.628h14.398v-2.052H483.88v-2.375h10.907
			v-2.124h-9.971v-6.623h9.971v-1.836h-13.643v-2.7h13.643v-2.627h3.384v2.627h14.038v2.7h-14.038v1.836h10.475v6.623h-10.475v2.124
			h11.05v4.427h3.744V66.777z M494.787,55.366v-2.16h-6.767v2.16H494.787z M498.171,53.207v2.16h7.091v-2.16H498.171z
			 M498.171,64.149h7.667v-2.052h-7.667V64.149z M505.838,66.777h-7.667v2.231h7.667V66.777z"/>
		<path d="M540.722,68.504c3.168,2.232,7.812,4.067,12.202,4.896c-0.756,0.72-1.728,2.087-2.231,2.987
			c-4.68-1.26-9.503-3.671-12.886-6.767v7.235h-3.276v-6.983c-3.419,2.88-8.278,5.22-12.778,6.479
			c-0.504-0.864-1.439-2.124-2.195-2.844c4.283-0.9,8.963-2.771,12.13-5.003h-11.122v-2.808h13.966v-2.196h-10.618v-2.52h10.618
			v-2.16h-12.382v-2.664h7.379c-0.324-1.008-0.936-2.304-1.512-3.275l0.863-0.144h-8.171v-2.808h5.327
			c-0.539-1.404-1.619-3.383-2.627-4.859l2.915-0.972c1.116,1.548,2.376,3.743,2.88,5.147l-1.836,0.684h3.96v-6.155h3.132v6.155
			h3.563v-6.155h3.167v6.155h3.888l-1.368-0.432c0.864-1.44,1.98-3.708,2.521-5.328l3.455,0.864
			c-0.972,1.764-2.052,3.564-2.987,4.896h5.184v2.808h-6.947c-0.685,1.224-1.404,2.412-2.016,3.419h7.631v2.664h-12.742v2.16h11.05
			v2.52h-11.05v2.196h14.182v2.808H540.722z M531.471,52.738c0.648,1.044,1.296,2.34,1.548,3.204l-1.044,0.216h7.596
			c0.539-0.972,1.115-2.268,1.583-3.419H531.471z"/>
		<path d="M564.448,63.573c-0.144,4.355-0.792,9.683-3.167,13.318c-0.505-0.576-1.908-1.656-2.592-2.051
			c2.411-3.816,2.627-9.323,2.627-13.427v-9.395h13.499v11.555H564.448z M575.643,48.743h-15.55v-3.06h15.55V48.743z
			 M564.484,55.042v5.507h7.055v-5.507H564.484z M592.489,59.109h-3.6v17.746h-3.348V59.109h-5.292
			c-0.216,5.543-1.403,12.67-6.227,17.674c-0.468-0.72-1.656-1.872-2.484-2.268c4.968-5.183,5.472-12.238,5.472-17.674v-9.683
			l2.556,0.612c3.563-0.972,7.235-2.268,9.467-3.563l2.952,2.483c-3.24,1.62-7.632,2.916-11.699,3.924v5.291h12.203V59.109z"/>
		<path d="M604.372,52.415c-0.9,0.972-1.836,1.835-2.735,2.592c-0.612-0.612-1.944-1.656-2.772-2.196
			c3.06-2.124,5.903-5.543,7.56-8.999l3.275,0.936c-0.504,1.044-1.08,2.052-1.728,3.023h22.137v2.952h-3.527v5.399h4.859v3.023
			h-4.859v5.399h4.355v3.023h-30.92v-3.023h4.355v-5.399h-4.896v-3.023h4.896V52.415z M599.152,75.56
			c1.764-1.476,3.384-4.211,4.248-6.803l3.239,0.792c-0.899,2.7-2.447,5.543-4.319,7.343L599.152,75.56z M607.396,56.122h3.348
			v-5.399h-3.348V56.122z M607.396,64.545h3.348v-5.399h-3.348V64.545z M612.795,69.476c0.468,2.124,0.864,4.896,0.899,6.551
			l-3.275,0.468c0-1.692-0.288-4.536-0.72-6.695L612.795,69.476z M617.042,56.122v-5.399h-3.491v5.399H617.042z M613.551,59.146
			v5.399h3.491v-5.399H613.551z M620.03,69.333c0.936,2.052,1.871,4.823,2.195,6.551l-3.312,0.648
			c-0.288-1.728-1.116-4.535-2.016-6.695L620.03,69.333z M623.449,50.723h-3.563v5.399h3.563V50.723z M623.449,59.146h-3.563v5.399
			h3.563V59.146z M627.229,68.612c1.728,2.16,3.815,5.147,4.751,7.091l-3.384,1.188c-0.863-1.908-2.808-5.003-4.535-7.271
			L627.229,68.612z"/>
		<path d="M656.571,57.418c-0.072,0.792-0.108,1.583-0.181,2.339c1.404,8.675,5.111,13.031,15.37,14.074
			c-0.72,0.756-1.548,2.196-1.943,3.168c-8.351-1.26-12.526-4.428-14.83-10.403c-1.8,4.896-5.651,8.351-14.542,10.259
			c-0.324-0.864-1.152-2.268-1.872-3.024c12.599-2.447,13.714-7.847,14.29-16.414H656.571z M647.932,60.297
			c-1.079,2.88-2.663,5.867-5.291,7.775l-2.771-1.872c2.411-1.656,4.176-4.355,5.147-7.091L647.932,60.297z M645.988,57.562
			c-1.116-1.908-3.384-4.68-5.795-7.163c1.943-2.196,4.031-4.86,5.147-6.587l3.419,0.9c-1.367,1.944-3.132,3.923-4.644,5.615
			c1.98,1.944,4.067,4.355,5.111,5.939L645.988,57.562z M656.139,57.094c-1.151-1.835-3.527-4.535-6.047-6.911
			c2.052-2.087,4.176-4.679,5.399-6.371l3.419,0.9c-1.439,1.872-3.239,3.779-4.787,5.435c1.979,1.836,4.14,4.14,5.256,5.651
			L656.139,57.094z M666.649,57.706c-1.296-1.943-3.959-4.751-6.803-7.235c2.231-2.196,4.644-4.896,5.939-6.659l3.419,1.008
			c-1.548,1.908-3.527,3.888-5.219,5.58c2.268,1.908,4.607,4.319,5.903,5.939L666.649,57.706z M661.358,66.668
			c1.548-1.979,3.384-5.111,4.464-7.451l3.599,0.972c-1.583,2.664-3.527,5.579-5.075,7.451L661.358,66.668z"/>
		<path d="M710.497,62.025v2.735h-31.641v-2.735h13.967v-2.232h-10.475v-2.556h10.475v-2.016h-9.107V52.63h9.107v-2.268h3.384v2.268
			h9.467v2.592h-9.467v2.016h11.014v2.556h-11.014v2.232H710.497z M683.068,53.89h-3.312v-6.731h13.066v-3.348h3.419v3.348h13.354
			v6.731h-3.419v-3.815h-23.109V53.89z M683.86,66.561h21.957v10.187h-3.348v-0.972h-15.406v1.08h-3.203V66.561z M687.063,69.26
			v3.815h15.406V69.26H687.063z"/>
		<path d="M717.664,49.751h14.362v2.664h-14.362V49.751z M730.551,74.875h-8.314v1.512h-2.952V64.293h11.267V74.875z
			 M719.356,54.646h11.303v2.592h-11.303V54.646z M719.356,59.434h11.303v2.627h-11.303V59.434z M730.767,47.627h-11.194V45h11.194
			V47.627z M722.236,66.993v5.183h5.327v-5.183H722.236z M745.453,73.328c1.8,0,2.052-0.9,2.304-5.651
			c0.756,0.576,2.195,1.152,3.132,1.368c-0.469,5.795-1.44,7.451-5.22,7.451h-6.623c-3.96,0-5.22-1.008-5.22-4.896V57.274h11.807
			v-8.351h-12.059v-3.204h15.406v16.63h-3.348v-1.872h-8.423V71.6c0,1.44,0.36,1.728,2.195,1.728H745.453z"/>
		<path d="M778.538,69.548c-2.195,1.692-4.571,3.419-6.659,4.859l-0.863-1.512l0.036,0.288c-4.5,0.972-9.215,1.98-12.814,2.7
			l-0.685-3.06c1.584-0.252,3.527-0.612,5.651-1.008V61.665h-5.255V58.75h5.255v-3.275h-3.455V53.89
			c-0.36,0.324-0.721,0.684-1.116,1.044c-0.432-0.684-1.439-1.692-2.052-2.124c3.132-2.664,5.363-6.191,6.516-8.999h2.843
			c2.124,1.836,4.752,4.5,6.012,6.299l-2.16,2.52h0.288v2.844h-3.959v3.275h4.859v2.916h-4.859v9.611l4.679-0.9l0.072,0.972
			c1.8-1.116,4.212-2.7,6.659-4.319L778.538,69.548z M760.757,63.285c0.684,2.124,1.26,4.751,1.403,6.515l-2.375,0.612
			c-0.072-1.764-0.612-4.5-1.225-6.551L760.757,63.285z M769.72,52.63c-1.008-1.548-2.952-3.959-4.752-5.688
			c-1.008,1.728-2.34,3.744-4.067,5.688H769.72z M767.02,69.188c0.54-1.692,1.152-4.392,1.404-6.191l2.52,0.648
			c-0.612,2.088-1.26,4.5-1.8,6.119L767.02,69.188z M784.046,64.797c1.512,2.916,3.743,5.651,6.911,7.271
			c-0.648,0.612-1.692,1.908-2.16,2.736c-3.132-1.944-5.327-5.111-6.803-8.207v6.911c0,1.512-0.216,2.34-1.188,2.844
			c-0.936,0.468-2.339,0.504-4.283,0.504c-0.072-0.828-0.468-2.088-0.828-2.916c1.188,0.036,2.34,0.036,2.7,0.036
			c0.396-0.036,0.504-0.144,0.504-0.54V58.57h-7.739v-2.88h13.175v-2.556h-10.619v-2.627h10.619v-2.556h-11.339v-2.808h14.435V55.69
			h2.808v2.88h-8.243v0.9c0.432,1.548,1.008,3.239,1.8,4.859c1.296-1.296,2.879-3.312,3.779-4.751l2.628,1.656
			c-1.44,1.692-3.132,3.492-4.464,4.715L784.046,64.797z M773.931,60.153c1.476,1.368,3.132,3.312,3.852,4.644l-2.411,1.62
			c-0.648-1.368-2.232-3.383-3.672-4.823L773.931,60.153z"/>
	</g>
	<g>
		<path d="M1309.231,62.635c-1.649,1.17-3.42,2.25-5.22,3.12c-0.301-0.63-1.051-1.68-1.65-2.28c5.131-2.34,10.02-6.66,12.27-10.32
			h2.881c3.18,4.41,8.158,8.07,12.838,9.9c-0.658,0.69-1.289,1.68-1.77,2.52c-1.74-0.84-3.568-1.89-5.309-3.12v2.34h-14.04V62.635z
			 M1304.072,67.915h24.629v2.61h-13.74c-0.99,2.01-2.1,4.26-3.18,6.18c3.33-0.12,7.049-0.27,10.709-0.42
			c-1.109-1.26-2.309-2.52-3.479-3.57l2.398-1.29c2.73,2.31,5.58,5.49,6.961,7.709l-2.551,1.59c-0.33-0.57-0.779-1.23-1.32-1.95
			c-7.139,0.36-14.759,0.69-19.858,0.9l-0.36-2.73l4.439-0.15c0.99-1.86,2.07-4.26,2.791-6.27h-7.439V67.915z M1322.941,62.214
			c-2.701-1.92-5.16-4.169-6.75-6.359c-1.439,2.1-3.721,4.35-6.391,6.359H1322.941z"/>
		<path d="M1345.201,60.294h-9.719v-2.22h9.719V60.294z M1344.391,78.954h-5.52v1.32h-2.219v-10.08h7.738V78.954z M1336.711,62.155
			h7.711v2.16h-7.711V62.155z M1336.711,66.145h7.711v2.19h-7.711V66.145z M1344.361,56.305h-7.469v-2.19h7.469V56.305z
			 M1338.871,72.444v4.32h3.27v-4.32H1338.871z M1361.641,73.464c-0.75,1.26-1.77,2.43-2.939,3.45c0.57,1.14,1.23,1.74,1.949,1.74
			c0.51,0,0.779-0.72,0.9-2.55c0.48,0.45,1.17,0.81,1.68,1.05c-0.359,2.76-1.17,3.66-2.82,3.69c-1.529,0-2.67-0.87-3.57-2.49
			c-1.078,0.78-2.248,1.44-3.418,1.95c-0.301-0.39-0.9-1.08-1.352-1.5c1.381-0.57,2.76-1.35,3.99-2.31
			c-0.42-1.26-0.75-2.79-0.959-4.5h-3.57v1.62c0.93-0.12,1.92-0.24,2.879-0.36l0.031,2.01l-2.91,0.42v2.58
			c0,1.17-0.211,1.74-1.051,2.04c-0.809,0.33-2.01,0.36-3.75,0.36c-0.119-0.57-0.449-1.47-0.75-2.04c1.17,0.06,2.34,0.06,2.641,0.03
			c0.359-0.03,0.48-0.12,0.48-0.45v-2.19c-1.381,0.18-2.67,0.36-3.84,0.51l-0.301-2.16c1.17-0.12,2.58-0.3,4.141-0.48v-1.89h-3.99
			v-2.07h3.99v-1.71c-1.051,0.12-2.07,0.24-3.031,0.3c-0.09-0.45-0.359-1.2-0.6-1.68c2.58-0.27,5.609-0.75,7.35-1.32l1.531,1.62
			c-0.84,0.27-1.801,0.48-2.82,0.69v2.1h3.33c-0.121-1.29-0.211-2.7-0.24-4.17h2.4c0,1.53,0.059,2.91,0.18,4.17h5.609v2.07h-5.4
			c0.15,1.05,0.33,2.01,0.541,2.82c0.66-0.72,1.26-1.5,1.709-2.31L1361.641,73.464z M1352.641,57.925h-6.479v-1.98h3.479
			c-0.359-0.69-0.869-1.47-1.35-2.13l1.98-0.72c0.719,0.84,1.5,2.07,1.799,2.85h4.111c0.568-0.81,1.199-2.04,1.529-2.85l2.49,0.69
			c-0.541,0.78-1.08,1.53-1.561,2.16h3.51v1.98h-6.84v1.59h6v1.8h-6v1.68h7.471v2.1h-17.641v-2.1h7.5v-1.68h-5.549v-1.8h5.549
			V57.925z M1359.391,65.665c1.17,0.78,2.52,1.92,3.18,2.82l-1.709,1.29c-0.57-0.9-1.92-2.1-3.09-2.91L1359.391,65.665z"/>
		<path d="M1395.51,77.334v2.49h-26.338v-2.49h11.609v-3.12h-8.939v-2.43h8.939v-2.97c-3.51,0.09-6.779,0.18-9.33,0.27l-0.119-2.55
			c1.229,0,2.67-0.03,4.199-0.06c0.689-1.11,1.41-2.46,1.98-3.66h-4.951v-2.4h19.621v2.4h-11.43c-0.721,1.2-1.5,2.49-2.281,3.6
			c2.971-0.06,6.211-0.15,9.449-0.21c-0.809-0.66-1.648-1.32-2.43-1.86l2.01-1.38c2.4,1.62,5.371,4.05,6.781,5.73l-2.191,1.53
			c-0.389-0.51-0.959-1.11-1.59-1.74c-2.279,0.09-4.619,0.15-6.869,0.24v3.06h9.391v2.43h-9.391v3.12H1395.51z M1372.141,61.044
			h-2.729v-5.79h11.369v-2.13h2.85v2.13h11.609v5.79h-2.85v-3.27h-20.25V61.044z"/>
	</g>
	<g>
		<g>
			<path d="M1731.301,236.995c0,3.52,2.271,11.103,12.832,14.367c-0.672,0.704-1.633,2.08-2.113,2.816
				c-8.223-2.88-11.678-9.215-12.414-12.191c-0.768,2.976-4.191,9.151-12.479,12.223c-0.353-0.672-1.407-2.016-2.048-2.624
				c10.367-3.328,12.799-10.911,12.799-14.559v-3.904h-5.312c-1.376,3.008-3.008,5.632-4.735,7.647
				c-0.607-0.544-2.08-1.536-2.912-1.984c3.264-3.264,5.791-8.607,7.168-14.239l3.328,0.704c-0.449,1.696-0.992,3.328-1.601,4.927
				h16.958l0.576-0.16l2.4,0.8c-1.152,3.712-2.752,7.711-4.383,10.367l-2.689-1.184c1.025-1.76,2.08-4.352,2.881-6.88h-8.256
				V236.995z"/>
			<path d="M1779.268,227.971v2.656h-23.709v6.368c0,5.023-0.449,12.447-3.232,17.311c-0.545-0.512-1.791-1.344-2.432-1.664
				c2.592-4.511,2.816-11.007,2.816-15.646v-9.023h11.518v-3.104h3.105v3.104H1779.268z M1773.957,233.827h5.023v2.464h-5.023v5.12
				h-5.023v2.208h8.414v6.527c0,1.344-0.256,2.08-1.248,2.528c-0.99,0.416-2.494,0.416-4.639,0.416
				c-0.129-0.8-0.48-1.824-0.832-2.56c1.439,0.064,2.816,0.064,3.264,0.032c0.416,0,0.545-0.128,0.545-0.48v-3.904h-5.504v8.096
				h-2.912v-8.096h-5.217v7.04h-2.91v-9.599h8.127v-2.208h-5.057v-5.12h-4.479v-2.464h4.479v-2.624h2.785v2.624h7.326v-2.624h2.881
				V233.827z M1771.076,236.291h-7.326v2.752h7.326V236.291z"/>
			<path d="M1802.469,237.442c-1.439,1.088-2.943,2.048-4.479,3.008h12.414v13.663h-3.072v-0.864h-12.063v0.992h-2.943V243.49
				c-1.793,0.832-3.615,1.6-5.439,2.304c-0.352-0.672-1.279-1.856-1.824-2.464c4.416-1.472,8.672-3.456,12.512-5.888h-11.711v-2.656
				h10.59v-3.584h-7.807v-2.592h7.807v-3.744h2.945v3.744h7.455v1.408c1.279-1.312,2.463-2.688,3.486-4.128l2.561,1.344
				c-2.016,2.751-4.416,5.248-7.072,7.551h8.385v2.656H1802.469z M1807.332,242.914h-12.063v2.656h12.063V242.914z
				 M1807.332,250.722v-2.816h-12.063v2.816H1807.332z M1801.477,234.787c1.504-1.12,2.881-2.336,4.193-3.584h-6.271v3.584H1801.477
				z"/>
		</g>
	</g>
	<g>
		<path d="M781.958,232.515h-12.223v-2.368h12.223V232.515z M780.806,252.481h-7.071v1.344h-2.56v-10.751h9.631V252.481z
			 M780.838,236.322c2.912-1.952,3.359-4.479,3.359-6.688v-3.808h10.271v7.52c0,0.736,0.064,0.864,0.512,0.864h1.248
			c0.48,0,0.608-0.416,0.672-3.359c0.576,0.48,1.696,0.928,2.432,1.088c-0.192,3.808-0.928,4.799-2.784,4.799h-2.048
			c-2.208,0-2.879-0.736-2.879-3.359v-4.896h-4.608v1.184c0,2.88-0.672,6.368-4.032,8.607c-0.416-0.512-1.504-1.504-2.144-1.888
			v0.416h-9.6v-2.304h9.6V236.322z M771.239,238.754h9.6v2.336h-9.6V238.754z M780.742,228.259h-9.375v-2.336h9.375V228.259z
			 M773.735,245.474v4.608h4.479v-4.608H773.735z M797.573,239.17c-1.056,3.904-2.848,6.976-5.184,9.343
			c2.016,1.408,4.352,2.464,7.008,3.136c-0.64,0.576-1.504,1.792-1.92,2.56c-2.784-0.832-5.248-2.08-7.328-3.744
			c-2.272,1.696-4.864,2.912-7.711,3.744c-0.288-0.736-1.024-1.983-1.6-2.624c2.592-0.64,4.991-1.696,7.104-3.136
			c-1.696-1.824-3.104-3.936-4.16-6.335l2.656-0.832c0.864,1.984,2.112,3.808,3.68,5.344c1.568-1.504,2.815-3.296,3.68-5.376
			h-11.455v-2.72h12.767l0.544-0.096L797.573,239.17z"/>
		<path d="M817.703,232.515h-12.768v-2.368h12.768V232.515z M816.39,252.481h-7.391v1.344h-2.624v-10.751h10.015V252.481z
			 M806.439,234.499h10.048v2.304h-10.048V234.499z M806.439,238.754h10.048v2.336h-10.048V238.754z M816.518,228.259h-9.887v-2.336
			h9.887V228.259z M808.999,245.474v4.608h4.735v-4.608H808.999z M834.661,238.563h-6.911v15.646h-3.008v-15.646h-7.136v-2.944
			h7.136v-10.655h3.008v10.655h6.911V238.563z"/>
	</g>
	<g>
		<path d="M1017.958,232.515h-12.224v-2.368h12.224V232.515z M1016.807,252.481h-7.072v1.344h-2.56v-10.751h9.632V252.481z
			 M1016.838,236.322c2.912-1.952,3.359-4.479,3.359-6.688v-3.808h10.271v7.52c0,0.736,0.064,0.864,0.512,0.864h1.248
			c0.48,0,0.608-0.416,0.672-3.359c0.576,0.48,1.696,0.928,2.433,1.088c-0.192,3.808-0.929,4.799-2.784,4.799h-2.048
			c-2.208,0-2.88-0.736-2.88-3.359v-4.896h-4.607v1.184c0,2.88-0.672,6.368-4.031,8.607c-0.416-0.512-1.504-1.504-2.145-1.888v0.416
			h-9.6v-2.304h9.6V236.322z M1007.238,238.754h9.6v2.336h-9.6V238.754z M1016.742,228.259h-9.375v-2.336h9.375V228.259z
			 M1009.734,245.474v4.608h4.48v-4.608H1009.734z M1033.572,239.17c-1.055,3.904-2.848,6.976-5.184,9.343
			c2.017,1.408,4.353,2.464,7.008,3.136c-0.64,0.576-1.504,1.792-1.92,2.56c-2.783-0.832-5.247-2.08-7.327-3.744
			c-2.272,1.696-4.864,2.912-7.712,3.744c-0.287-0.736-1.023-1.983-1.6-2.624c2.592-0.64,4.992-1.696,7.104-3.136
			c-1.695-1.824-3.104-3.936-4.16-6.335l2.656-0.832c0.864,1.984,2.112,3.808,3.68,5.344c1.568-1.504,2.816-3.296,3.68-5.376
			h-11.455v-2.72h12.768l0.544-0.096L1033.572,239.17z"/>
		<path d="M1070.213,229.603h-6.207c0.607,0.832,1.215,1.696,1.535,2.4l-2.783,0.832c-0.32-0.864-1.184-2.144-2.016-3.232h-2.271
			c-0.48,0.64-0.992,1.216-1.537,1.76h0.064v2.336h12.318v6.111h-2.91v-3.775h-21.344v3.775h-2.783v-6.111h11.871v-2.336h0.16
			c-0.385-0.192-0.736-0.384-1.023-0.512c0.512-0.352,1.023-0.8,1.504-1.248h-4.832c0.479,0.864,0.928,1.728,1.152,2.368l-2.656,0.8
			c-0.256-0.832-0.896-2.08-1.504-3.167h-0.992c-0.832,1.248-1.76,2.368-2.656,3.232c-0.576-0.48-1.728-1.248-2.432-1.632
			c1.889-1.6,3.648-4.063,4.64-6.527l2.784,0.736c-0.256,0.576-0.545,1.184-0.864,1.76h7.776v2.016
			c1.246-1.312,2.271-2.88,2.91-4.512l2.881,0.704c-0.256,0.608-0.576,1.216-0.896,1.792h10.111V229.603z M1049.83,246.242h16.895
			v7.967h-2.975v-0.928h-13.92v0.992h-2.815v-16.575h17.503v6.688h-14.688V246.242z M1049.83,239.906v2.272h11.711v-2.272H1049.83z
			 M1049.83,248.481v2.528h13.92v-2.528H1049.83z"/>
	</g>
	<g>
		<path d="M1254.918,232.067h-9.439v4.224h-2.655v-6.271h12.095v-1.632h-10.143v-2.272h23.294v2.272h-10.271v1.632h12.318v6.271
			h-2.752v-4.224h-9.566v7.007h-2.881V232.067z M1266.63,251.713c1.6,0,1.919-0.544,2.112-3.52c0.607,0.448,1.727,0.864,2.527,0.959
			c-0.385,3.872-1.248,4.864-4.48,4.864h-7.007c-3.936,0-5.024-0.736-5.024-3.616v-0.608h-6.271v1.536h-2.848v-11.295h21.695v9.759
			h-9.728v0.608c0,1.12,0.384,1.312,2.368,1.312H1266.63z M1246.344,236.707h7.167v1.728h-7.167V236.707z M1253.479,233.507v1.728
			h-6.496v-1.728H1253.479z M1248.486,242.114v1.888h6.271v-1.888H1248.486z M1254.758,247.682v-1.824h-6.271v1.824H1254.758z
			 M1264.422,242.114h-6.815v1.888h6.815V242.114z M1264.422,247.682v-1.824h-6.815v1.824H1264.422z M1265.83,233.507v1.728h-6.561
			v-1.728H1265.83z M1259.27,236.707h7.36v1.728h-7.36V236.707z"/>
		<path d="M1304.422,245.794c-1.664,1.152-3.776,2.304-5.6,3.136c2.111,1.408,4.672,2.4,7.68,2.976
			c-0.641,0.576-1.376,1.696-1.729,2.432c-6.432-1.504-10.751-4.928-13.311-10.271h-0.064c-1.184,1.024-2.624,1.952-4.224,2.784
			v3.808c2.176-0.288,4.512-0.608,6.815-0.928l0.128,2.464c-4.607,0.672-9.535,1.376-13.022,1.824l-0.48-2.528l3.712-0.48v-2.879
			c-1.888,0.736-3.903,1.344-5.855,1.728c-0.32-0.64-1.056-1.6-1.632-2.144c3.808-0.64,7.807-1.952,10.655-3.648h-10.111v-2.336
			h12.703v-2.368h2.976v2.368h12.896v2.336h-11.647c0.704,1.28,1.6,2.4,2.688,3.392c1.824-0.928,3.968-2.24,5.28-3.231
			L1304.422,245.794z M1283.879,235.65c-2.047,0.928-4.16,1.952-5.983,2.752l-1.024-2.464c1.664-0.64,4.032-1.632,6.4-2.656
			L1283.879,235.65z M1281.575,231.619c-0.768-1.024-2.464-2.464-3.872-3.423l1.76-1.728c1.408,0.896,3.168,2.272,3.969,3.264
			L1281.575,231.619z M1286.822,239.906h-2.783v-15.039h2.783V239.906z M1295.494,231.523h-7.231v-2.592h7.231v-4.064h2.976v4.064
			h7.488v2.592h-7.488v4.479h6.592v2.592h-15.902v-2.592h6.335V231.523z"/>
	</g>
	<g>
		<g>
			<path d="M1496.212,240.962v13.215h-3.072v-1.888h-18.91v1.952h-3.008v-13.279h3.008v8.416h7.711v-10.335h-9.503v-11.167h2.976
				v8.288h6.527v-11.071h3.04v11.071h6.848v-8.319h3.136v11.199h-9.983v10.335h8.159v-8.416H1496.212z"/>
			<path d="M1515.381,240.29c0,0-0.032,0.864-0.063,1.216c-0.448,7.551-0.96,10.527-1.952,11.583
				c-0.608,0.704-1.28,0.96-2.208,1.056c-0.864,0.096-2.304,0.128-3.84,0.032c-0.032-0.832-0.319-1.984-0.8-2.752
				c1.376,0.128,2.688,0.128,3.264,0.128c0.48,0,0.8-0.064,1.12-0.352c0.607-0.64,1.023-2.848,1.408-8.255h-4.992l-0.191,1.216
				l-2.752-0.32c0.512-2.656,1.12-6.879,1.407-10.111h6.368v-4.511h-7.296v-2.72h10.048v9.983h-6.72
				c-0.128,1.28-0.288,2.56-0.48,3.808H1515.381z M1533.46,244.066c-1.536,1.28-3.392,2.624-4.928,3.616
				c1.407,1.792,3.231,3.168,5.472,4c-0.672,0.576-1.536,1.792-1.952,2.592c-4.672-2.112-7.455-6.464-8.959-12.159h-2.304v8.095
				c1.695-0.256,3.487-0.512,5.247-0.8l0.096,2.592c-3.615,0.64-7.423,1.28-10.303,1.792l-0.544-2.848
				c0.8-0.096,1.695-0.192,2.655-0.32v-8.511h-2.56v-2.592h2.464v-13.535h14.207v2.592h-11.359v2.144h10.144v2.176h-10.144v2.176
				h10.144v2.176h-10.144v2.272h12.863v2.592h-7.871c0.447,1.375,0.991,2.656,1.663,3.839c1.345-1.056,2.752-2.304,3.648-3.295
				L1533.46,244.066z"/>
			<path d="M1556.469,237.442c-1.439,1.088-2.943,2.048-4.479,3.008h12.415v13.663h-3.072v-0.864h-12.063v0.992h-2.944V243.49
				c-1.792,0.832-3.615,1.6-5.439,2.304c-0.352-0.672-1.279-1.856-1.824-2.464c4.416-1.472,8.672-3.456,12.512-5.888h-11.711v-2.656
				h10.591v-3.584h-7.808v-2.592h7.808v-3.744h2.944v3.744h7.455v1.408c1.28-1.312,2.464-2.688,3.487-4.128l2.561,1.344
				c-2.017,2.751-4.416,5.248-7.072,7.551h8.384v2.656H1556.469z M1561.332,242.914h-12.063v2.656h12.063V242.914z
				 M1561.332,250.722v-2.816h-12.063v2.816H1561.332z M1555.477,234.787c1.504-1.12,2.88-2.336,4.192-3.584h-6.271v3.584H1555.477z
				"/>
		</g>
	</g>
	<line fill="none" stroke="#FFFFFF" stroke-width="4" stroke-linecap="round" x1="25.937" y1="920" x2="424.301" y2="920"/>
	<path fill="#111111" d="M858.787,169.655c0,5.5-4.5,10-10,10H488.625c-5.5,0-10-4.5-10-10v-70c0-5.5,4.5-10,10-10h360.162
		c5.5,0,10,4.5,10,10V169.655z"/>
	<path fill="none" stroke="#404040" stroke-width="4" d="M852.787,163.655c0,5.5-4.5,10-10,10H494.625c-5.5,0-10-4.5-10-10v-58
		c0-5.5,4.5-10,10-10h348.162c5.5,0,10,4.5,10,10V163.655z"/>
	<g>
		<g>
			<path fill="#FFFFFF" d="M832.074,115.805v40.275h-4.753v-2.928h-22.609v3.12h-4.561v-40.467H832.074z M804.712,120.317v11.713
				h22.609v-11.713H804.712z M827.321,148.64v-12.193h-22.609v12.193H827.321z"/>
		</g>
	</g>
	<g>
		<path d="M894.815,52.415h-13.75v-2.664h13.75V52.415z M893.52,74.875h-7.955v1.512h-2.88V64.293h10.835V74.875z M893.556,56.698
			c3.275-2.196,3.779-5.039,3.779-7.523v-4.283h11.555v8.458c0,0.828,0.071,0.972,0.575,0.972h1.404c0.54,0,0.684-0.468,0.756-3.78
			c0.647,0.54,1.908,1.044,2.735,1.224c-0.216,4.283-1.044,5.399-3.131,5.399h-2.304c-2.484,0-3.24-0.828-3.24-3.78v-5.507h-5.184
			v1.332c0,3.239-0.756,7.163-4.535,9.683c-0.468-0.576-1.691-1.692-2.411-2.124v0.468h-10.799v-2.592h10.799V56.698z
			 M882.757,59.434h10.799v2.627h-10.799V59.434z M893.447,47.627H882.9V45h10.547V47.627z M885.564,66.993v5.183h5.039v-5.183
			H885.564z M912.381,59.901c-1.188,4.392-3.203,7.847-5.831,10.511c2.268,1.584,4.896,2.771,7.883,3.528
			c-0.72,0.647-1.691,2.016-2.16,2.879c-3.131-0.936-5.902-2.34-8.242-4.211c-2.556,1.908-5.472,3.275-8.675,4.211
			c-0.324-0.828-1.152-2.232-1.8-2.952c2.915-0.72,5.615-1.908,7.99-3.527c-1.907-2.052-3.491-4.428-4.679-7.127l2.987-0.936
			c0.972,2.231,2.376,4.283,4.14,6.011c1.764-1.692,3.167-3.708,4.14-6.047h-12.887v-3.06h14.362l0.611-0.108L912.381,59.901z"/>
		<path d="M932.831,62.349c-1.368,0.396-2.735,0.792-4.104,1.188v9.467c0,1.728-0.36,2.627-1.404,3.131s-2.663,0.612-5.111,0.576
			c-0.144-0.792-0.575-2.196-1.008-3.023c1.584,0.036,3.096,0.036,3.527,0c0.54,0,0.721-0.18,0.721-0.684v-8.531
			c-1.404,0.396-2.7,0.756-3.96,1.08l-0.863-3.204c1.367-0.324,3.023-0.72,4.823-1.152v-7.235h-4.428v-3.096h4.428v-7.055h3.275
			v7.019h3.779v3.132h-3.779v6.335l3.707-0.972L932.831,62.349z M952.232,57.958c-1.439,4.968-3.852,8.891-7.02,11.915
			c2.484,1.872,5.436,3.276,8.855,4.176c-0.756,0.648-1.692,1.979-2.16,2.843c-3.635-1.043-6.695-2.664-9.322-4.859
			c-2.88,2.16-6.228,3.744-9.827,4.788c-0.359-0.864-1.188-2.304-1.8-3.023c3.348-0.828,6.479-2.196,9.251-4.068
			c-2.376-2.627-4.212-5.723-5.579-9.323l0.468-0.144h-1.439v-3.06h7.415v-4.931h-8.063v-3.06h8.063v-5.399h3.312v5.399h8.314v3.06
			h-8.314v4.931h5.111l0.575-0.108L952.232,57.958z M937.906,60.261c1.152,2.808,2.735,5.292,4.823,7.415
			c2.231-2.051,4.031-4.535,5.256-7.415H937.906z"/>
		<path d="M960.373,57.418h18.43v3.06h-18.43V57.418z M978.335,50.471h-17.098v-2.916h6.911v-3.563h3.239v3.563h6.947V50.471z
			 M962.641,63.249h14.362v13.462h-3.275v-1.8h-7.991v1.944h-3.096V63.249z M964.801,57.202c-0.145-1.512-0.721-3.852-1.404-5.579
			l2.771-0.612c0.792,1.692,1.368,4.031,1.584,5.507L964.801,57.202z M965.736,66.201v5.795h7.991v-5.795H965.736z M971.531,56.59
			c0.648-1.548,1.404-4.067,1.8-5.759l3.168,0.72c-0.792,2.016-1.584,4.248-2.304,5.724L971.531,56.59z M993.453,47.303
			c-1.404,3.419-3.132,7.559-4.68,10.69c3.312,3.276,4.104,6.083,4.104,8.531c0,2.412-0.54,4.103-1.836,4.967
			c-0.684,0.468-1.476,0.72-2.411,0.864c-0.828,0.108-1.944,0.072-2.952,0.072c-0.036-0.972-0.359-2.375-0.899-3.312
			c0.936,0.072,1.8,0.108,2.447,0.072c0.576-0.036,1.044-0.144,1.439-0.396c0.721-0.432,0.973-1.368,0.973-2.664
			c0-2.088-0.937-4.716-4.248-7.703c1.296-2.808,2.7-6.587,3.708-9.395h-5.724v27.825h-3.275V45.899h10.331l0.539-0.144
			L993.453,47.303z"/>
		<path d="M1005.372,52.415c-0.9,0.972-1.836,1.835-2.735,2.592c-0.612-0.612-1.944-1.656-2.772-2.196
			c3.06-2.124,5.903-5.543,7.56-8.999l3.275,0.936c-0.504,1.044-1.08,2.052-1.728,3.023h22.137v2.952h-3.527v5.399h4.859v3.023
			h-4.859v5.399h4.355v3.023h-30.92v-3.023h4.355v-5.399h-4.896v-3.023h4.896V52.415z M1000.152,75.56
			c1.764-1.476,3.384-4.211,4.248-6.803l3.239,0.792c-0.899,2.7-2.447,5.543-4.319,7.343L1000.152,75.56z M1008.396,56.122h3.348
			v-5.399h-3.348V56.122z M1008.396,64.545h3.348v-5.399h-3.348V64.545z M1013.795,69.476c0.468,2.124,0.864,4.896,0.899,6.551
			l-3.275,0.468c0-1.692-0.288-4.536-0.72-6.695L1013.795,69.476z M1018.042,56.122v-5.399h-3.491v5.399H1018.042z M1014.551,59.146
			v5.399h3.491v-5.399H1014.551z M1021.03,69.333c0.936,2.052,1.871,4.823,2.195,6.551l-3.312,0.648
			c-0.288-1.728-1.116-4.535-2.016-6.695L1021.03,69.333z M1024.449,50.723h-3.563v5.399h3.563V50.723z M1024.449,59.146h-3.563
			v5.399h3.563V59.146z M1028.229,68.612c1.728,2.16,3.815,5.147,4.751,7.091l-3.384,1.188c-0.863-1.908-2.808-5.003-4.535-7.271
			L1028.229,68.612z"/>
		<path d="M1057.571,57.418c-0.072,0.792-0.108,1.583-0.181,2.339c1.404,8.675,5.111,13.031,15.37,14.074
			c-0.72,0.756-1.548,2.196-1.943,3.168c-8.351-1.26-12.526-4.428-14.83-10.403c-1.8,4.896-5.651,8.351-14.542,10.259
			c-0.324-0.864-1.152-2.268-1.872-3.024c12.599-2.447,13.714-7.847,14.29-16.414H1057.571z M1048.932,60.297
			c-1.079,2.88-2.663,5.867-5.291,7.775l-2.771-1.872c2.411-1.656,4.176-4.355,5.147-7.091L1048.932,60.297z M1046.988,57.562
			c-1.116-1.908-3.384-4.68-5.795-7.163c1.943-2.196,4.031-4.86,5.147-6.587l3.419,0.9c-1.367,1.944-3.132,3.923-4.644,5.615
			c1.98,1.944,4.067,4.355,5.111,5.939L1046.988,57.562z M1057.139,57.094c-1.151-1.835-3.527-4.535-6.047-6.911
			c2.052-2.087,4.176-4.679,5.399-6.371l3.419,0.9c-1.439,1.872-3.239,3.779-4.787,5.435c1.979,1.836,4.14,4.14,5.256,5.651
			L1057.139,57.094z M1067.649,57.706c-1.296-1.943-3.959-4.751-6.803-7.235c2.231-2.196,4.644-4.896,5.939-6.659l3.419,1.008
			c-1.548,1.908-3.527,3.888-5.219,5.58c2.268,1.908,4.607,4.319,5.903,5.939L1067.649,57.706z M1062.358,66.668
			c1.548-1.979,3.384-5.111,4.464-7.451l3.599,0.972c-1.583,2.664-3.527,5.579-5.075,7.451L1062.358,66.668z"/>
		<path d="M1111.497,62.025v2.735h-31.641v-2.735h13.967v-2.232h-10.475v-2.556h10.475v-2.016h-9.107V52.63h9.107v-2.268h3.384
			v2.268h9.467v2.592h-9.467v2.016h11.014v2.556h-11.014v2.232H1111.497z M1084.068,53.89h-3.312v-6.731h13.066v-3.348h3.419v3.348
			h13.354v6.731h-3.419v-3.815h-23.109V53.89z M1084.86,66.561h21.957v10.187h-3.348v-0.972h-15.406v1.08h-3.203V66.561z
			 M1088.063,69.26v3.815h15.406V69.26H1088.063z"/>
		<path d="M1118.664,49.751h14.362v2.664h-14.362V49.751z M1131.551,74.875h-8.314v1.512h-2.952V64.293h11.267V74.875z
			 M1120.356,54.646h11.303v2.592h-11.303V54.646z M1120.356,59.434h11.303v2.627h-11.303V59.434z M1131.767,47.627h-11.194V45
			h11.194V47.627z M1123.236,66.993v5.183h5.327v-5.183H1123.236z M1146.453,73.328c1.8,0,2.052-0.9,2.304-5.651
			c0.756,0.576,2.195,1.152,3.132,1.368c-0.469,5.795-1.44,7.451-5.22,7.451h-6.623c-3.96,0-5.22-1.008-5.22-4.896V57.274h11.807
			v-8.351h-12.059v-3.204h15.406v16.63h-3.348v-1.872h-8.423V71.6c0,1.44,0.36,1.728,2.195,1.728H1146.453z"/>
		<path d="M1179.538,69.548c-2.195,1.692-4.571,3.419-6.659,4.859l-0.863-1.512l0.036,0.288c-4.5,0.972-9.215,1.98-12.814,2.7
			l-0.685-3.06c1.584-0.252,3.527-0.612,5.651-1.008V61.665h-5.255V58.75h5.255v-3.275h-3.455V53.89
			c-0.36,0.324-0.721,0.684-1.116,1.044c-0.432-0.684-1.439-1.692-2.052-2.124c3.132-2.664,5.363-6.191,6.516-8.999h2.843
			c2.124,1.836,4.752,4.5,6.012,6.299l-2.16,2.52h0.288v2.844h-3.959v3.275h4.859v2.916h-4.859v9.611l4.679-0.9l0.072,0.972
			c1.8-1.116,4.212-2.7,6.659-4.319L1179.538,69.548z M1161.757,63.285c0.684,2.124,1.26,4.751,1.403,6.515l-2.375,0.612
			c-0.072-1.764-0.612-4.5-1.225-6.551L1161.757,63.285z M1170.72,52.63c-1.008-1.548-2.952-3.959-4.752-5.688
			c-1.008,1.728-2.34,3.744-4.067,5.688H1170.72z M1168.02,69.188c0.54-1.692,1.152-4.392,1.404-6.191l2.52,0.648
			c-0.612,2.088-1.26,4.5-1.8,6.119L1168.02,69.188z M1185.046,64.797c1.512,2.916,3.743,5.651,6.911,7.271
			c-0.648,0.612-1.692,1.908-2.16,2.736c-3.132-1.944-5.327-5.111-6.803-8.207v6.911c0,1.512-0.216,2.34-1.188,2.844
			c-0.936,0.468-2.339,0.504-4.283,0.504c-0.072-0.828-0.468-2.088-0.828-2.916c1.188,0.036,2.34,0.036,2.7,0.036
			c0.396-0.036,0.504-0.144,0.504-0.54V58.57h-7.739v-2.88h13.175v-2.556h-10.619v-2.627h10.619v-2.556h-11.339v-2.808h14.435V55.69
			h2.808v2.88h-8.243v0.9c0.432,1.548,1.008,3.239,1.8,4.859c1.296-1.296,2.879-3.312,3.779-4.751l2.628,1.656
			c-1.44,1.692-3.132,3.492-4.464,4.715L1185.046,64.797z M1174.931,60.153c1.476,1.368,3.132,3.312,3.852,4.644l-2.411,1.62
			c-0.648-1.368-2.232-3.383-3.672-4.823L1174.931,60.153z"/>
	</g>
	<path fill="#111111" d="M1259.787,169.655c0,5.5-4.5,10-10,10H889.625c-5.5,0-10-4.5-10-10v-70c0-5.5,4.5-10,10-10h360.162
		c5.5,0,10,4.5,10,10V169.655z"/>
	<path fill="none" stroke="#404040" stroke-width="4" d="M1253.787,163.655c0,5.5-4.5,10-10,10H895.625c-5.5,0-10-4.5-10-10v-58
		c0-5.5,4.5-10,10-10h348.162c5.5,0,10,4.5,10,10V163.655z"/>
	<g>
		<g>
			<path fill="#FFFFFF" d="M1233.074,115.805v40.275h-4.753v-2.928h-22.609v3.12h-4.561v-40.467H1233.074z M1205.712,120.317v11.713
				h22.609v-11.713H1205.712z M1228.321,148.64v-12.193h-22.609v12.193H1228.321z"/>
		</g>
	</g>
	<g>
		<g>
			<g>
				<path fill="#DD0000" d="M87.677,579.434c-0.719,0-1.301,0.582-1.301,1.301c0,0.72,0.582,1.301,1.301,1.301h5.531
					c0.718,0,1.3-0.581,1.3-1.301c0-0.719-0.582-1.301-1.3-1.301H87.677z"/>
			</g>
			<g>
				<path fill="#DD0000" d="M87.677,573.578c-0.719,0-1.301,0.581-1.301,1.301c0,0.719,0.582,1.301,1.301,1.301h8.133
					c0.719,0,1.301-0.582,1.301-1.301c0-0.72-0.582-1.301-1.301-1.301H87.677z"/>
			</g>
			<g>
				<path fill="#DD0000" d="M87.677,585.29c-0.719,0-1.301,0.581-1.301,1.301c0,0.721,0.582,1.3,1.301,1.3h5.531
					c0.718,0,1.3-0.579,1.3-1.3c0-0.72-0.582-1.301-1.3-1.301H87.677z"/>
			</g>
			<g>
				<path fill="#00AADD" d="M87.677,591.146c-0.719,0-1.301,0.581-1.301,1.301c0,0.721,0.582,1.301,1.301,1.301h8.133
					c0.719,0,1.301-0.58,1.301-1.301c0-0.72-0.582-1.301-1.301-1.301H87.677z"/>
			</g>
			<g>
				<path fill="#00AADD" d="M87.677,597.001c-0.719,0-1.301,0.581-1.301,1.302s0.582,1.301,1.301,1.301h5.531
					c0.718,0,1.3-0.58,1.3-1.301s-0.582-1.302-1.3-1.302H87.677z"/>
			</g>
			<g>
				<path fill="#00AADD" d="M87.677,602.856c-0.719,0-1.301,0.583-1.301,1.302s0.582,1.301,1.301,1.301h5.531
					c0.718,0,1.3-0.582,1.3-1.301s-0.582-1.302-1.3-1.302H87.677z"/>
			</g>
			<g>
				<path fill="#00AADD" d="M87.677,608.713c-0.719,0-1.301,0.582-1.301,1.302c0,0.719,0.582,1.301,1.301,1.301h8.133
					c0.719,0,1.301-0.582,1.301-1.301c0-0.72-0.582-1.302-1.301-1.302H87.677z"/>
			</g>
			<path fill="none" enable-background="new    " d="M84.912,612.499v-36.541c0-3.681-2.985-6.669-6.668-6.669
				c-3.684,0-6.669,2.988-6.669,6.669v36.541c-4.453,2.383-7.483,7.076-7.483,12.479c0,7.814,6.336,14.152,14.152,14.152
				s14.151-6.338,14.151-14.152C92.395,619.575,89.364,614.882,84.912,612.499z"/>
			<path fill="none" stroke="#FFFFFF" stroke-width="2.6026" d="M69.622,575.958c0,0,0,33.72,0,35.565
				c-4.595,2.951-7.482,7.939-7.482,13.455c0,8.878,7.223,16.104,16.104,16.104c8.879,0,16.103-7.226,16.103-16.104
				c0-5.516-2.887-10.504-7.482-13.455c0-1.846,0-35.565,0-35.565c0-4.754-3.867-8.621-8.62-8.621
				C73.489,567.337,69.622,571.204,69.622,575.958z"/>
			<path fill="#DD0000" d="M67.344,624.979c0-4.023,2.209-7.708,5.765-9.611l1.718-0.92v-26.086c0-1.885,1.532-3.416,3.416-3.416
				c1.883,0,3.416,1.531,3.416,3.416v26.086l1.718,0.92c3.556,1.903,5.765,5.588,5.765,9.611c0,6.01-4.889,10.897-10.898,10.897
				C72.233,635.876,67.344,630.988,67.344,624.979z"/>
		</g>
		<g>
			<path d="M58.677,660.783c-0.96-0.792-2.88-1.896-4.417-2.568l1.152-1.608c1.488,0.576,3.48,1.608,4.464,2.353L58.677,660.783z
				 M60.622,663.831c-1.152,2.497-2.616,5.353-3.913,7.609l-1.92-1.345c1.176-1.848,2.904-4.896,4.152-7.608L60.622,663.831z
				 M60.021,654.326c-0.912-0.792-2.833-1.896-4.32-2.567l1.2-1.585c1.464,0.576,3.433,1.608,4.393,2.377L60.021,654.326z
				 M76.367,669.256v1.944H59.661v-1.944h1.944v-7.32h13.249v7.32H76.367z M74.039,660.159H62.374v-9.265h11.665V660.159z
				 M63.598,669.256h1.896v-5.425h-1.896V669.256z M71.854,652.742h-7.369v1.896h7.369V652.742z M71.854,656.391h-7.369v1.92h7.369
				V656.391z M67.198,663.831v5.425h1.92v-5.425H67.198z M70.822,663.831v5.425h1.92v-5.425H70.822z"/>
			<path d="M82.341,658.887c0,3.769-0.336,9.337-2.424,12.985c-0.408-0.36-1.344-1.008-1.824-1.224
				c1.944-3.408,2.112-8.281,2.112-11.762v-6.769h8.641v-2.256h2.328v2.256h8.737v1.992H82.341V658.887z M98.303,664.096
				c-1.008,1.992-2.568,3.504-4.464,4.656c1.92,0.624,4.128,1.032,6.504,1.272c-0.456,0.456-1.032,1.344-1.296,1.92
				c-2.833-0.36-5.401-1.008-7.609-1.992c-2.424,1.008-5.232,1.608-8.161,1.968c-0.168-0.552-0.576-1.416-0.936-1.872
				c2.424-0.24,4.776-0.647,6.865-1.32c-1.32-0.863-2.424-1.896-3.313-3.096l1.08-0.408h-3.672v-1.8h13.225l0.408-0.072
				L98.303,664.096z M86.589,662.176v-3.841h-3.552v-1.824h3.552v-1.824h2.112v1.824h5.185v-1.824h2.184v1.824h3.672v1.824H96.07
				v3.841H86.589z M88.03,665.224c0.864,1.032,2.04,1.896,3.48,2.592c1.417-0.695,2.641-1.536,3.553-2.592H88.03z M88.702,658.335
				v2.112h5.185v-2.112H88.702z"/>
		</g>
	</g>
	<g>
		<g>
			<g>
				<path stroke="#000000" stroke-width="1.1767" d="M65.76,704.869v5.049c0,0.324,0.263,0.589,0.588,0.589
					c0.326,0,0.588-0.265,0.588-0.589v-5.049c0-0.326-0.263-0.589-0.588-0.589C66.023,704.28,65.76,704.543,65.76,704.869z"/>
			</g>
			<g>
				<path stroke="#000000" stroke-width="1.1767" d="M48.936,710.632c-0.249,0.21-0.282,0.58-0.073,0.83l3.246,3.868
					c0.208,0.248,0.579,0.281,0.829,0.071c0.249-0.208,0.281-0.578,0.072-0.828l-3.244-3.868
					C49.556,710.456,49.184,710.424,48.936,710.632z"/>
			</g>
			<g>
				<path stroke="#000000" stroke-width="1.1767" d="M39.66,726.678c-0.057,0.319,0.157,0.625,0.477,0.683l4.974,0.877
					c0.319,0.056,0.624-0.158,0.681-0.477c0.057-0.319-0.156-0.625-0.477-0.682l-4.973-0.878
					C40.021,726.146,39.716,726.358,39.66,726.678z"/>
			</g>
			<g>
				<path stroke="#000000" stroke-width="1.1767" d="M47.472,741.603l-4.372,2.523c-0.282,0.163-0.378,0.521-0.216,0.804
					c0.163,0.281,0.522,0.377,0.805,0.216l4.372-2.523c0.282-0.164,0.378-0.522,0.216-0.806
					C48.114,741.536,47.754,741.439,47.472,741.603z"/>
			</g>
			<g>
				<path stroke="#000000" stroke-width="1.1767" d="M82.933,710.705l-3.245,3.868c-0.209,0.25-0.176,0.62,0.072,0.828
					c0.249,0.21,0.62,0.177,0.829-0.071l3.245-3.868c0.21-0.25,0.177-0.622-0.072-0.83S83.141,710.456,82.933,710.705z"/>
			</g>
			<linearGradient id="SVGID_2_" gradientUnits="userSpaceOnUse" x1="42.498" y1="730.625" x2="76.9167" y2="710.7681">
				<stop  offset="0" style="stop-color:#FFFFFF"/>
				<stop  offset="1" style="stop-color:#00AADD"/>
			</linearGradient>
			<path fill="url(#SVGID_2_)" d="M37.519,731.383c0-15.896,12.932-28.828,28.829-28.828c14.188,0,26.008,10.307,28.385,23.824
				l9.27-1.636c-3.154-17.93-18.833-31.603-37.654-31.603c-21.088,0-38.243,17.156-38.243,38.242
				c0,11.741,5.322,22.259,13.674,29.278l6.048-7.205C41.531,748.162,37.519,740.234,37.519,731.383z"/>
			<circle cx="66.333" cy="731.45" r="2.059"/>
			<g>
				<line enable-background="new    " x1="54.591" y1="717.456" x2="66.645" y2="731.822"/>
				<path d="M54.212,717.005c-0.248,0.21-0.281,0.58-0.072,0.83L66.194,732.2c0.209,0.25,0.58,0.282,0.829,0.073
					c0.248-0.209,0.282-0.58,0.072-0.828l-12.053-14.367C54.833,716.829,54.462,716.797,54.212,717.005z"/>
			</g>
			<path fill="#00AADD" stroke="#FFFFFF" stroke-width="2.3534" d="M123.833,744.17c0,8.449-6.848,15.299-15.297,15.299
				c-8.448,0-15.297-6.85-15.297-15.299c0-8.447,15.297-26.899,15.297-26.899S123.833,735.723,123.833,744.17z"/>
		</g>
		<g>
			<path d="M57.13,774.53c-0.864-0.816-2.736-1.944-4.201-2.641l1.248-1.608c1.44,0.625,3.336,1.633,4.249,2.473L57.13,774.53z
				 M58.762,777.746c-0.96,2.496-2.184,5.353-3.312,7.585l-1.968-1.272c1.008-1.848,2.472-4.896,3.528-7.608L58.762,777.746z
				 M58.354,768.289c-0.84-0.815-2.641-1.896-4.104-2.544l1.224-1.632c1.464,0.576,3.288,1.584,4.2,2.376L58.354,768.289z
				 M74.988,783.219v1.944H58.378v-1.944h5.544v-8.305h2.064v8.305h2.016v-8.305h2.064v8.305H74.988z M61.546,782.283
				c-0.24-1.513-1.056-3.816-1.968-5.521l1.8-0.624c0.96,1.68,1.824,3.936,2.112,5.424L61.546,782.283z M73.379,774.242H60.707
				v-9.409h12.673V774.242z M71.171,766.682h-8.353v1.968h8.353V766.682z M71.171,770.401h-8.353v1.992h8.353V770.401z
				 M70.355,781.635c0.744-1.512,1.68-3.912,2.184-5.616l2.136,0.624c-0.816,1.92-1.848,4.176-2.688,5.592L70.355,781.635z"/>
			<path d="M81.01,772.85c0,3.769-0.336,9.337-2.424,12.985c-0.408-0.36-1.344-1.008-1.824-1.224
				c1.944-3.408,2.112-8.281,2.112-11.762v-6.769h8.641v-2.256h2.328v2.256h8.737v1.992H81.01V772.85z M96.972,778.059
				c-1.008,1.992-2.568,3.504-4.464,4.656c1.92,0.624,4.128,1.032,6.504,1.272c-0.456,0.456-1.032,1.344-1.296,1.92
				c-2.833-0.36-5.401-1.008-7.609-1.992c-2.424,1.008-5.232,1.608-8.161,1.968c-0.168-0.552-0.576-1.416-0.936-1.872
				c2.424-0.24,4.776-0.647,6.865-1.32c-1.32-0.863-2.424-1.896-3.313-3.096l1.08-0.408H81.97v-1.8h13.225l0.408-0.072
				L96.972,778.059z M85.258,776.139v-3.841h-3.552v-1.824h3.552v-1.824h2.112v1.824h5.185v-1.824h2.184v1.824h3.672v1.824h-3.672
				v3.841H85.258z M86.699,779.187c0.864,1.032,2.04,1.896,3.48,2.592c1.417-0.695,2.641-1.536,3.553-2.592H86.699z M87.371,772.298
				v2.112h5.185v-2.112H87.371z"/>
		</g>
	</g>
	<g>
		<g>
			<ellipse fill="#FFBF00" stroke="#FFFFFF" stroke-width="2.3534" cx="51.427" cy="976.911" rx="5.135" ry="18.111"/>
			<path fill="#FFFFFF" stroke="#FFFFFF" stroke-width="2.3534" d="M101.511,961.406l-24.433-1.271
				c1.878,2.691,3.204,9.184,3.204,16.776c0,7.592-1.326,14.083-3.204,16.776l24.433-1.274c1.491-3.167,2.491-8.917,2.491-15.502
				C104.001,970.324,103.002,964.575,101.511,961.406z"/>
			<path fill="#FFBF00" stroke="#FFFFFF" stroke-width="2.3534" d="M77.078,960.135l-25.65-1.336c2.835,0,5.134,8.109,5.134,18.112
				s-2.299,18.111-5.134,18.111l25.65-1.335c1.878-2.693,3.204-9.185,3.204-16.776C80.282,969.318,78.956,962.826,77.078,960.135z"
				/>
			<path fill="#FFBF00" stroke="#FFFFFF" stroke-width="2.3534" d="M117.694,962.249l-16.184-0.843
				c1.491,3.169,2.491,8.918,2.491,15.505c0,6.585-1,12.335-2.491,15.502l16.184-0.841c2.297,0,4.157-6.564,4.157-14.661
				C121.852,968.813,119.991,962.249,117.694,962.249z"/>
			
				<line fill="none" stroke="#000000" stroke-width="2.3534" stroke-linecap="round" x1="37.614" y1="946.536" x2="37.614" y2="1007.097"/>
			<path fill="none" stroke="#000000" stroke-width="2.3534" stroke-linecap="round" stroke-dasharray="0,4.5279" d="
				M50.798,994.999c-3.378,3.657-7.791,5.872-12.618,5.872"/>
			<path fill="none" stroke="#000000" stroke-width="2.3534" stroke-linecap="round" stroke-dasharray="0,4.5279" d="M38.181,952.95
				c5.084,0,9.707,2.456,13.147,6.464"/>
			<circle fill="#FFFFFF" stroke="#000000" stroke-width="2.3534" cx="37.614" cy="946.536" r="5.094"/>
		</g>
		<g>
			<path d="M73.493,1015.144c-0.072,9.097-0.048,18.481,1.248,18.481c0.264,0,0.408-1.513,0.432-3.553
				c0.36,0.624,0.912,1.32,1.296,1.704c-0.192,2.977-0.625,4.249-1.968,4.249c-3.145,0-3.168-8.521-3.216-18.818H58.899v5.856
				c0,3.937-0.384,9.434-3.048,13.01c-0.384-0.384-1.296-0.984-1.824-1.225c2.521-3.336,2.736-8.16,2.736-11.785v-7.92H73.493z
				 M69.101,1029.4c1.128,1.608,2.208,3.816,2.568,5.257l-1.824,0.647c-0.12-0.504-0.312-1.104-0.576-1.752
				c-3.769,0.288-7.633,0.576-10.369,0.792l-0.168-2.016c1.44-0.072,3.264-0.168,5.256-0.313v-2.952h-3.96v-6.696h3.96v-1.824
				c-1.368,0.144-2.736,0.216-4.032,0.288c-0.072-0.456-0.312-1.248-0.552-1.656c3.409-0.24,7.393-0.672,9.625-1.296l1.512,1.607
				c-1.296,0.36-2.904,0.624-4.608,0.841v2.04h4.081v6.696h-4.081v2.832l2.496-0.144c-0.336-0.624-0.696-1.248-1.056-1.801
				L69.101,1029.4z M63.988,1027.336v-3.216H61.78v3.216H63.988z M65.932,1024.12v3.216h2.232v-3.216H65.932z"/>
			<path d="M83.691,1030.889c1.056,1.656,3.024,2.424,5.665,2.521c2.665,0.096,7.993,0.023,10.993-0.168
				c-0.264,0.527-0.624,1.584-0.744,2.28c-2.712,0.119-7.537,0.168-10.273,0.048c-3.048-0.12-5.112-0.912-6.625-2.761
				c-1.128,0.984-2.28,1.944-3.528,2.977l-1.152-2.305c1.081-0.672,2.353-1.56,3.48-2.472v-5.641h-3.072v-2.064h5.256V1030.889z
				 M82.587,1019.68c-0.768-1.128-2.496-2.736-4.008-3.792l1.656-1.345c1.488,1.032,3.288,2.521,4.104,3.673L82.587,1019.68z
				 M91.06,1027.48c-1.416,1.896-3.36,3.624-5.256,4.584c-0.312-0.527-0.96-1.296-1.44-1.704c2.088-0.864,4.272-2.568,5.616-4.393
				h-4.176v-6.096h5.256v-1.704h-6.145v-1.873h6.145v-2.279h2.185v2.279h6.528v1.873h-6.528v1.704h5.568v6.096h-4.705
				c1.464,1.753,3.84,3.409,5.88,4.272c-0.504,0.433-1.176,1.225-1.512,1.776c-1.776-0.96-3.745-2.64-5.232-4.416v5.04H91.06
				V1027.48z M87.844,1024.216h3.216v-2.616h-3.216V1024.216z M93.245,1021.6v2.616h3.408v-2.616H93.245z"/>
		</g>
	</g>
	<g>
		<g>
			<g>
				<path d="M289.44,614.708c0-2.911,2.144-4.831,4.735-4.831s4.768,1.92,4.768,4.831c0,2.848-2.176,4.768-4.768,4.768
					S289.44,617.556,289.44,614.708z M296.831,614.708c0-1.695-1.088-2.848-2.656-2.848c-1.536,0-2.592,1.152-2.592,2.848
					c0,1.664,1.056,2.816,2.592,2.816C295.743,617.524,296.831,616.372,296.831,614.708z M301.247,622.836
					c0-7.712,4.704-12.287,10.751-12.287c2.848,0,5.184,1.439,6.624,2.943l-2.112,2.4c-1.216-1.28-2.592-2.017-4.448-2.017
					c-4.096,0-6.911,3.36-6.911,8.832c0,5.535,2.624,8.959,6.783,8.959c2.144,0,3.68-0.896,5.056-2.432l2.144,2.336
					c-1.92,2.208-4.32,3.424-7.264,3.424C305.823,634.995,301.247,630.579,301.247,622.836z"/>
			</g>
		</g>
		<path fill="#FFFFFF" d="M271.898,652c0,5.5-4.5,10-10,10h-118c-5.5,0-10-4.5-10-10v-60c0-5.5,4.5-10,10-10h118c5.5,0,10,4.5,10,10
			V652z"/>
	</g>
	<g>
		<g>
			<g>
				<path d="M290.272,726.916c0-4.703,2.24-7.423,5.535-7.423c3.328,0,5.536,2.72,5.536,7.423c0,4.769-2.208,7.52-5.536,7.52
					C292.512,734.436,290.272,731.685,290.272,726.916z M298.655,726.916c0-3.615-1.152-5.247-2.848-5.247
					c-1.632,0-2.815,1.632-2.815,5.247c0,3.648,1.184,5.313,2.815,5.313C297.503,732.229,298.655,730.564,298.655,726.916z
					 M309.502,719.493h2.336l-12.959,24.51h-2.335L309.502,719.493z M307.039,736.483c0-4.735,2.272-7.423,5.567-7.423
					c3.296,0,5.536,2.688,5.536,7.423c0,4.768-2.24,7.52-5.536,7.52C309.311,744.003,307.039,741.251,307.039,736.483z
					 M315.454,736.483c0-3.647-1.184-5.247-2.848-5.247c-1.664,0-2.848,1.6-2.848,5.247c0,3.648,1.184,5.312,2.848,5.312
					C314.27,741.795,315.454,740.132,315.454,736.483z"/>
			</g>
		</g>
		<path fill="#FFFFFF" d="M271.898,760.639c0,5.5-4.5,10-10,10h-118c-5.5,0-10-4.5-10-10v-60c0-5.5,4.5-10,10-10h118
			c5.5,0,10,4.5,10,10V760.639z"/>
	</g>
	<g>
		<path d="M281.984,989.517h3.008l0.288,2.464h0.096c1.504-1.6,3.264-2.912,5.439-2.912c2.624,0,4.096,1.216,4.864,3.232
			c1.728-1.856,3.52-3.232,5.728-3.232c3.68,0,5.407,2.496,5.407,6.976v11.071h-3.68v-10.623c0-3.04-0.96-4.256-2.944-4.256
			c-1.216,0-2.496,0.8-3.967,2.399v12.479h-3.68v-10.623c0-3.04-0.928-4.256-2.944-4.256c-1.184,0-2.496,0.8-3.968,2.399v12.479
			h-3.648V989.517z"/>
		<path d="M318.623,981.581h2.56l-8.896,31.294h-2.56L318.623,981.581z"/>
		<path d="M322.751,1005.1l1.728-2.368c1.568,1.248,3.104,2.016,4.992,2.016c2.112,0,3.104-1.023,3.104-2.367
			c0-1.601-1.984-2.304-3.904-3.04c-2.336-0.896-5.024-2.144-5.024-5.12c0-2.943,2.368-5.151,6.24-5.151
			c2.368,0,4.288,0.96,5.728,2.08l-1.728,2.271c-1.216-0.896-2.464-1.535-3.936-1.535c-1.92,0-2.816,0.96-2.816,2.176
			c0,1.504,1.824,2.079,3.744,2.783c2.464,0.928,5.184,2.016,5.184,5.344c0,2.944-2.335,5.344-6.688,5.344
			C326.943,1007.531,324.448,1006.507,322.751,1005.1z"/>
	</g>
	<path fill="#FFFFFF" d="M271.898,1025c0,5.5-4.5,10-10,10h-118c-5.5,0-10-4.5-10-10v-60c0-5.5,4.5-10,10-10h118c5.5,0,10,4.5,10,10
		V1025z"/>
	<g>
		<path d="M41.601,834.317h2.88l1.656,9.193l0.936,5.664h0.096c0.384-1.896,0.792-3.792,1.2-5.664l2.28-9.193h2.448l2.304,9.193
			c0.408,1.848,0.792,3.744,1.2,5.664h0.12c0.288-1.92,0.6-3.816,0.888-5.664l1.68-9.193h2.664l-3.48,17.666h-3.432l-2.376-9.816
			c-0.312-1.393-0.576-2.713-0.816-4.057h-0.12c-0.24,1.344-0.528,2.664-0.816,4.057l-2.328,9.816h-3.36L41.601,834.317z"/>
		<path d="M64.857,834.317h5.473c3.624,0,6.24,1.152,6.24,4.345c0,1.681-0.936,3.288-2.52,3.816v0.12c2.016,0.432,3.48,1.8,3.48,4.2
			c0,3.505-2.856,5.185-6.769,5.185h-5.905V834.317z M70.018,841.687c2.688,0,3.816-1.008,3.816-2.664
			c0-1.849-1.249-2.544-3.745-2.544h-2.448v5.208H70.018z M70.45,849.799c2.76,0,4.344-0.983,4.344-3.144
			c0-1.992-1.536-2.856-4.344-2.856h-2.809v6H70.45z"/>
		<path d="M79.905,843.198c0-5.76,3.552-9.217,8.233-9.217c2.496,0,4.176,1.104,5.256,2.232l-1.512,1.776
			c-0.864-0.888-1.944-1.584-3.648-1.584c-3.288,0-5.473,2.544-5.473,6.696c0,4.2,1.944,6.769,5.593,6.769
			c1.08,0,2.16-0.312,2.784-0.864v-4.152h-3.504v-2.28h6.024v7.657c-1.176,1.176-3.168,2.064-5.592,2.064
			C83.337,852.296,79.905,848.983,79.905,843.198z"/>
		<path d="M101.289,836.646h-5.185v-2.329h13.177v2.329h-5.208v15.337h-2.784V836.646z"/>
	</g>
	<g>
		<g>
			<g>
				<path d="M289.44,832.708c0-2.911,2.144-4.831,4.735-4.831s4.768,1.92,4.768,4.831c0,2.848-2.176,4.768-4.768,4.768
					S289.44,835.556,289.44,832.708z M296.831,832.708c0-1.695-1.088-2.848-2.656-2.848c-1.536,0-2.592,1.152-2.592,2.848
					c0,1.664,1.056,2.816,2.592,2.816C295.743,835.524,296.831,834.372,296.831,832.708z M301.247,840.836
					c0-7.712,4.704-12.287,10.751-12.287c2.848,0,5.184,1.439,6.624,2.943l-2.112,2.4c-1.216-1.28-2.592-2.017-4.448-2.017
					c-4.096,0-6.911,3.36-6.911,8.832c0,5.535,2.624,8.959,6.783,8.959c2.144,0,3.68-0.896,5.056-2.432l2.144,2.336
					c-1.92,2.208-4.32,3.424-7.264,3.424C305.823,852.995,301.247,848.579,301.247,840.836z"/>
			</g>
		</g>
		<path fill="#FFFFFF" d="M271.898,870c0,5.5-4.5,10-10,10h-118c-5.5,0-10-4.5-10-10v-60c0-5.5,4.5-10,10-10h118c5.5,0,10,4.5,10,10
			V870z"/>
	</g>
	<rect x="344.301" y="800" fill="#DD0000" width="80" height="80"/>
	<g>
		<path fill="#FFFFFF" d="M360.348,834.22v4.344c0,6.136-1.787,10.933-5.359,14.391l-1.5-1.281c1.479-1.583,2.617-3.523,3.414-5.82
			s1.195-4.705,1.195-7.227v-5.297c-1.292,1.104-2.662,2.131-4.109,3.078l-1.219-1.438c1.958-1.313,3.872-2.939,5.742-4.883
			c1.87-1.942,3.32-3.961,4.352-6.055l2.453,0.563c-0.375,0.698-0.75,1.339-1.125,1.922h10l0.813,0.656
			c-0.844,1.459-2.078,3.167-3.703,5.125h11.281v1.922H360.348z M359.27,832.298h9.594c0.917-1.208,1.797-2.563,2.641-4.063h-8.547
			C361.821,829.726,360.592,831.079,359.27,832.298z M363.848,837.126h15.5v6.656c0,1.698-0.99,2.547-2.969,2.547h-3.5l-0.297-2.031
			h3.109c0.885,0,1.328-0.38,1.328-1.141v-4.234h-10.797v10.375c0,0.698,0.445,1.131,1.336,1.297c0.891,0.167,2.731,0.25,5.523,0.25
			c1.667,0,3.06-0.039,4.18-0.117c1.12-0.078,1.856-0.195,2.211-0.352c0.354-0.156,0.627-0.43,0.82-0.82
			c0.192-0.391,0.289-1.466,0.289-3.227l2.125,0.25v3.406c0,0.781-0.227,1.393-0.68,1.836c-0.453,0.442-1.18,0.719-2.18,0.828
			s-3.177,0.164-6.531,0.164c-1.99,0-3.664-0.031-5.023-0.094s-2.294-0.172-2.805-0.328c-0.511-0.156-0.912-0.44-1.203-0.852
			c-0.292-0.412-0.438-0.939-0.438-1.586V837.126z"/>
		<path fill="#FFFFFF" d="M392.457,834.657c0.302,0.417,0.727,1.107,1.273,2.07c0.547,0.964,0.911,1.844,1.094,2.641
			c0.182,0.797,0.273,1.498,0.273,2.102v0.078c0,1.292-0.175,2.373-0.523,3.242c-0.349,0.87-0.852,1.5-1.508,1.891
			s-1.568,0.586-2.734,0.586h-0.625l-0.391-2.031c0.667,0,1.271-0.023,1.813-0.07c0.542-0.047,0.963-0.364,1.266-0.953
			c0.302-0.588,0.453-1.455,0.453-2.602c0-2.239-0.818-4.416-2.453-6.531v-0.031c0-0.031-0.016-0.114-0.047-0.25
			c-0.031-0.125-0.047-0.203-0.047-0.234c0.385-0.916,0.856-2.263,1.414-4.039c0.557-1.775,0.836-2.867,0.836-3.273h-3.781v25.781
			h-2.219v-27.516h8.313l0.453,0.625c-0.24,1.042-0.69,2.576-1.352,4.602C393.303,832.77,392.801,834.074,392.457,834.657z
			 M403.645,836.517v-3.125h-3.781v-1.625c-1.386,1.167-2.755,2.109-4.109,2.828l-1.156-1.5c3.864-2.25,6.729-5.099,8.594-8.547
			h2.875c0.844,1.448,2.148,2.922,3.914,4.422s3.659,2.688,5.68,3.563l-1.281,1.734c-4.271-2.072-7.458-4.729-9.563-7.969
			c-1.25,1.906-2.87,3.703-4.859,5.391h9.922v1.703h-3.875v3.125h6.781v7.875h-6.141c0.781,1.428,1.969,2.753,3.563,3.977
			c1.594,1.225,3.313,2.139,5.156,2.742l-1.172,1.797c-2.031-0.667-3.875-1.672-5.531-3.016s-2.917-2.864-3.781-4.563
			c-1.708,3.813-5.058,6.391-10.047,7.734l-0.813-1.688c2.333-0.656,4.26-1.625,5.781-2.906c1.521-1.281,2.594-2.641,3.219-4.078
			h-5.672v-7.875H403.645z M403.645,838.188h-4.141v4.531h4.141V838.188z M410.473,838.188h-4.469v4.531h4.469V838.188z"/>
	</g>
	<rect x="344.301" y="952.413" fill="#DD0000" width="80" height="80"/>
	<g>
		<path fill="#FFFFFF" d="M360.191,997.195c-2.188,1.063-4.433,1.933-6.734,2.609l-0.75-1.609c2.239-0.697,4.028-1.346,5.367-1.945
			c1.338-0.599,2.669-1.33,3.992-2.195h-8.484v-1.734h7.281v-2.219h-5.906v-1.656h5.906v-2.156h-4.531v-8.391h23.531v8.391h-4.875
			v2.156h6.078v1.656h-6.078v2.219h7.813v1.734h-9.141c1.031,0.646,2.661,1.386,4.891,2.219c2.229,0.834,3.917,1.365,5.063,1.594
			l-1.141,1.906c-2.271-0.677-4.37-1.469-6.297-2.375l-2.188,2.141l-1.828-0.906l2.125-2.188c-1.261-0.697-2.412-1.494-3.453-2.391
			h-5.719c-0.875,0.781-1.906,1.511-3.094,2.188l1.906,2.391l-1.984,0.906L360.191,997.195z M355.285,1004.539l-0.563-1.828
			c1.063-0.177,2.737-0.572,5.023-1.188c2.286-0.614,3.93-1.088,4.93-1.422l0.328,1.656c-0.656,0.313-2.112,0.784-4.367,1.414
			C358.381,1003.802,356.598,1004.258,355.285,1004.539z M358.676,981.43h18.797v-1.969h-18.797V981.43z M377.473,982.82h-18.797v2
			h18.797V982.82z M363.27,986.289v2.156h9.375v-2.156H363.27z M363.27,990.102v2.219h9.375v-2.219H363.27z M366.926,1005.445
			h-3.156l-0.328-1.953h2.375c0.833,0,1.25-0.359,1.25-1.078v-6.922h2.438v7.734c0,0.666-0.229,1.203-0.688,1.609
			C368.358,1005.242,367.728,1005.445,366.926,1005.445z M380.223,1004.664c-3.396-0.636-6.479-1.552-9.25-2.75l0.891-1.594
			c2.833,1.094,5.922,1.891,9.266,2.391L380.223,1004.664z"/>
		<path fill="#FFFFFF" d="M408.504,984.727v-5.094h-18.406v8.484c0,7.281-1.349,12.948-4.047,17l-1.625-1.109
			c1.104-1.885,1.94-4.153,2.508-6.805c0.567-2.65,0.852-5.07,0.852-7.258v-12.047h23.031v6.234c0,4.938,0.153,8.737,0.461,11.398
			c0.307,2.662,0.677,4.425,1.109,5.289c0.432,0.865,0.81,1.297,1.133,1.297c0.271,0,0.471-0.388,0.602-1.164
			c0.13-0.775,0.227-2.039,0.289-3.789l1.766,0.359c-0.146,3.678-0.409,5.867-0.789,6.57c-0.38,0.703-0.956,1.08-1.727,1.133h-0.109
			c-0.469,0-0.93-0.217-1.383-0.648c-0.453-0.433-0.904-1.097-1.352-1.992c-0.448-0.896-0.841-1.971-1.18-3.227
			c-0.339-1.255-0.612-2.833-0.82-4.734C408.608,992.725,408.504,989.425,408.504,984.727z M389.988,1004.727l-0.422-1.922
			c2.781-0.177,5.63-0.4,8.547-0.672v-6.109h-3.469v0.844h-2.109v-9.859h5.578v-3.078c-2.406,0.219-4.386,0.354-5.938,0.406
			l-0.359-1.703c6.614-0.385,11.213-0.916,13.797-1.594l0.922,1.688c-1.5,0.354-3.547,0.678-6.141,0.969v3.313h5.641v9.016h-5.641
			v5.875c2.167-0.219,3.849-0.422,5.047-0.609c-0.625-1.313-1.188-2.416-1.688-3.313l2.031-0.719
			c0.813,1.25,1.984,3.589,3.516,7.016l-2.188,0.719c-0.188-0.479-0.495-1.178-0.922-2.094c-2.49,0.281-4.933,0.588-7.328,0.922
			C396.884,1004.091,393.926,1004.393,389.988,1004.727z M398.113,988.602h-3.469v5.781h3.469V988.602z M403.863,988.602h-3.469
			v5.781h3.469V988.602z"/>
	</g>
	<g>
		<path fill="#FFFFFF" d="M916.656,1031.071c0,5.5-4.5,10-10,10H461.44c-5.5,0-10-4.5-10-10V720.554c0-5.5,4.5-10,10-10h445.215
			c5.5,0,10,4.5,10,10V1031.071z"/>
	</g>
	<g>
		<path d="M943.176,692.119v2.88h-2.752v-21.982h10.655v19.103H943.176z M943.176,675.736v5.376h5.151v-5.376H943.176z
			 M948.327,689.367v-5.6h-5.151v5.6H948.327z M967.558,696.887c0,1.664-0.416,2.56-1.504,3.04c-1.12,0.479-2.88,0.544-5.567,0.544
			c-0.16-0.8-0.64-2.112-1.088-2.88c1.92,0.064,3.872,0.032,4.447,0.032c0.544-0.032,0.769-0.225,0.769-0.769v-6.399h-8.575
			c-0.736,3.776-2.4,7.584-6.016,10.304c-0.416-0.608-1.568-1.632-2.208-2.048c5.344-4,5.888-9.983,5.888-14.879v-11.359h13.854
			V696.887z M964.614,687.735v-4.928h-8v1.057c0,1.216-0.031,2.527-0.159,3.871H964.614z M956.614,675.225v4.863h8v-4.863H956.614z"
			/>
		<path d="M999.782,673.209v26.846h-3.168v-1.952h-15.07v2.08h-3.04v-26.974H999.782z M981.544,676.217v7.807h15.07v-7.807H981.544z
			 M996.614,695.095v-8.127h-15.07v8.127H996.614z"/>
		<path d="M1023.56,696.055c1.12-0.096,2.048-0.256,2.815-0.447c4.063-0.929,7.68-3.872,7.68-8.992c0-4.607-2.752-8.223-7.615-8.831
			c-0.448,2.848-1.024,5.92-1.889,8.896c-1.919,6.464-4.543,10.079-7.711,10.079c-3.136,0-6.016-3.552-6.016-8.831
			c0-7.04,6.239-13.151,14.175-13.151c7.615,0,12.447,5.312,12.447,11.967c0,6.624-4.256,11.231-11.999,12.319L1023.56,696.055z
			 M1021.319,686.008c0.8-2.496,1.408-5.376,1.728-8.159c-5.695,0.928-9.022,5.888-9.022,9.791c0,3.647,1.632,5.312,2.911,5.312
			C1018.312,692.951,1019.848,690.903,1021.319,686.008z"/>
		<path d="M1073.957,683.96c-1.567,2.848-3.583,5.983-5.439,7.999l-2.495-1.504c0.991-1.151,2.176-2.848,3.136-4.512h-7.968v11.136
			c0,1.664-0.416,2.496-1.696,2.911c-1.279,0.448-3.231,0.48-5.983,0.48c-0.191-0.832-0.704-2.08-1.12-2.88
			c2.08,0.096,4.32,0.064,4.928,0.064c0.608-0.032,0.769-0.16,0.769-0.641v-11.071h-12.863v-2.848h15.646
			c-2.592-1.216-5.76-2.624-8.255-3.615l1.535-2.24c1.601,0.64,3.521,1.376,5.408,2.176c1.76-1.023,3.68-2.432,5.184-3.775h-16.511
			v-2.752h19.423l0.64-0.16l2.176,1.664c-2.176,2.176-5.12,4.479-7.903,6.271c1.216,0.544,2.304,1.024,3.136,1.439l-0.608,0.992
			h5.888l0.544-0.191L1073.957,683.96z"/>
		<path d="M1096.135,696.887c1.407,0.192,2.911,0.288,4.512,0.288c1.376,0,6.751,0,8.575-0.063c-0.48,0.703-0.992,2.144-1.12,3.008
			h-7.615c-6.271,0-10.879-1.057-13.791-6.08c-1.056,2.72-2.528,4.96-4.512,6.655c-0.48-0.544-1.728-1.567-2.464-2.048
			c3.52-2.623,5.151-7.104,5.823-12.703l3.072,0.288c-0.192,1.472-0.448,2.88-0.768,4.192c1.119,2.976,2.911,4.671,5.215,5.631
			V683.64h-7.392v-2.848h18.015v2.848h-7.551v4.704h9.151v2.783h-9.151V696.887z M1084.199,681.976h-2.911v-7.359h11.711v-3.424
			h3.168v3.424h11.839v7.359h-3.04v-4.543h-20.767V681.976z"/>
	</g>
	<g>
		<path fill="#FFFFFF" d="M1399.048,1031.071c0,5.5-4.5,10-10,10H943.831c-5.5,0-10-4.5-10-10V720.554c0-5.5,4.5-10,10-10h445.217
			c5.5,0,10,4.5,10,10V1031.071z"/>
	</g>
	<g>
		<path d="M1428.447,693.815c1.376,2.208,3.903,3.199,7.455,3.359c3.616,0.16,11.039,0.064,15.104-0.224
			c-0.353,0.672-0.801,2.048-0.96,2.911c-3.68,0.16-10.464,0.225-14.176,0.097c-3.968-0.16-6.719-1.216-8.671-3.68
			c-1.344,1.312-2.752,2.592-4.319,3.968l-1.473-2.944c1.28-0.864,2.848-2.08,4.192-3.264v-7.711h-3.84v-2.752h6.688V693.815z
			 M1426.911,678.968c-0.896-1.6-3.04-3.808-4.928-5.343l2.271-1.664c1.856,1.439,4.096,3.552,5.056,5.119L1426.911,678.968z
			 M1438.398,692.855h-8.768v-2.432h8.768v-1.889h-6.943V678.04h6.943v-1.823h-8.319v-2.464h8.319v-2.592h2.88v2.592h8.703v2.464
			h-8.703v1.823h7.167v10.495h-7.167v1.889h9.151v2.432h-9.151v3.359h-2.88V692.855z M1434.207,682.232h4.191v-2.08h-4.191V682.232z
			 M1438.398,686.392v-2.111h-4.191v2.111H1438.398z M1441.278,680.152v2.08h4.319v-2.08H1441.278z M1445.598,684.28h-4.319v2.111
			h4.319V684.28z"/>
		<path d="M1460.703,689.911c-0.416,3.008-1.151,6.112-2.144,8.16c-0.479-0.353-1.664-0.896-2.271-1.12
			c0.96-1.92,1.567-4.736,1.888-7.487L1460.703,689.911z M1484.445,675.032c-1.184,3.04-2.879,5.664-4.959,7.872
			c2.208,1.663,4.735,2.976,7.264,3.839c-0.641,0.608-1.504,1.696-1.952,2.4l-0.64-0.256v11.583h-2.912v-1.376h-8.031v1.439h-2.784
			v-11.23c-0.288,0.128-0.607,0.256-0.896,0.384c-0.192-0.384-0.576-0.96-0.992-1.472l-1.664,0.768
			c-0.096-0.512-0.288-1.088-0.479-1.695l-2.112,0.128v13.15h-2.655v-12.991c-1.761,0.097-3.393,0.192-4.832,0.288l-0.256-2.623
			l2.239-0.064c0.576-0.768,1.216-1.632,1.824-2.528c-0.992-1.439-2.56-3.167-3.968-4.479l1.44-1.951
			c0.287,0.224,0.575,0.479,0.863,0.735c0.992-1.76,2.048-4.063,2.624-5.791l2.624,1.023c-1.12,2.144-2.464,4.607-3.616,6.367
			c0.576,0.608,1.12,1.217,1.536,1.761c1.152-1.889,2.24-3.84,3.04-5.472l2.464,1.119c-1.792,2.912-4.096,6.4-6.176,9.088
			c1.28-0.032,2.624-0.096,4-0.192c-0.416-0.896-0.864-1.792-1.313-2.592l2.016-0.832c1.057,1.696,2.048,3.809,2.593,5.504
			c2.399-0.992,4.703-2.304,6.688-3.936c-1.185-1.152-2.24-2.399-3.168-3.712c-0.96,1.056-1.984,2.08-3.168,3.04
			c-0.384-0.608-1.344-1.536-1.984-1.92c3.521-2.656,5.856-6.271,7.072-9.247l2.88,0.512c-0.353,0.8-0.769,1.632-1.217,2.464h6.272
			l0.512-0.128L1484.445,675.032z M1467.039,689.207c0.8,1.824,1.664,4.225,2.016,5.792l-2.271,0.768
			c-0.32-1.567-1.088-3.999-1.888-5.855L1467.039,689.207z M1483.614,688.632c-2.145-0.96-4.225-2.272-6.112-3.808
			c-1.76,1.535-3.647,2.783-5.631,3.808H1483.614z M1481.246,696.503v-5.312h-8.031v5.312H1481.246z M1473.95,677.145
			c0.896,1.407,2.08,2.783,3.456,4.031c1.312-1.344,2.399-2.848,3.264-4.479h-6.399L1473.95,677.145z"/>
		<path d="M1521.149,691.575h-3.327v5.6h-3.008v-1.376h-6.815v1.664c0,1.632-0.416,2.304-1.504,2.72
			c-1.088,0.384-2.752,0.416-5.439,0.416c-0.16-0.672-0.608-1.76-1.024-2.399c1.76,0.063,3.68,0.063,4.191,0.031
			c0.576-0.031,0.769-0.191,0.769-0.735v-1.696h-9.983v-2.239h9.983v-1.984h-12.799v-2.336h12.799v-1.823h-9.695v-2.112h9.695
			v-1.888h-8.863v-5.888h8.863v-1.632h-12.127v-2.399h12.127v-2.336h3.008v2.336h12.479v2.399h-12.479v1.632h9.312v5.888h-9.312
			v1.888h9.823v3.936h3.327V691.575z M1504.991,681.432v-1.92h-6.016v1.92H1504.991z M1507.999,679.512v1.92h6.304v-1.92H1507.999z
			 M1507.999,689.239h6.815v-1.823h-6.815V689.239z M1514.814,691.575h-6.815v1.984h6.815V691.575z"/>
		<path d="M1539.263,690.615c-3.937,1.44-8.063,2.944-11.231,4.032l-1.185-2.849c1.28-0.384,2.88-0.863,4.641-1.439v-12.863h-3.937
			v-2.752h10.848v2.752h-3.936v11.903l4.287-1.408L1539.263,690.615z M1545.95,696.375c-2.048,1.6-5.344,3.264-8.128,4.159
			c-0.416-0.575-1.28-1.535-1.855-2.048c2.688-0.863,5.919-2.463,7.52-3.775L1545.95,696.375z M1545.246,677.849
			c0.191-0.896,0.384-1.856,0.544-2.752h-7.168v-2.528h17.951v2.528h-7.392c-0.288,0.928-0.64,1.888-0.928,2.752h7.104v16.606
			h-15.264v-16.606H1545.246z M1552.445,680.088h-9.6v2.624h9.6V680.088z M1552.445,684.792h-9.6v2.655h9.6V684.792z
			 M1552.445,689.527h-9.6v2.688h9.6V689.527z M1550.749,694.839c2.08,1.056,4.896,2.752,6.368,3.936l-2.368,1.792
			c-1.312-1.151-4.128-2.943-6.207-4.128L1550.749,694.839z"/>
	</g>
	<g>
		<path fill="#FFFFFF" d="M1881.438,1031.071c0,5.5-4.5,10-10,10h-445.216c-5.5,0-10-4.5-10-10V720.554c0-5.5,4.5-10,10-10h445.216
			c5.5,0,10,4.5,10,10V1031.071z"/>
	</g>
	<g>
		<path d="M631.344,299.836c0,1.6-0.288,2.464-1.28,3.008c-1.024,0.48-2.496,0.512-4.863,0.512c-0.096-0.8-0.48-2.144-0.896-2.943
			c1.536,0.064,3.072,0.064,3.52,0.032c0.448,0,0.64-0.16,0.64-0.608v-6.655h-6.304c-0.544,3.711-1.76,7.487-4.416,10.239
			c-0.48-0.48-1.696-1.344-2.368-1.664c1.056-1.088,1.888-2.336,2.496-3.648h-5.664v5.216h-2.88v-5.216h-6.016v-2.656h6.016v-2.176
			h-4.8v-11.103h4.8v-2.176h-5.695v-2.624h5.695v-3.392h2.88v3.392h5.888v2.624h-5.888v2.176h5.087v11.103h-5.087v2.176h5.888v2.112
			c1.472-3.488,1.632-7.391,1.632-10.687v-11.391h11.615V299.836z M607.186,286.653h7.359v-2.24h-7.359V286.653z M607.186,291.037
			h7.359v-2.272h-7.359V291.037z M628.464,290.461v-4.735h-5.888v1.152c0,1.12-0.032,2.336-0.128,3.583H628.464z M622.576,278.174
			v4.864h5.888v-4.864H622.576z"/>
		<path d="M651.729,280.926c-0.992,2.4-2.368,4.672-3.968,6.751c1.6,1.28,4.224,3.616,4.992,4.32l-1.856,2.464
			c-0.8-1.024-2.368-2.72-3.776-4.128v13.055h-2.944v-11.775c-1.568,1.44-3.2,2.72-4.799,3.68c-0.288-0.768-1.024-2.176-1.472-2.752
			c3.84-2.08,7.744-5.855,10.015-9.919h-8.895v-2.72h5.151v-5.888h2.944v5.888h2.4l0.512-0.096L651.729,280.926z M663.408,300.125
			c1.472,0,1.664-1.216,1.888-5.855c0.736,0.544,1.952,1.088,2.784,1.28c-0.352,5.472-1.152,7.423-4.416,7.423h-5.088
			c-3.328,0-4.319-1.056-4.319-4.928v-23.422h3.04v23.455c0,1.76,0.224,2.048,1.632,2.048H663.408z"/>
	</g>
	<g>
		<path d="M612.465,333.974c-0.704,2.176-1.664,4.352-2.688,6.464v21.886h-2.848v-16.959c-0.8,1.152-1.568,2.176-2.368,3.136
			c-0.288-0.704-1.152-2.335-1.664-3.008c2.752-3.007,5.248-7.679,6.784-12.319L612.465,333.974z M624.912,341.942
			c1.824,5.151,4.959,10.303,8.255,13.087c-0.736,0.544-1.728,1.568-2.272,2.368c-3.008-2.976-5.759-7.967-7.647-13.183v9.823h4.736
			v2.688h-4.736v5.472h-2.912v-5.472h-4.768v-2.688h4.768v-9.631c-1.952,5.248-4.736,10.08-7.872,13.087
			c-0.448-0.736-1.472-1.76-2.112-2.272c3.392-2.816,6.528-8.031,8.416-13.279h-7.007v-2.816h8.575v-5.952h2.912v5.952h9.151v2.816
			H624.912z"/>
		<path d="M644.85,350.357v8.671c0,1.376-0.256,2.144-1.056,2.56c-0.768,0.48-1.888,0.576-3.584,0.576
			c-0.096-0.736-0.448-1.92-0.768-2.656c0.96,0.032,1.856,0,2.144,0c0.352,0,0.48-0.096,0.48-0.48v-7.647
			c-1.056,0.384-2.08,0.768-3.008,1.056l-0.736-2.848c1.088-0.32,2.336-0.704,3.744-1.152v-6.431h-3.359v-2.784h3.359v-6.208h2.784
			v6.208h2.815v2.784h-2.815v5.439l2.592-0.864l0.448,2.624L644.85,350.357z M660.656,354.581c1.888,1.984,4.736,3.744,7.423,4.64
			c-0.608,0.544-1.44,1.568-1.888,2.304c-2.496-1.088-5.12-3.04-7.04-5.248v6.144h-2.816v-5.952
			c-2.272,2.304-5.312,4.224-8.351,5.279c-0.448-0.672-1.28-1.728-1.888-2.304c3.232-0.928,6.528-2.72,8.671-4.864h-6.496v-2.432
			h8.063v-2.176h-7.52v-7.328h8.16v7.264h1.536v-7.264h8.416v7.328h-7.775v2.176h8.416v2.432H660.656z M654.577,344.757h-3.488
			v3.072h3.488V344.757z M663.76,341.366h-11.935v-7.104h11.935V341.366z M661.072,336.438h-6.656v2.784h6.656V336.438z
			 M660.848,347.829h3.648v-3.072h-3.648V347.829z"/>
	</g>
	<g>
		<path d="M628.656,434.605c0,1.12,0.096,2.656,0.128,3.36h-3.616c0-0.416,0.032-1.024,0.032-1.728h-15.199
			c-1.28,0-2.879,0.064-3.808,0.16v-3.616c0.928,0.064,2.336,0.16,3.712,0.16h15.327v-14.271h-14.943
			c-1.248,0-2.88,0.064-3.712,0.096v-3.52c1.12,0.096,2.624,0.192,3.712,0.192h15.903c0.864,0,1.952-0.032,2.56-0.064
			c-0.032,0.704-0.096,1.824-0.096,2.656V434.605z M626.032,415.183c-0.64-1.312-1.696-3.168-2.528-4.32l2.144-0.864
			c0.768,1.088,1.92,3.072,2.528,4.255L626.032,415.183z M629.808,409.007c0.8,1.12,1.952,3.072,2.592,4.256l-2.144,0.928
			c-0.704-1.312-1.728-3.136-2.592-4.288L629.808,409.007z"/>
		<path d="M662.512,434.478l-1.408,3.136c-4.255-1.824-14.047-4-19.198-4.768l1.28-3.136
			C648.593,430.542,658.128,432.782,662.512,434.478z M661.264,424.334l-1.248,3.104c-3.711-1.408-11.679-3.232-16.319-3.936
			l1.184-3.04C649.329,421.199,657.265,422.895,661.264,424.334z M663.408,415.695l-1.312,3.136
			c-3.808-1.408-12.479-3.328-16.959-3.904l1.184-2.976C650.513,412.463,659.376,414.287,663.408,415.695z"/>
	</g>
	<g>
		<path d="M654.609,554.721c0,4.191,2.56,12.287,13.087,16.095c-0.672,0.672-1.6,1.92-2.048,2.752
			c-8.511-3.328-11.903-10.176-12.639-13.312c-0.704,3.168-3.872,9.823-12.223,13.312c-0.384-0.641-1.408-1.92-2.08-2.496
			c10.239-3.903,12.703-12.159,12.703-16.318v-10.111h3.2V554.721z M646.353,551.201c-0.512,3.871-1.536,7.711-4.319,9.887
			l-2.656-1.728c2.464-1.888,3.552-5.248,4-8.8L646.353,551.201z M666.352,551.776c-1.6,3.008-3.583,6.528-5.184,8.768l-2.528-1.184
			c1.536-2.304,3.392-6.08,4.448-8.863L666.352,551.776z"/>
	</g>
	<g>
		<path d="M655.953,613.784c2.784,5.184,7.551,10.271,12.255,12.927c-0.704,0.576-1.728,1.76-2.208,2.561
			c-4.224-2.656-8.288-7.232-11.263-12.224v15.519h-3.168v-15.455c-2.912,5.12-6.976,9.6-11.295,12.256
			c-0.48-0.736-1.504-1.92-2.208-2.527c4.832-2.625,9.471-7.744,12.191-13.056h-10.879v-2.944h12.191v-7.615h3.168v7.615h12.255
			v2.944H655.953z"/>
	</g>
	<g>
		<g>
			<path d="M465.135,577.526l3.647,0.735c-0.224,0.8-0.512,2.016-0.672,2.72c-0.416,2.112-1.568,6.688-2.815,9.855
				c-1.152,2.976-2.976,6.432-4.704,8.928l-3.488-1.472c2.016-2.656,3.839-6.048,4.959-8.768
				C463.471,586.102,464.751,581.366,465.135,577.526z M473.199,578.229l3.296-1.088c1.279,2.4,3.424,7.04,4.703,10.271
				c1.216,3.072,2.912,8.063,3.776,11.071l-3.648,1.184c-0.863-3.487-2.207-7.711-3.487-11.135
				C476.558,585.205,474.575,580.63,473.199,578.229z M482.734,572.982c2.048,0,3.712,1.664,3.712,3.68
				c0,2.048-1.664,3.68-3.712,3.68s-3.68-1.632-3.68-3.68C479.054,574.646,480.686,572.982,482.734,572.982z M482.734,578.646
				c1.088,0,2.016-0.896,2.016-1.983s-0.928-2.016-2.016-2.016s-1.983,0.928-1.983,2.016S481.646,578.646,482.734,578.646z"/>
			<path d="M516.623,591.445c-3.392-1.824-8.575-3.84-12.096-4.992v9.888c0,0.992,0.097,2.943,0.256,4.096h-3.936
				c0.16-1.12,0.256-2.848,0.256-4.096v-18.495c0-1.023-0.096-2.495-0.288-3.583h3.937c-0.097,1.056-0.225,2.463-0.225,3.583v4.992
				c4.224,1.279,10.336,3.552,13.535,5.119L516.623,591.445z"/>
			<path d="M553.583,595.509c0,1.12,0.063,3.872,0.063,4.128h-3.487c0.032-0.16,0.032-0.896,0.063-1.792h-16.574
				c0,0.863,0,1.632,0.032,1.792h-3.456c0-0.288,0.063-2.848,0.063-4.128v-15.711c0-0.832,0-1.92-0.031-2.784
				c1.248,0.064,2.271,0.064,3.071,0.064h17.375c0.735,0,1.888,0,2.943-0.032c-0.063,0.864-0.063,1.856-0.063,2.752V595.509z
				 M533.616,580.277v14.399h16.606v-14.399H533.616z"/>
			<path d="M564.175,585.014c1.024,0.096,3.008,0.191,4.735,0.191h17.375c1.568,0,2.815-0.128,3.584-0.191v3.936
				c-0.704-0.032-2.144-0.128-3.552-0.128h-17.407c-1.792,0-3.68,0.063-4.735,0.128V585.014z"/>
			<path d="M598,598.293c2.752-1.952,4.576-4.832,5.504-7.776c0.928-2.848,0.928-9.087,0.928-12.767
				c0-1.088-0.064-1.855-0.256-2.592h3.712c-0.032,0.256-0.16,1.439-0.16,2.56c0,3.648-0.128,10.464-0.992,13.663
				c-0.96,3.52-2.976,6.655-5.695,8.96L598,598.293z M612.718,598.58c0.128-0.544,0.225-1.279,0.225-2.016v-18.942
				c0-1.312-0.192-2.368-0.192-2.56h3.712c-0.032,0.191-0.16,1.248-0.16,2.56v17.694c2.784-1.248,6.399-3.968,8.703-7.359
				l1.92,2.752c-2.72,3.616-7.199,6.976-10.879,8.831c-0.544,0.257-0.864,0.544-1.216,0.801L612.718,598.58z"/>
		</g>
	</g>
	<g>
		<path fill="#FFFFFF" d="M1635.438,636.287c0,5.5-4.5,10-10,10h-210c-5.5,0-10-4.5-10-10V274.286c0-5.5,4.5-10,10-10h210
			c5.5,0,10,4.5,10,10V636.287z"/>
	</g>
	<g>
		<path fill="#FFFFFF" d="M1881.438,636.287c0,5.5-4.5,10-10,10h-210.001c-5.5,0-10-4.5-10-10V274.286c0-5.5,4.5-10,10-10h210.001
			c5.5,0,10,4.5,10,10V636.287z"/>
	</g>
	<g>
		<path fill="#FFFFFF" d="M918.656,306.285c0,5.5-4.5,10-10,10h-210c-5.5,0-10-4.5-10-10v-32c0-5.5,4.5-10,10-10h210
			c5.5,0,10,4.5,10,10V306.285z"/>
	</g>
	<g>
		<path fill="#FFFFFF" d="M1154.656,306.285c0,5.5-4.5,10-10,10h-210c-5.5,0-10-4.5-10-10v-32c0-5.5,4.5-10,10-10h210
			c5.5,0,10,4.5,10,10V306.285z"/>
	</g>
	<g>
		<path fill="#FFFFFF" d="M1390.656,306.285c0,5.5-4.5,10-10,10h-210c-5.5,0-10-4.5-10-10v-32c0-5.5,4.5-10,10-10h210
			c5.5,0,10,4.5,10,10V306.285z"/>
	</g>
	<g>
		<path fill="#FFFFFF" d="M918.656,364.285c0,5.5-4.5,10-10,10h-210c-5.5,0-10-4.5-10-10v-32c0-5.5,4.5-10,10-10h210
			c5.5,0,10,4.5,10,10V364.285z"/>
	</g>
	<g>
		<path fill="#FFFFFF" d="M1154.656,364.285c0,5.5-4.5,10-10,10h-210c-5.5,0-10-4.5-10-10v-32c0-5.5,4.5-10,10-10h210
			c5.5,0,10,4.5,10,10V364.285z"/>
	</g>
	<g>
		<path fill="#FFFFFF" d="M1390.656,364.285c0,5.5-4.5,10-10,10h-210c-5.5,0-10-4.5-10-10v-32c0-5.5,4.5-10,10-10h210
			c5.5,0,10,4.5,10,10V364.285z"/>
	</g>
	<g>
		<path fill="#FFFFFF" d="M918.656,441.285c0,5.5-4.5,10-10,10h-210c-5.5,0-10-4.5-10-10v-32c0-5.5,4.5-10,10-10h210
			c5.5,0,10,4.5,10,10V441.285z"/>
	</g>
	<g>
		<path fill="#FFFFFF" d="M1154.656,441.285c0,5.5-4.5,10-10,10h-210c-5.5,0-10-4.5-10-10v-32c0-5.5,4.5-10,10-10h210
			c5.5,0,10,4.5,10,10V441.285z"/>
	</g>
	<g>
		<path fill="#FFFFFF" d="M1390.656,441.285c0,5.5-4.5,10-10,10h-210c-5.5,0-10-4.5-10-10v-32c0-5.5,4.5-10,10-10h210
			c5.5,0,10,4.5,10,10V441.285z"/>
	</g>
	<g>
		<path fill="#FFFFFF" d="M918.656,499.285c0,5.5-4.5,10-10,10h-210c-5.5,0-10-4.5-10-10v-32c0-5.5,4.5-10,10-10h210
			c5.5,0,10,4.5,10,10V499.285z"/>
	</g>
	<g>
		<path fill="#FFFFFF" d="M1154.656,499.285c0,5.5-4.5,10-10,10h-210c-5.5,0-10-4.5-10-10v-32c0-5.5,4.5-10,10-10h210
			c5.5,0,10,4.5,10,10V499.285z"/>
	</g>
	<g>
		<path fill="#FFFFFF" d="M1390.656,499.285c0,5.5-4.5,10-10,10h-210c-5.5,0-10-4.5-10-10v-32c0-5.5,4.5-10,10-10h210
			c5.5,0,10,4.5,10,10V499.285z"/>
	</g>
	<g>
		<path fill="#FFFFFF" d="M918.656,576.285c0,5.5-4.5,10-10,10h-210c-5.5,0-10-4.5-10-10v-32c0-5.5,4.5-10,10-10h210
			c5.5,0,10,4.5,10,10V576.285z"/>
	</g>
	<g>
		<path fill="#FFFFFF" d="M1154.656,576.285c0,5.5-4.5,10-10,10h-210c-5.5,0-10-4.5-10-10v-32c0-5.5,4.5-10,10-10h210
			c5.5,0,10,4.5,10,10V576.285z"/>
	</g>
	<g>
		<path fill="#FFFFFF" d="M1390.656,576.285c0,5.5-4.5,10-10,10h-210c-5.5,0-10-4.5-10-10v-32c0-5.5,4.5-10,10-10h210
			c5.5,0,10,4.5,10,10V576.285z"/>
	</g>
	<g>
		<path fill="#FFFFFF" d="M918.656,634.285c0,5.5-4.5,10-10,10h-210c-5.5,0-10-4.5-10-10v-32c0-5.5,4.5-10,10-10h210
			c5.5,0,10,4.5,10,10V634.285z"/>
	</g>
	<g>
		<path fill="#FFFFFF" d="M1154.656,634.285c0,5.5-4.5,10-10,10h-210c-5.5,0-10-4.5-10-10v-32c0-5.5,4.5-10,10-10h210
			c5.5,0,10,4.5,10,10V634.285z"/>
	</g>
	<g>
		<path fill="#FFFFFF" d="M1390.656,634.285c0,5.5-4.5,10-10,10h-210c-5.5,0-10-4.5-10-10v-32c0-5.5,4.5-10,10-10h210
			c5.5,0,10,4.5,10,10V634.285z"/>
	</g>
	<rect x="1299.438" y="89.655" opacity="0.5" fill="#FFFFFF" width="190" height="52"/>
	<rect x="1495.438" y="89.655" opacity="0.5" fill="#FFFFFF" width="190" height="52"/>
	<rect x="1691.438" y="89.655" opacity="0.5" fill="#FFFFFF" width="190" height="52"/>
	<rect x="1299.438" y="147.655" opacity="0.5" fill="#FFFFFF" width="190" height="52"/>
	<rect x="1495.438" y="147.655" opacity="0.5" fill="#FFFFFF" width="190" height="52"/>
</g>
<g id="時計">
	<g>
		<g>
			<g>
				<circle fill="#FFFFFF" stroke="#000000" stroke-width="4.9822" stroke-linecap="round" cx="235.633" cy="188.768" r="140.125"/>
				<circle fill="none" cx="235.632" cy="188.768" r="120.849"/>
				<g>
					
						<line fill="none" stroke="#000000" stroke-width="4.9822" stroke-linecap="round" x1="305.688" y1="310.105" x2="296.051" y2="293.414"/>
					
						<line fill="none" stroke="#000000" stroke-width="4.9822" stroke-linecap="round" x1="165.579" y1="67.431" x2="175.215" y2="84.123"/>
					
						<line fill="none" stroke="#000000" stroke-width="4.9822" stroke-linecap="round" x1="114.294" y1="118.713" x2="130.987" y2="128.35"/>
					
						<line fill="none" stroke="#000000" stroke-width="4.9822" stroke-linecap="round" x1="356.97" y1="258.822" x2="340.278" y2="249.186"/>
					
						<line fill="none" stroke="#000000" stroke-width="4.9822" stroke-linecap="round" x1="356.97" y1="118.713" x2="340.278" y2="128.35"/>
					
						<line fill="none" stroke="#000000" stroke-width="4.9822" stroke-linecap="round" x1="130.987" y1="249.186" x2="114.294" y2="258.822"/>
					
						<line fill="none" stroke="#000000" stroke-width="4.9822" stroke-linecap="round" x1="165.579" y1="310.105" x2="175.215" y2="293.414"/>
					
						<line fill="none" stroke="#000000" stroke-width="4.9822" stroke-linecap="round" x1="305.687" y1="67.431" x2="296.051" y2="84.123"/>
				</g>
			</g>
			<g>
				<g>
					<path d="M230.076,54.903v50.918h-4.851V58.895h-4.849v-3.992H230.076z"/>
					<path d="M244.81,88.849h4.813v16.973H235.11V83.813v-1.604c0-0.695,0.039-1.355,0.113-1.977
						c0.024-0.597,0.123-1.082,0.299-1.454c0.099-0.324,0.347-0.696,0.745-1.12c0.448-0.497,1.019-0.833,1.716-1.007
						c0.747-0.198,1.792-0.297,3.133-0.297h1.679h2.015V58.634h-4.849v10.744h-4.851v-7.014v-1.417c0-2.386,0.547-4.053,1.642-4.999
						c1.093-0.943,2.995-1.417,5.707-1.417c2.611,0,4.45,0.484,5.521,1.455c1.092,0.969,1.642,2.561,1.642,4.774v1.604V72.92v1.343
						c0,1.468-0.063,2.513-0.188,3.134c-0.148,0.572-0.485,1.119-1.006,1.641c-0.474,0.498-1.058,0.846-1.754,1.044
						c-0.623,0.174-1.654,0.262-3.096,0.262h-1.642h-1.977v21.486h4.849V88.849z"/>
				</g>
				<g>
					<path d="M242.887,278.262v7.013h-4.813v-10.743h-4.849v17.718h2.015h1.678c1.466,0,2.51,0.087,3.134,0.261
						c0.645,0.2,1.194,0.56,1.641,1.082c0.496,0.498,0.821,1.033,0.97,1.604c0.149,0.548,0.224,1.604,0.224,3.171v1.343v14.548
						v1.418c0,1.591-0.237,2.848-0.708,3.767c-0.473,0.971-1.231,1.655-2.275,2.052c-1.044,0.397-2.488,0.597-4.326,0.597
						c-2.563,0-4.402-0.484-5.521-1.455s-1.679-2.561-1.679-4.775v-1.604l0.038-35.997v-1.417c0-2.388,0.546-4.053,1.641-4.999
						c1.093-0.944,2.984-1.417,5.67-1.417c2.611,0,4.451,0.485,5.521,1.455c1.093,0.97,1.641,2.562,1.641,4.774V278.262z
						 M238.075,317.989v-21.747h-4.849v21.747H238.075z"/>
				</g>
			</g>
			<g>
				<g>
					<path d="M351.97,177.325h-4.738v-7.013v-1.455c0-1.59,0.237-2.847,0.709-3.767c0.447-0.946,1.206-1.617,2.275-2.014
						c1.044-0.398,2.474-0.598,4.29-0.598c2.587,0,4.415,0.484,5.483,1.455c1.095,0.969,1.642,2.561,1.642,4.774v1.604v10.52
						c0,1.244-0.075,2.189-0.224,2.835c-0.174,0.596-0.473,1.106-0.895,1.529c-0.398,0.398-1.031,0.771-1.903,1.119
						c1.07,0.449,1.853,0.996,2.351,1.642c0.448,0.622,0.672,1.566,0.672,2.835v1.007v14.51v1.418c0,1.591-0.237,2.848-0.708,3.767
						c-0.473,0.971-1.231,1.655-2.276,2.052c-1.044,0.397-2.486,0.597-4.327,0.597c-1.591,0-2.896-0.187-3.917-0.561
						c-0.971-0.323-1.766-0.933-2.388-1.828c-0.248-0.421-0.434-0.795-0.561-1.118c-0.074-0.248-0.135-0.658-0.185-1.231
						c-0.025-0.323-0.038-1.181-0.038-2.574v-0.522v-9.512h4.738v13.242h4.849v-21.747h-4.849v-3.991h4.849v-17.719h-4.849V177.325z
						"/>
				</g>
				<g>
					<path d="M109.634,206.308v-7.012h4.849v10.743h4.85V192.32h-2.015h-1.679c-1.393-0.025-2.411-0.124-3.058-0.298
						c-0.621-0.149-1.208-0.498-1.754-1.044c-0.321-0.348-0.534-0.635-0.634-0.858c-0.098-0.198-0.21-0.497-0.335-0.895
						c-0.075-0.273-0.136-0.658-0.187-1.157c-0.023-0.224-0.037-0.844-0.037-1.864v-1.344v-14.548v-1.417
						c0-2.387,0.546-4.052,1.641-4.999c1.095-0.945,2.984-1.417,5.671-1.417c2.561,0,4.401,0.485,5.52,1.455
						s1.679,2.562,1.679,4.774v1.604l-0.038,35.996v1.417c0,1.592-0.236,2.848-0.709,3.768c-0.472,0.97-1.231,1.654-2.276,2.052
						c-1.044,0.397-2.486,0.596-4.326,0.596c-2.537,0-4.365-0.484-5.483-1.454c-1.12-0.969-1.678-2.561-1.678-4.774V206.308z
						 M114.483,166.581v21.71h4.85v-21.71H114.483z"/>
				</g>
			</g>
		</g>
		<circle fill="none" cx="235.633" cy="188.768" r="9.965"/>
	</g>
	<text transform="matrix(1 0 0 1 76.959 394.2012)"><tspan x="0" y="0" font-family="'NotoSansCJKjp-Medium-90ms-RKSJ-H'" font-size="48" letter-spacing="4">2020/05/01</tspan><tspan x="15.75" y="104.96" font-family="'NotoSansCJKjp-Medium-90ms-RKSJ-H'" font-size="90" letter-spacing="9">12:00</tspan></text>
	<path d="M242.968,200.833c0,3.866-3.134,7-7,7s-7-3.134-7-7s7-103,7-103S242.968,196.967,242.968,200.833z"/>
	<path d="M245.467,199.667c0,5.523-4.477,10-10,10s-10-4.477-10-10s10-50,10-50S245.467,194.144,245.467,199.667z"/>
</g>
</svg>
