<?xml version="1.0" encoding="utf-8"?>
<!-- Generator: Adobe Illustrator 12.0.0, SVG Export Plug-In . SVG Version: 6.00 Build 51448)  -->
<!DOCTYPE svg PUBLIC "-//W3C//DTD SVG 1.1//EN" "http://www.w3.org/Graphics/SVG/1.1/DTD/svg11.dtd" [
	<!ENTITY ns_svg "http://www.w3.org/2000/svg">
	<!ENTITY ns_xlink "http://www.w3.org/1999/xlink">
]>
<svg  version="1.1" id="レイヤー_1" xmlns="&ns_svg;" xmlns:xlink="&ns_xlink;" width="48" height="48" viewBox="0 0 48 48"
	 overflow="visible" enable-background="new 0 0 48 48" xml:space="preserve">
<path fill="#222222" d="M32.924,28.334c0,0,0,3.153,0,4.236c-1.33,0-16.517,0-17.847,0c0-1.083,0-4.236,0-4.236h-1.5v5.736h20.847
	v-5.736H32.924z"/>
<g>
	<g>
		<path fill="#222222" d="M24,10.995c-0.414,0-0.75,0.336-0.75,0.75l0.001,15.352c0,0.414,0.336,0.75,0.75,0.75
			c0.414,0,0.75-0.336,0.75-0.75V11.745C24.75,11.331,24.414,10.995,24,10.995z"/>
	</g>
	<g>
		<path fill="#222222" d="M18.37,14.812c-0.293,0.293-0.293,0.768,0,1.061s0.768,0.293,1.061,0c0,0,3.718-3.72,4.569-4.572
			c0.852,0.852,4.571,4.571,4.571,4.571c0.293,0.293,0.768,0.293,1.061,0s0.293-0.768,0-1.061L24,9.179L18.37,14.812z"/>
	</g>
</g>
<circle fill="none" cx="24" cy="24" r="24"/>
</svg>
