<?xml version="1.0" encoding="utf-8"?>
<!-- Generator: Adobe Illustrator 12.0.0, SVG Export Plug-In . SVG Version: 6.00 Build 51448)  -->
<!DOCTYPE svg PUBLIC "-//W3C//DTD SVG 1.1//EN" "http://www.w3.org/Graphics/SVG/1.1/DTD/svg11.dtd" [
	<!ENTITY ns_svg "http://www.w3.org/2000/svg">
	<!ENTITY ns_xlink "http://www.w3.org/1999/xlink">
]>
<svg  version="1.1" id="レイヤー_1" xmlns="&ns_svg;" xmlns:xlink="&ns_xlink;" width="48" height="48" viewBox="0 0 48 48"
	 overflow="visible" enable-background="new 0 0 48 48" xml:space="preserve">
<circle fill="none" cx="24" cy="24" r="24"/>
<g>
	<g>
		<path fill="#222222" d="M14.091,17.029l1.666,18.617c0.082,0.995,0.965,1.809,1.97,1.809h11.555c1.004,0,1.888-0.813,1.97-1.813
			l1.665-18.612H14.091z M31.275,18.529c-0.133,1.487-1.519,16.984-1.519,16.984c-0.02,0.233-0.246,0.441-0.476,0.441H17.727
			c-0.23,0-0.457-0.208-0.475-0.437c0,0-1.387-15.502-1.52-16.989C17.144,18.529,29.863,18.529,31.275,18.529z"/>
	</g>
	<g>
		<path fill="#222222" d="M19.615,10.531c-1.037,0-1.88,0.843-1.88,1.879v1.885c0,0.414,0.336,0.75,0.75,0.75s0.75-0.336,0.75-0.75
			V12.41c0-0.209,0.17-0.379,0.38-0.379h7.777c0.206,0,0.381,0.173,0.381,0.379v1.885c0,0.414,0.336,0.75,0.75,0.75
			s0.75-0.336,0.75-0.75V12.41c0-1.036-0.844-1.879-1.881-1.879H19.615z"/>
	</g>
	<g>
		<path fill="#222222" d="M13.546,14.393c-0.414,0-0.75,0.336-0.75,0.75s0.336,0.75,0.75,0.75h19.916c0.414,0,0.75-0.336,0.75-0.75
			s-0.336-0.75-0.75-0.75H13.546z"/>
	</g>
	<g>
		<g>
			<path fill="#222222" d="M18.726,21.797v11.17c0,0.414,0.336,0.75,0.75,0.75s0.75-0.336,0.75-0.75v-11.17
				c0-0.414-0.336-0.75-0.75-0.75S18.726,21.383,18.726,21.797z"/>
		</g>
		<g>
			<path fill="#222222" d="M22.753,21.797v11.17c0,0.414,0.336,0.75,0.75,0.75s0.75-0.336,0.75-0.75v-11.17
				c0-0.414-0.336-0.75-0.75-0.75S22.753,21.383,22.753,21.797z"/>
		</g>
		<g>
			<path fill="#222222" d="M26.781,21.797v11.17c0,0.414,0.336,0.75,0.75,0.75s0.75-0.336,0.75-0.75v-11.17
				c0-0.414-0.336-0.75-0.75-0.75S26.781,21.383,26.781,21.797z"/>
		</g>
	</g>
</g>
</svg>
