<?xml version="1.0" encoding="utf-8"?>
<!-- Generator: Adobe Illustrator 12.0.0, SVG Export Plug-In . SVG Version: 6.00 Build 51448)  -->
<!DOCTYPE svg PUBLIC "-//W3C//DTD SVG 1.1//EN" "http://www.w3.org/Graphics/SVG/1.1/DTD/svg11.dtd" [
	<!ENTITY ns_svg "http://www.w3.org/2000/svg">
	<!ENTITY ns_xlink "http://www.w3.org/1999/xlink">
]>
<svg  version="1.1" id="レイヤー_1" xmlns="&ns_svg;" xmlns:xlink="&ns_xlink;" width="400" height="300" viewBox="0 0 400 300"
	 overflow="visible" enable-background="new 0 0 400 300" xml:space="preserve">
<rect fill="none" width="400" height="300"/>
<g>
	<path fill="#FFFFFF" d="M75.445,122.943c0-0.604,0.496-1.101,1.106-1.101h53.757c0.606,0,1.106,0.497,1.106,1.101v12.547
		c0,0.603-0.5,1.106-1.106,1.106h-16.566c-0.608,0-1.105,0.495-1.105,1.105v42.657c0,0.61-0.498,1.112-1.11,1.112H95.331
		c-0.609,0-1.102-0.502-1.102-1.112v-42.657c0-0.61-0.502-1.105-1.112-1.105H76.552c-0.61,0-1.106-0.504-1.106-1.106V122.943z"/>
	<path fill="#FFFFFF" d="M174.927,122.943c0-0.604,0.494-1.101,1.104-1.101h14.393c0.609,0,1.112,0.497,1.112,1.101v57.416
		c0,0.61-0.503,1.112-1.112,1.112H176.03c-0.609,0-1.104-0.502-1.104-1.112V122.943z"/>
	<path fill="#FFFFFF" d="M198.641,122.943c0-0.604,0.493-1.101,1.104-1.101h14.706c0.611,0,1.113,0.497,1.113,1.101v28.541
		c0,0.612,0.323,0.729,0.718,0.271l10.911-12.653c0.398-0.457,1.22-0.836,1.83-0.836h18.156c0.605,0,0.756,0.351,0.317,0.769
		l-13.917,13.602c-0.432,0.424-0.54,1.202-0.232,1.727l15.245,26.147c0.311,0.526,0.062,0.961-0.548,0.961H231.61
		c-0.604,0-1.333-0.446-1.603-0.994l-7.735-15.323c-0.272-0.542-0.855-0.638-1.288-0.214l-4.635,4.527
		c-0.435,0.424-0.786,1.271-0.786,1.883v9.009c0,0.61-0.502,1.112-1.113,1.112h-14.706c-0.61,0-1.104-0.502-1.104-1.112V122.943z"/>
	<path fill="#FFFFFF" d="M166.712,135.077h-11.938c-0.609,0-1.108,0.497-1.108,1.107v1.88c-2.585-1.039-5.4-1.627-8.361-1.627
		c-12.436,0-22.518,10.084-22.518,22.512c0,12.438,10.082,22.522,22.518,22.522c2.961,0,5.776-0.588,8.361-1.626v0.601
		c0,0.604,0.499,1.104,1.108,1.104h11.938c0.613,0,1.109-0.499,1.109-1.104v-44.262
		C167.821,135.574,167.325,135.077,166.712,135.077 M145.305,167.317c-4.618,0-8.362-3.744-8.362-8.368
		c0-4.614,3.744-8.359,8.362-8.359c4.621,0,8.361,3.745,8.361,8.359C153.666,163.573,149.926,167.317,145.305,167.317"/>
	<path fill="#FFFFFF" d="M254.881,139.374c0-0.609,0.498-1.107,1.107-1.107h14.34c0.604,0,1.102,0.498,1.102,1.107v40.985
		c0,0.614-0.497,1.112-1.102,1.112h-14.34c-0.609,0-1.107-0.498-1.107-1.112V139.374z"/>
	<path fill="#FFFFFF" d="M271.43,126.722c0,4.564-3.703,8.271-8.271,8.271c-4.567,0-8.277-3.707-8.277-8.271
		c0-4.573,3.71-8.271,8.277-8.271C267.727,118.45,271.43,122.148,271.43,126.722"/>
	<path fill="#FFFFFF" d="M323.374,162.056c0.61,0,1.118-0.504,1.136-1.108c0,0,0.045-1.395,0.045-2.688
		c0-12.816-10.396-23.21-23.212-23.21c-12.813,0-23.208,10.394-23.208,23.21s10.396,23.364,23.208,23.212
		c16.724-0.203,22.331-13.997,22.331-13.997c0.228-0.57-0.079-1.062-0.688-1.104l-11.826-0.816c-0.61-0.045-1.421,0.303-1.818,0.768
		c0,0-2.504,2.998-7.998,2.998c-6.295,0-8.712-6.238-8.712-6.238c-0.22-0.565,0.094-1.026,0.707-1.026H323.374z M301.343,147.199
		c6.305,0,8.661,5.742,8.661,5.742c0.231,0.564-0.079,1.027-0.688,1.027H293.44c-0.611,0-0.899-0.452-0.646-1.007
		C292.794,152.962,295.438,147.199,301.343,147.199"/>
	<path fill="#FFFFFF" d="M323.374,162.056c0.61,0,1.118-0.504,1.136-1.108c0,0,0.045-1.395,0.045-2.688
		c0-12.816-10.396-23.21-23.212-23.21c-12.813,0-23.208,10.394-23.208,23.21s10.396,23.364,23.208,23.212
		c16.724-0.203,22.331-13.997,22.331-13.997c0.228-0.57-0.079-1.062-0.688-1.104l-11.826-0.816c-0.61-0.045-1.421,0.303-1.818,0.768
		c0,0-2.504,2.998-7.998,2.998c-6.295,0-8.712-6.238-8.712-6.238c-0.22-0.565,0.094-1.026,0.707-1.026H323.374z M301.343,147.199
		c6.305,0,8.661,5.742,8.661,5.742c0.231,0.564-0.079,1.027-0.688,1.027H293.44c-0.611,0-0.899-0.452-0.646-1.007
		C292.794,152.962,295.438,147.199,301.343,147.199"/>
</g>
</svg>
