<?xml version="1.0" encoding="utf-8"?>
<!-- Generator: Adobe Illustrator 12.0.0, SVG Export Plug-In . SVG Version: 6.00 Build 51448)  -->
<!DOCTYPE svg PUBLIC "-//W3C//DTD SVG 1.1//EN" "http://www.w3.org/Graphics/SVG/1.1/DTD/svg11.dtd" [
	<!ENTITY ns_svg "http://www.w3.org/2000/svg">
	<!ENTITY ns_xlink "http://www.w3.org/1999/xlink">
]>
<svg  version="1.1" id="レイヤー_1" xmlns="&ns_svg;" xmlns:xlink="&ns_xlink;" width="47.999" height="48"
	 viewBox="0 0 47.999 48" overflow="visible" enable-background="new 0 0 47.999 48" xml:space="preserve">
<circle fill="#222222" cx="24" cy="24" r="24"/>
<path fill="#FFFFFF" d="M40.19,23.249h-1.186c-0.371-7.68-6.563-13.84-14.255-14.16V7.81h-1.5v1.291
	C15.674,9.544,9.612,15.653,9.244,23.249H7.809v1.5h1.438C9.64,32.321,15.69,38.405,23.25,38.846v1.344h1.5v-1.33
	c7.675-0.32,13.856-6.455,14.253-14.111h1.188V23.249z M37.505,23.249h-2.75c-0.361-5.336-4.655-9.598-10.005-9.91v-2.75
	C31.615,10.907,37.137,16.397,37.505,23.249z M33.087,25.891c-0.768,3.588-3.64,6.4-7.258,7.084L24,29.809l-1.805,3.123
	c-1.712-0.363-3.285-1.209-4.553-2.477c-1.301-1.301-2.162-2.924-2.511-4.689l3.059-1.767l-3.065-1.77
	c0.343-1.783,1.205-3.426,2.518-4.738c1.261-1.26,2.825-2.102,4.527-2.471L24,18.19l1.856-3.215c3.62,0.695,6.49,3.523,7.242,7.125
	l-3.289,1.898L33.087,25.891z M10.747,24.749h2.711v-1.5h-2.714c0.364-6.77,5.757-12.209,12.506-12.648v2.75
	c-2.519,0.203-4.861,1.273-6.668,3.08c-2.015,2.016-3.124,4.693-3.124,7.543c0,2.849,1.109,5.529,3.124,7.542
	c1.807,1.807,4.149,2.879,6.668,3.082v2.748C16.518,36.909,11.136,31.495,10.747,24.749z M24.75,37.36v-2.75
	c5.333-0.313,9.618-4.549,10.003-9.861h2.75C37.109,31.579,31.599,37.042,24.75,37.36z"/>
</svg>
