<?xml version="1.0" encoding="utf-8"?>
<!-- Generator: Adobe Illustrator 12.0.0, SVG Export Plug-In . SVG Version: 6.00 Build 51448)  -->
<!DOCTYPE svg PUBLIC "-//W3C//DTD SVG 1.1//EN" "http://www.w3.org/Graphics/SVG/1.1/DTD/svg11.dtd" [
	<!ENTITY ns_svg "http://www.w3.org/2000/svg">
	<!ENTITY ns_xlink "http://www.w3.org/1999/xlink">
]>
<svg  version="1.1" id="レイヤー_1" xmlns="&ns_svg;" xmlns:xlink="&ns_xlink;" width="48" height="48" viewBox="0 0 48 48"
	 overflow="visible" enable-background="new 0 0 48 48" xml:space="preserve">
<circle fill="none" cx="24" cy="24" r="24"/>
<g>
	<g>
		<polygon fill="#222222" enable-background="new    " points="9.874,38.92 11.069,34.725 14.152,37.892 		"/>
	</g>
	<path fill="#222222" d="M42.42,15.892L32.928,6.4c-0.293-0.293-0.768-0.293-1.061,0L12.851,25.417
		c-0.092,0.091-0.158,0.205-0.192,0.33L9.023,38.873c-0.072,0.261,0,0.539,0.192,0.73c0.191,0.191,0.47,0.266,0.73,0.193
		l3.366-0.932l1.015-0.244c0.053-0.014,0.09-0.053,0.138-0.076l8.608-2.383c0.125-0.033,0.239-0.1,0.33-0.191L42.42,16.952
		c0.141-0.141,0.22-0.331,0.22-0.53S42.561,16.032,42.42,15.892z M10.947,37.891c0.203-0.712,0.284-0.998,0.488-1.715
		c0.522,0.537,0.732,0.753,1.26,1.295C11.962,37.646,11.67,37.717,10.947,37.891z M22.483,34.77
		c-0.229,0.064-4.701,1.302-8.131,2.252l-2.537-2.607c0.948-3.423,2.173-7.848,2.236-8.076c0.202-0.202,9.994-9.994,15.204-15.204
		l2.104,2.103L16.71,27.885c-0.293,0.293-0.293,0.768,0,1.061s0.768,0.293,1.061,0l14.648-14.648l2.104,2.104L19.875,31.049
		c-0.293,0.293-0.293,0.768,0,1.061s0.768,0.293,1.061,0l14.647-14.647l2.104,2.103C32.476,24.775,22.685,34.567,22.483,34.77z
		 M38.747,18.504l-8.432-8.431c1.123-1.122,1.894-1.894,2.082-2.081c0.89,0.889,7.542,7.541,8.432,8.43
		C40.64,16.611,39.87,17.381,38.747,18.504z"/>
</g>
</svg>
