<?xml version="1.0" encoding="utf-8"?>
<!-- Generator: Adobe Illustrator 12.0.0, SVG Export Plug-In . SVG Version: 6.00 Build 51448)  -->
<!DOCTYPE svg PUBLIC "-//W3C//DTD SVG 1.1//EN" "http://www.w3.org/Graphics/SVG/1.1/DTD/svg11.dtd" [
	<!ENTITY ns_svg "http://www.w3.org/2000/svg">
	<!ENTITY ns_xlink "http://www.w3.org/1999/xlink">
]>
<svg  version="1.1" id="レイヤー_1" xmlns="&ns_svg;" xmlns:xlink="&ns_xlink;" width="300" height="300" viewBox="0 0 300 300"
	 overflow="visible" enable-background="new 0 0 300 300" xml:space="preserve">
<rect fill="none" width="300" height="300"/>
<g>
	<g>
		<g>
			<g>
				<circle fill="#FFFFFF" enable-background="new    " cx="150" cy="150" r="140.126"/>
				<path d="M49.154,49.155C22.218,76.092,7.383,111.906,7.383,150c0,78.64,63.978,142.617,142.617,142.617
					c78.64,0,142.617-63.978,142.617-142.617C292.617,71.361,228.64,7.384,150,7.384C111.905,7.384,76.091,22.219,49.154,49.155z
					 M12.366,150c0-36.763,14.316-71.326,40.312-97.322C78.673,26.683,113.236,12.366,150,12.366
					c75.893,0,137.635,61.742,137.635,137.634c0,75.893-61.742,137.635-137.635,137.635C74.108,287.635,12.366,225.893,12.366,150z"
					/>
			</g>
			<circle fill="none" cx="149.999" cy="150" r="120.849"/>
			<g>
				<g>
					<path d="M209.173,252.489c-1.192,0.688-1.601,2.211-0.912,3.402l9.637,16.691c0.688,1.192,2.211,1.601,3.402,0.912
						c1.192-0.688,1.601-2.211,0.912-3.402l-9.637-16.691C211.888,252.209,210.364,251.801,209.173,252.489z"/>
				</g>
				<g>
					<path d="M78.7,26.506c-1.191,0.688-1.6,2.211-0.912,3.403L87.425,46.6c0.688,1.191,2.211,1.6,3.403,0.912
						c1.191-0.688,1.6-2.211,0.912-3.403l-9.637-16.691C81.415,26.226,79.891,25.818,78.7,26.506z"/>
				</g>
				<g>
					<path d="M26.504,78.7c-0.688,1.192-0.28,2.715,0.912,3.403l16.693,9.637c1.191,0.688,2.715,0.28,3.403-0.912
						s0.28-2.715-0.912-3.403l-16.693-9.637C28.715,77.1,27.192,77.508,26.504,78.7z"/>
				</g>
				<g>
					<path d="M252.488,209.173c-0.688,1.191-0.28,2.715,0.912,3.402l16.691,9.637c1.191,0.688,2.715,0.28,3.402-0.912
						c0.688-1.191,0.28-2.715-0.912-3.402l-16.691-9.637C254.699,207.572,253.176,207.98,252.488,209.173z"/>
				</g>
				<g>
					<path d="M270.092,77.788L253.4,87.425c-1.192,0.688-1.601,2.211-0.912,3.403c0.688,1.191,2.211,1.6,3.402,0.912l16.691-9.637
						c1.192-0.688,1.601-2.211,0.912-3.403C272.807,77.508,271.283,77.1,270.092,77.788z"/>
				</g>
				<g>
					<path d="M44.108,208.261l-16.693,9.637c-1.191,0.688-1.6,2.211-0.912,3.402c0.688,1.191,2.211,1.601,3.403,0.912l16.693-9.637
						c1.191-0.688,1.6-2.211,0.912-3.402C46.824,207.981,45.3,207.572,44.108,208.261z"/>
				</g>
				<g>
					<path d="M87.425,253.401l-9.637,16.691c-0.688,1.191-0.28,2.715,0.912,3.402c1.191,0.688,2.715,0.28,3.403-0.912l9.637-16.691
						c0.688-1.191,0.28-2.715-0.912-3.402C89.636,251.801,88.113,252.209,87.425,253.401z"/>
				</g>
				<g>
					<path d="M217.896,27.417l-9.636,16.691c-0.688,1.192-0.28,2.716,0.912,3.403c1.191,0.688,2.716,0.28,3.402-0.912l9.636-16.691
						c0.688-1.191,0.28-2.716-0.912-3.403C220.107,25.818,218.583,26.226,217.896,27.417z"/>
				</g>
			</g>
		</g>
		<g>
			<g>
				<path d="M144.442,16.135v50.919h-4.851V20.127h-4.849v-3.992H144.442z"/>
				<path d="M159.177,50.081h4.813v16.973h-14.513V45.045V43.44c0-0.695,0.039-1.354,0.113-1.977
					c0.024-0.598,0.123-1.082,0.299-1.454c0.099-0.324,0.347-0.696,0.745-1.12c0.448-0.497,1.019-0.833,1.716-1.007
					c0.747-0.198,1.792-0.298,3.134-0.298h1.679h2.015V19.866h-4.849v10.743h-4.852v-7.014v-1.417c0-2.387,0.548-4.053,1.643-4.999
					c1.094-0.943,2.995-1.417,5.707-1.417c2.611,0,4.45,0.484,5.521,1.455c1.092,0.969,1.642,2.561,1.642,4.774v1.604v10.557v1.343
					c0,1.468-0.063,2.513-0.188,3.134c-0.148,0.572-0.484,1.119-1.006,1.642c-0.473,0.497-1.057,0.846-1.754,1.044
					c-0.622,0.174-1.653,0.262-3.096,0.262h-1.641h-1.977v21.486h4.849V50.081z"/>
			</g>
			<g>
				<path d="M157.254,239.494v7.014h-4.813v-10.744h-4.849v17.719h2.015h1.679c1.466,0,2.511,0.088,3.134,0.262
					c0.645,0.199,1.193,0.559,1.641,1.082c0.496,0.497,0.821,1.032,0.971,1.604c0.148,0.547,0.223,1.604,0.223,3.17v1.344v14.547
					v1.418c0,1.592-0.236,2.848-0.708,3.768c-0.474,0.971-1.231,1.654-2.275,2.051c-1.044,0.398-2.487,0.598-4.326,0.598
					c-2.564,0-4.402-0.484-5.522-1.455s-1.679-2.561-1.679-4.775v-1.604l0.038-35.996v-1.417c0-2.388,0.546-4.054,1.641-4.999
					c1.093-0.944,2.984-1.418,5.67-1.418c2.611,0,4.45,0.485,5.521,1.455c1.094,0.971,1.641,2.563,1.641,4.775V239.494z
					 M152.441,279.221v-21.746h-4.849v21.746H152.441z"/>
			</g>
		</g>
		<g>
			<g>
				<path d="M266.338,138.558H261.6v-7.014v-1.454c0-1.591,0.236-2.847,0.709-3.767c0.447-0.946,1.206-1.617,2.275-2.015
					c1.045-0.398,2.475-0.598,4.289-0.598c2.588,0,4.415,0.484,5.484,1.455c1.094,0.97,1.641,2.562,1.641,4.774v1.604v10.52
					c0,1.244-0.074,2.189-0.224,2.836c-0.174,0.596-0.473,1.105-0.896,1.528c-0.398,0.398-1.031,0.771-1.902,1.119
					c1.069,0.448,1.852,0.995,2.35,1.642c0.448,0.622,0.672,1.566,0.672,2.835v1.008v14.51v1.418c0,1.592-0.236,2.848-0.708,3.768
					c-0.474,0.971-1.231,1.654-2.276,2.052c-1.044,0.397-2.486,0.597-4.326,0.597c-1.592,0-2.896-0.187-3.917-0.561
					c-0.971-0.322-1.767-0.932-2.388-1.828c-0.248-0.421-0.434-0.795-0.561-1.117c-0.074-0.248-0.135-0.658-0.186-1.232
					c-0.024-0.322-0.037-1.18-0.037-2.573v-0.522v-9.512h4.738v13.242h4.849v-21.747h-4.849v-3.991h4.849v-17.719h-4.849V138.558z"
					/>
			</g>
			<g>
				<path d="M24.001,167.54v-7.012h4.849v10.743h4.85v-17.719h-2.015h-1.679c-1.393-0.025-2.411-0.124-3.058-0.299
					c-0.621-0.148-1.208-0.498-1.754-1.045c-0.321-0.348-0.534-0.635-0.634-0.857c-0.098-0.199-0.21-0.498-0.335-0.896
					c-0.075-0.273-0.136-0.658-0.187-1.157c-0.023-0.224-0.037-0.844-0.037-1.863v-1.344v-14.548v-1.418
					c0-2.387,0.546-4.052,1.641-4.999c1.095-0.944,2.984-1.416,5.671-1.416c2.561,0,4.401,0.484,5.52,1.454s1.679,2.562,1.679,4.774
					v1.604l-0.038,35.996v1.417c0,1.593-0.236,2.849-0.709,3.769c-0.472,0.97-1.231,1.654-2.276,2.052
					c-1.044,0.396-2.486,0.596-4.326,0.596c-2.537,0-4.365-0.484-5.483-1.454c-1.12-0.97-1.678-2.562-1.678-4.774V167.54z
					 M28.85,127.813v21.71h4.85v-21.71H28.85z"/>
			</g>
		</g>
	</g>
	<circle fill="none" cx="150" cy="150" r="9.965"/>
</g>
</svg>
