<?xml version="1.0" encoding="utf-8"?>
<!-- Generator: Adobe Illustrator 12.0.0, SVG Export Plug-In . SVG Version: 6.00 Build 51448)  -->
<!DOCTYPE svg PUBLIC "-//W3C//DTD SVG 1.1//EN" "http://www.w3.org/Graphics/SVG/1.1/DTD/svg11.dtd" [
	<!ENTITY ns_svg "http://www.w3.org/2000/svg">
	<!ENTITY ns_xlink "http://www.w3.org/1999/xlink">
]>
<svg  version="1.1" id="レイヤー_1" xmlns="&ns_svg;" xmlns:xlink="&ns_xlink;" width="48" height="48" viewBox="0 0 48 48"
	 overflow="visible" enable-background="new 0 0 48 48" xml:space="preserve">
<circle fill="none" cx="24" cy="24" r="24"/>
<g>
	<g>
		<path fill="#222222" d="M13.068,32.852v5.471h20.852v-5.471H13.068z M32.419,34.352c0,0.758,0,1.713,0,2.471
			c-1.33,0-16.521,0-17.852,0c0-0.758,0-1.713,0-2.471C15.898,34.352,31.089,34.352,32.419,34.352z"/>
	</g>
	<g>
		<path fill="#222222" d="M15.363,22.252v11.412h1.5V22.252c0-3.691,3.002-6.693,6.693-6.693c3.69,0,6.692,3.002,6.692,6.693v11.412
			h1.5V22.252c0-4.518-3.675-8.193-8.192-8.193C19.038,14.059,15.363,17.734,15.363,22.252z"/>
	</g>
	<g>
		<path fill="#222222" d="M22.807,17.36c-0.045,0.412,0.253,0.782,0.665,0.827c2.517,0.272,4.415,2.391,4.415,4.926v1.125
			c0,0.414,0.336,0.75,0.75,0.75s0.75-0.336,0.75-0.75v-1.125c0-3.303-2.473-6.063-5.753-6.418
			C23.221,16.65,22.851,16.949,22.807,17.36z"/>
	</g>
	<g>
		<path fill="#222222" d="M27.886,26.966v1.923c0,0.414,0.336,0.75,0.75,0.75s0.75-0.336,0.75-0.75v-1.923
			c0-0.414-0.336-0.75-0.75-0.75S27.886,26.552,27.886,26.966z"/>
	</g>
	<g>
		<path fill="#222222" d="M22.681,8.467v3.047c0,0.414,0.336,0.75,0.75,0.75s0.75-0.336,0.75-0.75V8.467
			c0-0.414-0.336-0.75-0.75-0.75S22.681,8.053,22.681,8.467z"/>
	</g>
	<g>
		<path fill="#222222" d="M13.395,11.874c-0.293,0.293-0.293,0.768,0,1.061l1.862,1.862c0.293,0.293,0.768,0.293,1.061,0
			s0.293-0.768,0-1.061l-1.862-1.862C14.163,11.581,13.688,11.581,13.395,11.874z"/>
	</g>
	<g>
		<path fill="#222222" d="M33.828,21.16c-0.414,0-0.75,0.336-0.75,0.75s0.336,0.75,0.75,0.75h3.047c0.414,0,0.75-0.336,0.75-0.75
			s-0.336-0.75-0.75-0.75H33.828z"/>
	</g>
	<g>
		<path fill="#222222" d="M9.988,21.16c-0.414,0-0.75,0.336-0.75,0.75s0.336,0.75,0.75,0.75h3.047c0.414,0,0.75-0.336,0.75-0.75
			s-0.336-0.75-0.75-0.75H9.988z"/>
	</g>
	<g>
		<path fill="#222222" d="M32.407,11.874l-1.862,1.862c-0.293,0.293-0.293,0.768,0,1.061s0.768,0.293,1.061,0l1.862-1.862
			c0.293-0.293,0.293-0.768,0-1.061S32.7,11.581,32.407,11.874z"/>
	</g>
</g>
</svg>
