<?xml version="1.0" encoding="utf-8"?>
<!-- Generator: Adobe Illustrator 12.0.0, SVG Export Plug-In . SVG Version: 6.00 Build 51448)  -->
<!DOCTYPE svg PUBLIC "-//W3C//DTD SVG 1.1//EN" "http://www.w3.org/Graphics/SVG/1.1/DTD/svg11.dtd" [
	<!ENTITY ns_svg "http://www.w3.org/2000/svg">
	<!ENTITY ns_xlink "http://www.w3.org/1999/xlink">
]>
<svg  version="1.1" id="レイヤー_1" xmlns="&ns_svg;" xmlns:xlink="&ns_xlink;" width="48" height="47.998"
	 viewBox="0 0 48 47.998" overflow="visible" enable-background="new 0 0 48 47.998" xml:space="preserve">
<circle fill="none" cx="24" cy="24" r="24"/>
<g>
	<g>
		<g>
			<path fill="#222222" d="M38.252,20.903c0,1.448-0.666,4.109-1.149,4.593l-4.538,4.9c0.281-0.304,0.758-0.324,1.062-0.042
				c0.304,0.281,0.324,0.753,0.042,1.058l4.494-4.854c1.033-1.033,1.59-4.475,1.59-5.654c0-0.414-0.336-0.75-0.75-0.75
				S38.252,20.489,38.252,20.903z"/>
		</g>
		<g>
			<path fill="#222222" d="M22.198,14.828c-1.561,1.312-2.71,1.671-3.55,1.934c-0.731,0.229-1.421,0.445-1.765,1.217
				c-0.384,0.865-0.318,1.746,0.182,2.416c0.574,0.77,1.599,1.121,2.811,0.963c0.001,0,2.441-0.529,2.441-0.529
				c0.565-0.145,1.302-0.33,1.588-0.345c0.735,0.6,2.467,1.593,3.296,1.996c1.741,0.844,4.487,0.669,5.878-0.374
				c0.331-0.249,0.398-0.719,0.149-1.05c-0.248-0.331-0.718-0.398-1.05-0.15c-0.948,0.711-3.089,0.823-4.322,0.225
				c-1.068-0.52-2.76-1.543-3.119-1.887c-0.478-0.46-1.204-0.275-2.793,0.132l-2.264,0.495c-0.648,0.084-1.177-0.055-1.415-0.373
				c-0.228-0.305-0.106-0.701-0.013-0.91c0.062-0.139,0.28-0.218,0.842-0.394c0.906-0.284,2.276-0.712,4.067-2.217
				c0.322-0.271,1.825-0.871,8.794-0.6l0.487,0.016c0.414,0.014,0.735-0.311,0.749-0.725c0.014-0.414-0.335-0.761-0.749-0.775
				l-0.429-0.015C26.275,13.654,23.247,13.946,22.198,14.828z"/>
		</g>
		<g>
			<path fill="#222222" d="M30.369,13.679l9.981,9.483l3.251-2.784l-10.654-9.979L30.369,13.679z M33.115,12.612
				c0.976,0.914,7.241,6.782,8.238,7.716c-0.401,0.344-0.6,0.513-0.95,0.814c-0.826-0.785-7.178-6.819-8.011-7.61
				C32.667,13.182,32.808,13.003,33.115,12.612z"/>
		</g>
	</g>
	<g>
		<g>
			<polygon fill="#222222" points="29.171,32.646 29.519,32.943 30.527,31.832 30.092,31.463 			"/>
		</g>
		<g>
			<polygon fill="#222222" points="29.52,32.944 29.671,33.086 30.708,32.003 30.526,31.831 			"/>
		</g>
		<g>
			<path fill="#222222" d="M15.496,17.032l0.656,0.104c1.625,0.267,3.43,0.551,4.275,0.556l0.008-1.5
				c-0.798-0.004-2.988-0.363-4.041-0.536l-0.839-0.122L15.496,17.032z"/>
		</g>
		<g>
			<path fill="#222222" d="M29.726,33.139c0.54,0.524,1.724,1.823,1.051,2.569c-0.734,0.813-2.166-0.297-2.749-0.812l-0.994,1.123
				c1.908,1.688,3.724,1.948,4.856,0.694c1.091-1.209,0.682-2.904-1.119-4.651L29.726,33.139z"/>
		</g>
		<g>
			<path fill="#222222" d="M23.093,20.756c-0.042,0.118-0.06,0.23-0.06,0.338c0,0.483,0.361,0.857,0.552,1.056
				c0,0,0.033,0.036,0.063,0.067c0.142,0.356,0.773,1.028,4.278,4.452l3.555,3.561c0.171,0.197,0.486,0.615,0.486,1.013
				c0,0.145-0.042,0.286-0.147,0.414c-0.186,0.223-1.014,0.106-1.808-0.254l-0.619,1.367c0.754,0.341,2.612,1.009,3.579-0.154
				c0.775-0.93,0.637-2.222-0.359-3.369c-0.001-0.001-3.639-3.649-3.639-3.649c-1.57-1.535-3.721-3.636-3.97-4.015l0.08,0.252
				c0,0-0.17-0.295-0.294-0.508c0.13-0.03,0.235-0.059,0.471-0.089l-0.188-1.488C24.19,19.861,23.338,20.06,23.093,20.756z"/>
		</g>
		<g>
			<path fill="#222222" d="M8.248,22.547c0,1.18,0.557,4.622,1.589,5.653c0,0.001,5.113,5.529,5.113,5.529l4.014,4.344
				c0.878,0.875,2.756,1.802,4.059,0.571c0.321-0.301,0.473-0.671,0.564-1.053c1.137,0.785,2.742,1.481,3.932,0.334
				c0.519-0.501,0.692-1.116,0.692-1.691c0-0.479-0.127-0.905-0.269-1.239c0.014-0.016,0.087-0.098,0.087-0.098l-0.286-0.27
				l-1.21,0.855c0.004,0.009,0.427,0.896-0.057,1.363c-0.679,0.654-2.469-0.72-3.181-1.447l-1.237,0.793
				c0.094,0.249,0.284,1.032-0.065,1.36c-0.559,0.528-1.639-0.213-1.97-0.541l-3.969-4.297l-5.158-5.576
				c-0.521-0.521-1.149-3.263-1.149-4.592H8.248z"/>
		</g>
		<g>
			
				<rect x="29.643" y="31.487" transform="matrix(-0.729 -0.6845 0.6845 -0.729 29.5648 76.1798)" fill="#222222" width="0.439" height="1.501"/>
		</g>
		<g>
			
				<rect x="29.981" y="31.744" transform="matrix(-0.7273 -0.6863 0.6863 -0.7273 29.7505 76.8099)" fill="#222222" width="0.31" height="1.5"/>
		</g>
		<g>
			
				<rect x="22.214" y="28.366" transform="matrix(-0.728 -0.6856 0.6856 -0.728 25.9129 68.5132)" fill="#222222" width="8.666" height="1.5"/>
		</g>
		<g>
			
				<rect x="30.211" y="31.944" transform="matrix(-0.7265 -0.6871 0.6871 -0.7265 29.9299 77.3007)" fill="#222222" width="0.273" height="1.5"/>
		</g>
		<g>
			
				<rect x="19.912" y="31.377" transform="matrix(-0.679 -0.7342 0.7342 -0.679 17.4641 71.8895)" fill="#222222" width="9.076" height="1.5"/>
		</g>
		<g>
			
				<rect x="17.158" y="32.725" transform="matrix(-0.6682 -0.7439 0.7439 -0.6682 9.4604 71.169)" fill="#222222" width="6.882" height="1.5"/>
		</g>
		<g>
			<path fill="#222222" d="M4.399,22.022l3.25,2.783l9.983-9.482l-2.578-3.281L4.399,22.022z M14.885,14.255
				c0.308,0.391,0.448,0.57,0.723,0.92c-0.833,0.792-7.186,6.826-8.011,7.61c-0.351-0.301-0.549-0.47-0.95-0.813
				C7.644,21.038,13.91,15.169,14.885,14.255z"/>
		</g>
	</g>
</g>
</svg>
