<?xml version="1.0" encoding="utf-8"?>
<!-- Generator: Adobe Illustrator 12.0.0, SVG Export Plug-In . SVG Version: 6.00 Build 51448)  -->
<!DOCTYPE svg PUBLIC "-//W3C//DTD SVG 1.1//EN" "http://www.w3.org/Graphics/SVG/1.1/DTD/svg11.dtd" [
	<!ENTITY ns_svg "http://www.w3.org/2000/svg">
	<!ENTITY ns_xlink "http://www.w3.org/1999/xlink">
]>
<svg  version="1.1" id="レイヤー_1" xmlns="&ns_svg;" xmlns:xlink="&ns_xlink;" width="48" height="48" viewBox="0 0 48 48"
	 overflow="visible" enable-background="new 0 0 48 48" xml:space="preserve">
<circle fill="none" cx="24" cy="24" r="24"/>
<path enable-background="new    " d="M38.156,27.054l-17.095-5.596l5.596,17.095l3.18-4.938l4.18,4.179
	c0.934,0.935,2.447,0.935,3.381,0c0.934-0.933,0.934-2.446,0-3.38l-4.18-4.179L38.156,27.054z"/>
<g>
	<path fill="#222222" d="M12.75,31.044c0-1.327,0-16.173,0-17.5c1.327,0,16.173,0,17.5,0c0,0.695,0,5.111,0,9.344l1.5,0.49V12.044
		h-20.5v20.5h11.863l-0.491-1.5C18.235,31.044,13.475,31.044,12.75,31.044z"/>
	<path fill="#222222" enable-background="new    " d="M38.156,27.054l-17.095-5.596l5.596,17.095l3.18-4.938l4.18,4.179
		c0.934,0.935,2.447,0.935,3.381,0c0.934-0.933,0.934-2.446,0-3.38l-4.18-4.179L38.156,27.054z"/>
</g>
</svg>
