<?xml version="1.0" encoding="utf-8"?>
<!-- Generator: Adobe Illustrator 12.0.0, SVG Export Plug-In . SVG Version: 6.00 Build 51448)  -->
<!DOCTYPE svg PUBLIC "-//W3C//DTD SVG 1.1//EN" "http://www.w3.org/Graphics/SVG/1.1/DTD/svg11.dtd" [
	<!ENTITY ns_svg "http://www.w3.org/2000/svg">
	<!ENTITY ns_xlink "http://www.w3.org/1999/xlink">
]>
<svg  version="1.1" id="レイヤー_1" xmlns="&ns_svg;" xmlns:xlink="&ns_xlink;" width="48" height="47.998"
	 viewBox="0 0 48 47.998" overflow="visible" enable-background="new 0 0 48 47.998" xml:space="preserve">
<g>
	<circle fill="none" cx="24" cy="24" r="24"/>
	<g>
		<path fill="#222222" d="M22.485,11.885c0,0-0.077,1.834-0.135,3.223c-0.108-0.629-0.322-1.877-0.322-1.877
			c-0.069-0.576-0.377-1.121-0.862-1.502s-1.089-0.549-1.701-0.475c-1.263,0.154-2.165,1.309-2.011,2.57
			c0.011,0.07,0.68,4.316,0.987,7.521l0.068,0.688c0.123,1.219,0.352,3.486,0,3.869c-0.627,0.307-2.087-1.553-2.844-3.033
			c-0.419-0.82-1.119-1.346-1.971-1.479c-0.824-0.131-1.682,0.137-2.24,0.695c-0.997,0.996-0.722,2.668-0.221,3.482
			c0,0.002,0.46,0.822,0.46,0.822c1.181,2.135,3.946,7.133,5.5,8.797c2.007,2.15,3.644,2.73,7.004,2.486l1.005-0.064
			c2.845-0.17,5.091-0.305,6.669-3.703c1.556-3.354,4.508-13.689,4.633-14.127c0.41-1.197-0.147-2.451-1.308-2.879h-0.001
			c-1.607-0.59-2.461,0.807-2.871,1.477c0,0-0.352,0.695-0.526,1.043c0.364-2.838,0.743-5.795,0.743-5.795
			c0.016-0.109,0.023-0.219,0.023-0.328c0-0.488-0.158-0.969-0.461-1.373c-0.369-0.494-0.908-0.814-1.518-0.9
			c-0.607-0.09-1.216,0.064-1.71,0.434c-0.493,0.369-0.814,0.908-0.902,1.518c0,0-0.347,1.795-0.64,3.314
			c-0.115-2.166-0.236-4.445-0.236-4.445c0-1.232-1.035-2.266-2.307-2.266C23.52,9.578,22.485,10.613,22.485,11.885z M22.851,22.928
			c0.383-0.025,0.686-0.334,0.702-0.717l0.432-10.295c0-0.477,0.362-0.838,0.807-0.838c0.446,0,0.807,0.361,0.807,0.807
			l0.563,10.594c0.021,0.379,0.319,0.684,0.698,0.709c0.377,0.025,0.715-0.234,0.787-0.605l1.806-9.357
			c0.036-0.248,0.148-0.438,0.321-0.566c0.172-0.129,0.385-0.182,0.598-0.15c0.215,0.029,0.402,0.143,0.531,0.314
			s0.184,0.385,0.152,0.598l-1.299,10.135c-0.047,0.361,0.175,0.705,0.523,0.813c0.35,0.107,0.725-0.055,0.89-0.379l2.465-4.881
			c0.564-0.918,0.747-0.908,1.044-0.799c0.324,0.119,0.453,0.398,0.453,0.686c0,0.113-0.021,0.229-0.058,0.336
			c-0.042,0.145-3.057,10.697-4.563,13.945c-1.2,2.586-2.691,2.674-5.397,2.836l-1.025,0.066c-2.915,0.213-4.106-0.201-5.798-2.014
			c-1.428-1.529-4.229-6.592-5.284-8.498l-0.495-0.883c-0.21-0.344-0.4-1.232,0.004-1.637c0.219-0.219,0.598-0.33,0.946-0.275
			c0.258,0.041,0.618,0.191,0.868,0.682c0.415,0.813,2.601,4.809,4.88,3.67c1.268-0.633,1.047-2.814,0.792-5.342l-0.067-0.678
			c-0.312-3.252-0.988-7.543-0.995-7.586c-0.05-0.416,0.266-0.82,0.708-0.875c0.213-0.025,0.424,0.033,0.594,0.168
			c0.17,0.133,0.278,0.324,0.304,0.537l1.52,8.859C22.129,22.684,22.469,22.953,22.851,22.928z"/>
	</g>
</g>
</svg>
