<?xml version="1.0" encoding="utf-8"?>
<!-- Generator: Adobe Illustrator 12.0.0, SVG Export Plug-In . SVG Version: 6.00 Build 51448)  -->
<!DOCTYPE svg PUBLIC "-//W3C//DTD SVG 1.1//EN" "http://www.w3.org/Graphics/SVG/1.1/DTD/svg11.dtd" [
	<!ENTITY ns_svg "http://www.w3.org/2000/svg">
	<!ENTITY ns_xlink "http://www.w3.org/1999/xlink">
]>
<svg  version="1.1" id="レイヤー_1" xmlns="&ns_svg;" xmlns:xlink="&ns_xlink;" width="48" height="48" viewBox="0 0 48 48"
	 overflow="visible" enable-background="new 0 0 48 48" xml:space="preserve">
<circle fill="none" cx="24" cy="24" r="24"/>
<path fill="#222222" d="M35.655,18.835v-2.8c0,0-14.27,0-15.092,0c-0.328-0.578-1.685-2.971-1.685-2.971h-7.175l-1.997,3.523v18.411
	h25.681l0.269-0.587l7.115-15.577H35.655z M11.206,16.983c0.149-0.264,1.065-1.879,1.371-2.419h5.427
	c0.328,0.578,1.685,2.971,1.685,2.971s13.115,0,14.466,0v1.3H16.673l-5.467,11.968V16.983z M34.423,33.499h-22.8
	c0.808-1.769,5.665-12.4,6.014-13.164h22.8c-0.574,1.256-3.188,6.979-4.781,10.468C35.005,32.225,34.524,33.277,34.423,33.499z"/>
</svg>
