<?xml version="1.0" encoding="utf-8"?>
<!-- Generator: Adobe Illustrator 12.0.0, SVG Export Plug-In . SVG Version: 6.00 Build 51448)  -->
<!DOCTYPE svg PUBLIC "-//W3C//DTD SVG 1.1//EN" "http://www.w3.org/Graphics/SVG/1.1/DTD/svg11.dtd" [
	<!ENTITY ns_svg "http://www.w3.org/2000/svg">
	<!ENTITY ns_xlink "http://www.w3.org/1999/xlink">
]>
<svg  version="1.1" id="レイヤー_1" xmlns="&ns_svg;" xmlns:xlink="&ns_xlink;" width="48" height="48" viewBox="0 0 48 48"
	 overflow="visible" enable-background="new 0 0 48 48" xml:space="preserve">
<circle fill="none" cx="24" cy="24" r="24"/>
<g>
	<g>
		<path fill="#222222" d="M18.074,15.158c0,1.367,0.612,2.771,1.26,4.258c0.738,1.694,1.575,3.615,1.575,5.723
			c0,0.42-0.083,0.523-0.084,0.525l-4.476-0.004c-1.903,0-3.451,1.548-3.451,3.45v4.951c0,0.414,0.336,0.75,0.75,0.75h20.705
			c0.414,0,0.75-0.336,0.75-0.75V29.11c0-1.902-1.548-3.45-3.451-3.45h-4.412c-0.063,0.003-0.146-0.102-0.146-0.521
			c0-2.107,0.836-4.028,1.574-5.723c0.647-1.486,1.26-2.891,1.26-4.258c0-3.269-2.659-5.928-5.927-5.928S18.074,11.89,18.074,15.158
			z M14.397,29.11c0-1.075,0.875-1.95,1.951-1.95h4.413c0.387,0,1.647-0.146,1.647-2.021c0-2.42-0.903-4.493-1.7-6.322
			c-0.609-1.396-1.135-2.604-1.135-3.658c0-2.441,1.986-4.428,4.426-4.428s4.427,1.986,4.427,4.428c0,1.055-0.526,2.262-1.135,3.658
			c-0.797,1.829-1.699,3.902-1.699,6.322c0,1.824,1.151,2.021,1.646,2.021h4.412c1.076,0,1.951,0.875,1.951,1.95
			c0,0,0,3.121,0,4.201c-1.341,0-17.864,0-19.205,0C14.397,32.231,14.397,29.11,14.397,29.11z"/>
	</g>
	<g>
		<rect x="14.26" y="35.27" fill="#222222" width="19.479" height="1.5"/>
	</g>
</g>
</svg>
