<?xml version="1.0" encoding="utf-8"?>
<!-- Generator: Adobe Illustrator 12.0.0, SVG Export Plug-In . SVG Version: 6.00 Build 51448)  -->
<!DOCTYPE svg PUBLIC "-//W3C//DTD SVG 1.1//EN" "http://www.w3.org/Graphics/SVG/1.1/DTD/svg11.dtd" [
	<!ENTITY ns_svg "http://www.w3.org/2000/svg">
	<!ENTITY ns_xlink "http://www.w3.org/1999/xlink">
]>
<svg  version="1.1" id="レイヤー_1" xmlns="&ns_svg;" xmlns:xlink="&ns_xlink;" width="48" height="48" viewBox="0 0 48 48"
	 overflow="visible" enable-background="new 0 0 48 48" xml:space="preserve">
<circle fill="none" cx="24" cy="24" r="24"/>
<g>
	<g>
		<rect x="23" y="20.852" fill="#222222" width="2" height="2"/>
		<rect x="27" y="20.852" fill="#222222" width="2" height="2"/>
		<rect x="31" y="20.852" fill="#222222" width="2" height="2"/>
		<rect x="15" y="24.852" fill="#222222" width="2" height="2"/>
		<rect x="19" y="24.852" fill="#222222" width="2" height="2"/>
		<rect x="23" y="24.852" fill="#222222" width="2" height="2"/>
		<rect x="27" y="24.852" fill="#222222" width="2" height="2"/>
		<rect x="31" y="24.852" fill="#222222" width="2" height="2"/>
		<rect x="15" y="28.852" fill="#222222" width="2" height="2"/>
		<rect x="19" y="28.852" fill="#222222" width="2" height="2"/>
		<rect x="23" y="28.852" fill="#222222" width="2" height="2"/>
		<rect x="27" y="28.852" fill="#222222" width="2" height="2"/>
		<rect x="31" y="28.852" fill="#222222" width="2" height="2"/>
		<rect x="15" y="32.852" fill="#222222" width="2" height="2"/>
		<rect x="19" y="32.852" fill="#222222" width="2" height="2"/>
		<rect x="23" y="32.852" fill="#222222" width="2" height="2"/>
		<rect x="27" y="32.852" fill="#222222" width="2" height="2"/>
	</g>
	<g>
		<path fill="#222222" d="M16.75,10.018v3.334c0,0.414,0.336,0.75,0.75,0.75s0.75-0.336,0.75-0.75v-3.334
			c0-0.414-0.336-0.75-0.75-0.75S16.75,9.604,16.75,10.018z"/>
		<path fill="#222222" d="M34.666,11.967h-1.583v1.385c0,0.965-0.785,1.75-1.75,1.75s-1.75-0.785-1.75-1.75v-1.385H19.25v1.385
			c0,0.965-0.785,1.75-1.75,1.75s-1.75-0.785-1.75-1.75v-1.385h-2.417c-0.732,0-1.422,0.287-1.942,0.809
			c-0.521,0.52-0.808,1.209-0.808,1.941v24.016h26.833V14.717C37.416,13.201,36.183,11.967,34.666,11.967z M35.916,37.232H12.083
			V18.1h23.833V37.232z"/>
		<path fill="#222222" d="M30.583,10.018v3.334c0,0.414,0.336,0.75,0.75,0.75s0.75-0.336,0.75-0.75v-3.334
			c0-0.414-0.336-0.75-0.75-0.75S30.583,9.604,30.583,10.018z"/>
	</g>
</g>
</svg>
