<?xml version="1.0" encoding="utf-8"?>
<!-- Generator: Adobe Illustrator 12.0.0, SVG Export Plug-In . SVG Version: 6.00 Build 51448)  -->
<!DOCTYPE svg PUBLIC "-//W3C//DTD SVG 1.1//EN" "http://www.w3.org/Graphics/SVG/1.1/DTD/svg11.dtd" [
	<!ENTITY ns_svg "http://www.w3.org/2000/svg">
	<!ENTITY ns_xlink "http://www.w3.org/1999/xlink">
]>
<svg  version="1.1" id="レイヤー_1" xmlns="&ns_svg;" xmlns:xlink="&ns_xlink;" width="48" height="48" viewBox="0 0 48 48"
	 overflow="visible" enable-background="new 0 0 48 48" xml:space="preserve">
<circle fill="none" cx="24" cy="24" r="24"/>
<g>
	<path fill="#FFFFFF" d="M15.876,31.368v4.544h16.345v-4.544H15.876z M30.721,32.868c0,0.573,0,0.971,0,1.544
		c-1.28,0-12.064,0-13.345,0c0-0.573,0-0.971,0-1.544C18.656,32.868,29.44,32.868,30.721,32.868z"/>
</g>
<g>
	<path fill="#FFFFFF" d="M17.636,23.41v8.754h1.5V23.41c0-2.734,2.225-4.959,4.959-4.959s4.959,2.225,4.959,4.959v8.754h1.5V23.41
		c0-3.562-2.897-6.459-6.459-6.459S17.636,19.849,17.636,23.41z"/>
</g>
<g>
	<path fill="#FFFFFF" d="M23.595,20.455c0.969,0,1.879,0.377,2.565,1.063s1.063,1.596,1.063,2.565v0.862
		c0,0.414,0.336,0.75,0.75,0.75s0.75-0.336,0.75-0.75v-0.862c0-1.37-0.533-2.657-1.502-3.626s-2.256-1.502-3.625-1.502V20.455z"/>
</g>
<g>
	<path fill="#FFFFFF" d="M27.223,27.276v1.475c0,0.414,0.336,0.75,0.75,0.75s0.75-0.336,0.75-0.75v-1.475
		c0-0.414-0.336-0.75-0.75-0.75S27.223,26.862,27.223,27.276z"/>
</g>
<g>
	<path fill="#FFFFFF" d="M23.25,12.836v3.105c0,0.414,0.336,0.75,0.75,0.75s0.75-0.336,0.75-0.75v-3.105
		c0-0.414-0.336-0.75-0.75-0.75S23.25,12.422,23.25,12.836z"/>
</g>
<g>
	<path fill="#FFFFFF" d="M16.178,15.327c-0.293,0.293-0.293,0.768,0,1.061l2.195,2.194c0.293,0.293,0.768,0.293,1.061,0
		c0.293-0.293,0.293-0.768,0-1.061l-2.195-2.194C16.945,15.034,16.47,15.034,16.178,15.327z"/>
</g>
<g>
	<path fill="#FFFFFF" d="M31.208,22.398c-0.414,0-0.75,0.336-0.75,0.75s0.336,0.75,0.75,0.75h3.104c0.414,0,0.75-0.336,0.75-0.75
		s-0.336-0.75-0.75-0.75H31.208z"/>
</g>
<g>
	<path fill="#FFFFFF" d="M13.688,22.398c-0.414,0-0.75,0.336-0.75,0.75s0.336,0.75,0.75,0.75h3.104c0.414,0,0.75-0.336,0.75-0.75
		s-0.336-0.75-0.75-0.75H13.688z"/>
</g>
<g>
	<path fill="#FFFFFF" d="M30.762,15.326l-2.195,2.195c-0.293,0.293-0.293,0.768,0,1.061s0.768,0.293,1.061,0l2.195-2.195
		c0.293-0.293,0.293-0.768,0-1.061S31.055,15.033,30.762,15.326z"/>
</g>
</svg>
