<?xml version="1.0" encoding="utf-8"?>
<!-- Generator: Adobe Illustrator 12.0.0, SVG Export Plug-In . SVG Version: 6.00 Build 51448)  -->
<!DOCTYPE svg PUBLIC "-//W3C//DTD SVG 1.1//EN" "http://www.w3.org/Graphics/SVG/1.1/DTD/svg11.dtd" [
	<!ENTITY ns_svg "http://www.w3.org/2000/svg">
	<!ENTITY ns_xlink "http://www.w3.org/1999/xlink">
]>
<svg  version="1.1" id="レイヤー_1" xmlns="&ns_svg;" xmlns:xlink="&ns_xlink;" width="48" height="48" viewBox="0 0 48 48"
	 overflow="visible" enable-background="new 0 0 48 48" xml:space="preserve">
<circle fill="none" cx="24" cy="24" r="24"/>
<g>
	<path d="M7.099,28.275c0-2.484,2.169-3.727,7.034-4.274c0-1.475-0.484-2.886-2.358-2.886c-1.327,0-2.527,0.611-3.433,1.222
		l-0.758-1.326c1.053-0.674,2.674-1.496,4.507-1.496c2.78,0,3.959,1.874,3.959,4.696v7.034h-1.58l-0.168-1.368h-0.063
		c-1.096,0.904-2.38,1.642-3.791,1.642C8.531,31.519,7.099,30.34,7.099,28.275z M14.133,28.466v-3.201
		c-3.854,0.463-5.159,1.411-5.159,2.885c0,1.306,0.884,1.832,2.021,1.832C12.111,29.981,13.017,29.455,14.133,28.466z"/>
	<path d="M21.462,30.066h-0.063l-0.168,1.179h-1.537V14.481h1.916v4.591l-0.063,2.064c1.032-0.906,2.317-1.622,3.58-1.622
		c2.97,0,4.571,2.316,4.571,5.813c0,3.938-2.338,6.191-4.971,6.191C23.673,31.519,22.473,30.992,21.462,30.066z M27.695,25.37
		c0-2.527-0.842-4.233-3.012-4.233c-0.968,0-1.979,0.547-3.074,1.579v6.002c1.011,0.885,2.043,1.201,2.801,1.201
		C26.306,29.919,27.695,28.213,27.695,25.37z"/>
	<path d="M31.844,25.538c0-3.812,2.592-6.023,5.518-6.023c1.496,0,2.527,0.632,3.35,1.349l-0.99,1.284
		c-0.674-0.611-1.369-1.032-2.295-1.032c-2.064,0-3.58,1.79-3.58,4.423s1.432,4.381,3.537,4.381c1.053,0,1.98-0.484,2.696-1.138
		l0.821,1.285c-1.012,0.926-2.316,1.452-3.686,1.452C34.182,31.519,31.844,29.329,31.844,25.538z"/>
</g>
</svg>
