<?xml version="1.0" encoding="utf-8"?>
<!-- Generator: Adobe Illustrator 12.0.0, SVG Export Plug-In . SVG Version: 6.00 Build 51448)  -->
<!DOCTYPE svg PUBLIC "-//W3C//DTD SVG 1.1//EN" "http://www.w3.org/Graphics/SVG/1.1/DTD/svg11.dtd" [
	<!ENTITY ns_svg "http://www.w3.org/2000/svg">
	<!ENTITY ns_xlink "http://www.w3.org/1999/xlink">
]>
<svg  version="1.1" id="レイヤー_1" xmlns="&ns_svg;" xmlns:xlink="&ns_xlink;" width="48" height="48" viewBox="0 0 48 48"
	 overflow="visible" enable-background="new 0 0 48 48" xml:space="preserve">
<circle fill="none" cx="24" cy="24" r="24"/>
<path fill="#222222" d="M38.274,19.892h-7.257c-0.038-2.654-1.084-5.146-2.966-7.026c-1.917-1.918-4.466-2.973-7.177-2.973
	c-5.597,0-10.15,4.553-10.15,10.149c0,2.711,1.056,5.26,2.973,7.177c1.882,1.882,4.373,2.928,7.027,2.966v7.257
	c0,0.414,0.336,0.75,0.75,0.75h16.8c0.414,0,0.75-0.336,0.75-0.75v-16.8C39.024,20.228,38.688,19.892,38.274,19.892z M14.759,26.158
	c-1.634-1.634-2.534-3.806-2.534-6.116c0-4.77,3.88-8.649,8.65-8.649c2.311,0,4.482,0.899,6.116,2.533
	c1.598,1.598,2.488,3.712,2.526,5.966h-8.043c-0.414,0-0.75,0.336-0.75,0.75v8.043C18.471,28.646,16.357,27.756,14.759,26.158z
	 M29.411,21.392c-0.281,1.797-1.109,3.456-2.42,4.767s-2.97,2.139-4.767,2.42v-7.187H29.411z M37.524,36.691h-15.3v-6.6
	c2.198-0.29,4.233-1.278,5.827-2.873c1.595-1.594,2.583-3.629,2.873-5.827h6.6V36.691z"/>
</svg>
