<?xml version="1.0" encoding="utf-8"?>
<!-- Generator: Adobe Illustrator 12.0.0, SVG Export Plug-In . SVG Version: 6.00 Build 51448)  -->
<!DOCTYPE svg PUBLIC "-//W3C//DTD SVG 1.1//EN" "http://www.w3.org/Graphics/SVG/1.1/DTD/svg11.dtd" [
	<!ENTITY ns_svg "http://www.w3.org/2000/svg">
	<!ENTITY ns_xlink "http://www.w3.org/1999/xlink">
]>
<svg  version="1.1" id="レイヤー_1" xmlns="&ns_svg;" xmlns:xlink="&ns_xlink;" width="48" height="48" viewBox="0 0 48 48"
	 overflow="visible" enable-background="new 0 0 48 48" xml:space="preserve">
<circle fill="none" cx="24" cy="24" r="24"/>
<g>
	<path fill="#222222" d="M25.854,11.274c1.269,0.197,2.475,0.58,3.592,1.121c0.373,0.181,0.821,0.024,1.002-0.349
		c0.18-0.373,0.024-0.821-0.348-1.002c-1.248-0.604-2.599-1.032-4.017-1.252c-0.409-0.063-0.793,0.217-0.856,0.626
		C25.165,10.828,25.444,11.211,25.854,11.274z"/>
	<path fill="#222222" d="M16.832,13.234c1.041-0.688,2.188-1.227,3.411-1.589c0.397-0.117,0.624-0.534,0.506-0.932
		c-0.117-0.397-0.535-0.624-0.932-0.507c-1.368,0.404-2.65,1.008-3.813,1.776c-0.346,0.228-0.44,0.693-0.212,1.039
		C16.021,13.368,16.486,13.463,16.832,13.234z"/>
	<path fill="#222222" d="M11.474,20.753c0.315-1.238,0.811-2.404,1.458-3.469c0.215-0.354,0.103-0.815-0.251-1.03
		c-0.354-0.216-0.815-0.103-1.03,0.251c-0.723,1.189-1.277,2.493-1.63,3.878c-0.102,0.401,0.141,0.81,0.542,0.912
		C10.963,21.396,11.372,21.154,11.474,20.753L11.474,20.753z"/>
	<path fill="#222222" d="M12.569,29.919c-0.583-1.097-1.012-2.289-1.256-3.547c-0.079-0.406-0.472-0.672-0.879-0.593
		c-0.407,0.078-0.672,0.472-0.593,0.879c0.272,1.406,0.751,2.739,1.404,3.965c0.194,0.366,0.648,0.505,1.014,0.311
		S12.764,30.285,12.569,29.919z"/>
	<path fill="#222222" d="M35.245,15.25c-0.251-0.329-0.722-0.393-1.051-0.141c-0.329,0.251-0.393,0.722-0.141,1.051
		c1.714,2.245,2.619,4.929,2.619,7.76c0,7.057-5.74,12.797-12.796,12.797c-1.487,0-2.942-0.253-4.327-0.751c0,0,0,0-0.001,0
		c-1.197-0.43-2.313-1.034-3.315-1.781c-0.332-0.248-0.802-0.18-1.049,0.152c-0.248,0.332-0.18,0.802,0.153,1.05
		c1.119,0.835,2.365,1.51,3.704,1.99c0,0.001,0,0.001,0.001,0.001c1.548,0.557,3.175,0.839,4.835,0.839
		c7.883,0,14.296-6.413,14.296-14.297C38.172,20.757,37.161,17.759,35.245,15.25z"/>
	<path fill="#222222" d="M36.77,15.187c0.438-0.333,0.38-0.779-0.127-0.991l-3.677-1.534c-0.507-0.212-0.865,0.062-0.795,0.607
		l0.511,3.95c0.07,0.546,0.486,0.719,0.923,0.386L36.77,15.187z"/>
	<polyline fill="none" stroke="#222222" stroke-width="2" stroke-linecap="round" stroke-linejoin="round" points="23.751,14.337 
		23.751,23.795 31.25,29.295 	"/>
</g>
</svg>
