<?xml version="1.0" encoding="utf-8"?>
<!-- Generator: Adobe Illustrator 12.0.0, SVG Export Plug-In . SVG Version: 6.00 Build 51448)  -->
<!DOCTYPE svg PUBLIC "-//W3C//DTD SVG 1.1//EN" "http://www.w3.org/Graphics/SVG/1.1/DTD/svg11.dtd" [
	<!ENTITY ns_svg "http://www.w3.org/2000/svg">
	<!ENTITY ns_xlink "http://www.w3.org/1999/xlink">
]>
<svg  version="1.1" id="レイヤー_1" xmlns="&ns_svg;" xmlns:xlink="&ns_xlink;" width="48" height="48" viewBox="0 0 48 48"
	 overflow="visible" enable-background="new 0 0 48 48" xml:space="preserve">
<circle fill="none" cx="24" cy="24" r="24"/>
<g>
	<path fill="#222222" d="M14.572,14.572v18.855h18.855V14.572H14.572z M31.928,16.072c0,1.312,0,14.544,0,15.855
		c-1.311,0-14.544,0-15.855,0c0-1.312,0-14.544,0-15.855C17.383,16.072,30.617,16.072,31.928,16.072z"/>
</g>
<g>
	<rect x="23.343" y="14.919" fill="#222222" width="1.314" height="18.163"/>
</g>
<g>
	<rect x="14.99" y="23.353" fill="#222222" width="17.63" height="1.295"/>
</g>
<polygon fill="#222222" points="38.05,26.735 33.312,24 38.05,21.265 "/>
<polygon fill="#222222" points="9.84,21.265 14.579,24 9.84,26.735 "/>
<polygon fill="#222222" points="21.265,38.05 24,33.312 26.736,38.05 "/>
<polygon fill="#222222" points="26.736,10.119 24,14.857 21.265,10.119 "/>
</svg>
