<?xml version="1.0" encoding="utf-8"?>
<!-- Generator: Adobe Illustrator 12.0.0, SVG Export Plug-In . SVG Version: 6.00 Build 51448)  -->
<!DOCTYPE svg PUBLIC "-//W3C//DTD SVG 1.1//EN" "http://www.w3.org/Graphics/SVG/1.1/DTD/svg11.dtd" [
	<!ENTITY ns_svg "http://www.w3.org/2000/svg">
	<!ENTITY ns_xlink "http://www.w3.org/1999/xlink">
]>
<svg  version="1.1" id="レイヤー_1" xmlns="&ns_svg;" xmlns:xlink="&ns_xlink;" width="48" height="48" viewBox="0 0 48 48"
	 overflow="visible" enable-background="new 0 0 48 48" xml:space="preserve">
<circle fill="none" cx="24" cy="24" r="24"/>
<g>
	<path d="M5.385,23.701c-0.345,0.432-0.274,1.062,0.156,1.406c0.432,0.345,1.062,0.274,1.406-0.156
		c4.244-5.308,8.212-7.082,12.863-5.753c1.939,0.781,2.32,2.561,2.762,4.621c0.356,1.669,0.726,3.394,2.025,4.693
		c2.545,2.127,5.464,3.012,8.509,2.62c3.616-0.465,7.005-2.676,9.54-6.226c0.321-0.449,0.217-1.073-0.232-1.395
		s-1.073-0.217-1.395,0.232c-2.209,3.092-5.109,5.011-8.168,5.404c-2.479,0.318-4.867-0.412-6.906-2.112
		c-0.815-0.82-1.107-2.188-1.418-3.636c-0.489-2.289-1.044-4.883-4.071-6.094C13.184,15.226,8.377,19.961,5.385,23.701z"/>
</g>
</svg>
