<?xml version="1.0" encoding="utf-8"?>
<!-- Generator: Adobe Illustrator 12.0.0, SVG Export Plug-In . SVG Version: 6.00 Build 51448)  -->
<!DOCTYPE svg PUBLIC "-//W3C//DTD SVG 1.1//EN" "http://www.w3.org/Graphics/SVG/1.1/DTD/svg11.dtd" [
	<!ENTITY ns_svg "http://www.w3.org/2000/svg">
	<!ENTITY ns_xlink "http://www.w3.org/1999/xlink">
]>
<svg  version="1.1" id="レイヤー_1" xmlns="&ns_svg;" xmlns:xlink="&ns_xlink;" width="48" height="48" viewBox="0 0 48 48"
	 overflow="visible" enable-background="new 0 0 48 48" xml:space="preserve">
<circle fill="none" cx="24" cy="24" r="24"/>
<path fill="#222222" d="M26.995,10.786l-13.718,13.72l0.924,0.924l-3.903,3.902l7.357,7.357h4.763l1.521-1.521l0.924,0.924
	l13.719-13.72L26.995,10.786z M21.798,35.189h-3.521c-0.376-0.377-4.993-4.992-5.857-5.857c0.573-0.573,1.952-1.951,2.842-2.842
	l7.618,7.617L21.798,35.189z M25.412,33.424c-0.253,0.252-0.454,0.455-0.548,0.548c-0.906-0.905-8.56-8.561-9.466-9.466
	c0.093-0.094,0.295-0.296,0.548-0.549c2.268-2.268,10.211-10.212,11.049-11.05l9.467,9.466
	C35.624,23.211,27.68,31.156,25.412,33.424z"/>
</svg>
