<?xml version="1.0" encoding="utf-8"?>
<!-- Generator: Adobe Illustrator 12.0.0, SVG Export Plug-In . SVG Version: 6.00 Build 51448)  -->
<!DOCTYPE svg PUBLIC "-//W3C//DTD SVG 1.1//EN" "http://www.w3.org/Graphics/SVG/1.1/DTD/svg11.dtd" [
	<!ENTITY ns_svg "http://www.w3.org/2000/svg">
	<!ENTITY ns_xlink "http://www.w3.org/1999/xlink">
]>
<svg  version="1.1" id="レイヤー_1" xmlns="&ns_svg;" xmlns:xlink="&ns_xlink;" width="48" height="48" viewBox="0 0 48 48"
	 overflow="visible" enable-background="new 0 0 48 48" xml:space="preserve">
<circle fill="none" cx="24" cy="24" r="24"/>
<g>
	<path fill="#222222" d="M37.39,15.252l-7.859-7.86c-0.25-0.249-0.652-0.249-0.902,0L12.881,23.14
		c-0.12,0.12-0.187,0.281-0.187,0.45s0.067,0.332,0.187,0.451l2.014,2.014c-0.4,0.486-0.629,1.085-0.629,1.725
		c0,0.731,0.285,1.418,0.801,1.935c1.002,1.002,2.587,1.051,3.66,0.173l2.015,2.014c0.249,0.249,0.691,0.211,0.94-0.038
		L37.39,16.154C37.639,15.905,37.639,15.501,37.39,15.252z M15.968,28.813c-0.276-0.275-0.428-0.643-0.428-1.033
		c0-0.298,0.09-0.583,0.255-0.823l2.03,2.029C17.257,29.374,16.473,29.317,15.968,28.813z M21.192,30.548
		c-0.752-0.753-6.207-6.205-6.959-6.958c0.617-0.616,8.135-8.134,12.244-12.244l6.958,6.96
		C29.313,22.428,21.76,29.981,21.192,30.548z M34.337,17.404l-6.959-6.96l1.701-1.7l6.959,6.958
		C35.878,15.863,35.248,16.492,34.337,17.404z M22.205,19.07c0,0.937,0.365,1.818,1.027,2.479c0.662,0.663,1.542,1.027,2.479,1.027
		c1.933,0,3.507-1.573,3.507-3.507c0-1.932-1.574-3.506-3.507-3.506C23.778,15.564,22.205,17.139,22.205,19.07z M27.942,19.07
		c0,1.23-1.002,2.231-2.231,2.231c-0.597,0-1.156-0.231-1.578-0.653c-0.421-0.421-0.654-0.981-0.654-1.578
		c0-1.229,1.001-2.23,2.231-2.23C26.94,16.84,27.942,17.841,27.942,19.07z"/>
	<rect x="29.411" y="33.456" fill="#222222" width="1.402" height="2.611"/>
	<rect x="31.854" y="33.456" fill="#222222" width="1.403" height="2.611"/>
	<rect x="34.298" y="33.456" fill="#222222" width="1.403" height="2.611"/>
	<rect x="36.741" y="33.456" fill="#222222" width="1.404" height="2.611"/>
	<rect x="25.493" y="33.456" fill="#222222" width="2.612" height="2.611"/>
	<rect x="17.661" y="33.456" fill="#222222" width="6.528" height="2.611"/>
	<path fill="#222222" d="M13.408,29.27l-4.569,4.569c-0.374,0.373-0.485,0.936-0.283,1.424c0.202,0.487,0.678,0.805,1.206,0.805
		h5.288v-2.611h-2.136l2.341-2.341L13.408,29.27z"/>
</g>
</svg>
