<?xml version="1.0" encoding="utf-8"?>
<!-- Generator: Adobe Illustrator 12.0.0, SVG Export Plug-In . SVG Version: 6.00 Build 51448)  -->
<!DOCTYPE svg PUBLIC "-//W3C//DTD SVG 1.1//EN" "http://www.w3.org/Graphics/SVG/1.1/DTD/svg11.dtd" [
	<!ENTITY ns_svg "http://www.w3.org/2000/svg">
	<!ENTITY ns_xlink "http://www.w3.org/1999/xlink">
]>
<svg  version="1.1" id="レイヤー_1" xmlns="&ns_svg;" xmlns:xlink="&ns_xlink;" width="48" height="48" viewBox="0 0 48 48"
	 overflow="visible" enable-background="new 0 0 48 48" xml:space="preserve">
<circle fill="none" cx="24" cy="24" r="24"/>
<g>
	<g>
		<g>
			<polygon fill="#222222" enable-background="new    " points="10.1,32.9 11.116,29.335 13.737,32.026 			"/>
		</g>
		<path fill="#222222" d="M37.765,13.326l-8.068-8.067c-0.25-0.249-0.652-0.249-0.902,0L12.63,21.423
			c-0.078,0.078-0.134,0.174-0.164,0.28L9.377,32.861c-0.062,0.221,0,0.458,0.164,0.62c0.162,0.162,0.399,0.225,0.621,0.163
			l2.861-0.792l0.863-0.207c0.045-0.011,0.077-0.044,0.118-0.063l7.316-2.025c0.106-0.03,0.203-0.086,0.281-0.164l16.164-16.165
			c0.119-0.12,0.187-0.282,0.187-0.451C37.951,13.608,37.884,13.445,37.765,13.326z M11.013,32.025
			c0.172-0.605,0.241-0.85,0.415-1.457c0.443,0.455,0.623,0.639,1.071,1.099C11.875,31.818,11.627,31.877,11.013,32.025z
			 M20.818,29.373c-0.195,0.053-3.996,1.105-6.912,1.912l-2.157-2.214c0.806-2.911,1.847-6.672,1.901-6.866
			c0.172-0.172,8.495-8.494,12.924-12.923l1.788,1.787L15.911,23.521c-0.249,0.249-0.249,0.652,0,0.901s0.652,0.249,0.901,0
			l12.451-12.45l1.788,1.787L18.601,26.21c-0.249,0.249-0.249,0.653,0,0.901c0.249,0.249,0.652,0.249,0.901,0l12.451-12.45
			l1.788,1.787C29.312,20.878,20.99,29.2,20.818,29.373z M34.643,15.547L27.476,8.38c0.955-0.954,1.609-1.608,1.77-1.77
			c0.756,0.757,6.41,6.41,7.167,7.166C36.251,13.937,35.597,14.593,34.643,15.547z"/>
	</g>
	<g>
		<path fill="#222222" d="M10.975,34.27c-0.938,0-1.7,0.762-1.7,1.7s0.761,1.7,1.7,1.7h25.358c0.939,0,1.7-0.762,1.7-1.7
			s-0.761-1.7-1.7-1.7H10.975z"/>
	</g>
</g>
</svg>
