<?xml version="1.0" encoding="utf-8"?>
<!-- Generator: Adobe Illustrator 12.0.0, SVG Export Plug-In . SVG Version: 6.00 Build 51448)  -->
<!DOCTYPE svg PUBLIC "-//W3C//DTD SVG 1.1//EN" "http://www.w3.org/Graphics/SVG/1.1/DTD/svg11.dtd" [
	<!ENTITY ns_svg "http://www.w3.org/2000/svg">
	<!ENTITY ns_xlink "http://www.w3.org/1999/xlink">
]>
<svg  version="1.1" id="レイヤー_1" xmlns="&ns_svg;" xmlns:xlink="&ns_xlink;" width="48" height="48" viewBox="0 0 48 48"
	 overflow="visible" enable-background="new 0 0 48 48" xml:space="preserve">
<circle fill="none" cx="24" cy="24" r="24"/>
<g>
	<path fill="#222222" d="M37.646,13.469l-7.859-7.86c-0.119-0.12-0.282-0.188-0.451-0.188s-0.331,0.067-0.451,0.188L13.137,21.355
		c-0.074,0.074-0.128,0.163-0.158,0.263l-2.363,7.646c-0.07,0.226-0.01,0.472,0.158,0.639l0.213,0.214L9.37,31.733l2.649,1.782
		l1.184-1.185l0.149,0.149c0.167,0.167,0.413,0.228,0.639,0.158l7.646-2.364c0.099-0.029,0.188-0.085,0.262-0.157L37.646,14.37
		C37.896,14.121,37.896,13.718,37.646,13.469z M13.981,31.308c-0.383-0.384-1.65-1.651-2.034-2.035
		c0.171-0.555,1.58-5.11,2.05-6.633l6.617,6.616C19.092,29.727,14.536,31.136,13.981,31.308z M21.687,28.525l-6.959-6.958
		l1.367-1.367l6.959,6.958C22.488,27.725,22.023,28.189,21.687,28.525z M23.956,26.257l-6.959-6.958l9.736-9.736l6.958,6.959
		C30.972,19.241,26.75,23.463,23.956,26.257z M34.593,15.619l-6.959-6.958l1.701-1.701c0.752,0.753,6.206,6.207,6.959,6.959
		C36.136,14.078,35.508,14.705,34.593,15.619z"/>
	<g opacity="0.5">
		<path fill="#222222" d="M10.991,34.252c-0.938,0-1.7,0.763-1.7,1.7c0,0.939,0.761,1.7,1.7,1.7h25.358c0.939,0,1.7-0.761,1.7-1.7
			c0-0.938-0.761-1.7-1.7-1.7H10.991z"/>
	</g>
</g>
</svg>
