<?xml version="1.0" encoding="utf-8"?>
<!-- Generator: Adobe Illustrator 12.0.0, SVG Export Plug-In . SVG Version: 6.00 Build 51448)  -->
<!DOCTYPE svg PUBLIC "-//W3C//DTD SVG 1.1//EN" "http://www.w3.org/Graphics/SVG/1.1/DTD/svg11.dtd" [
	<!ENTITY ns_svg "http://www.w3.org/2000/svg">
	<!ENTITY ns_xlink "http://www.w3.org/1999/xlink">
]>
<svg  version="1.1" id="レイヤー_1" xmlns="&ns_svg;" xmlns:xlink="&ns_xlink;" width="48" height="48" viewBox="0 0 48 48"
	 overflow="visible" enable-background="new 0 0 48 48" xml:space="preserve">
<circle fill="none" cx="24" cy="24" r="24"/>
<g>
	<path fill="#222222" d="M7.245,14.507v18.986h26.153v-5.994h-1.5c0,0,0,3.393,0,4.494c-1.366,0-21.788,0-23.153,0
		c0-1.313,0-14.674,0-15.986c1.366,0,21.787,0,23.153,0c0,1.102,0,4.492,0,4.492h1.5v-5.992H7.245z"/>
</g>
<g>
	<g>
		<path fill="#222222" d="M40.005,24c0-0.414-0.336-0.75-0.75-0.75l-14.352,0.001c-0.414,0-0.75,0.336-0.75,0.75
			s0.336,0.75,0.75,0.75l14.352-0.001C39.669,24.75,40.005,24.414,40.005,24z"/>
	</g>
	<g>
		<path fill="#222222" d="M29.03,28.57c0,0-3.72-3.718-4.572-4.569c0.852-0.853,4.571-4.571,4.571-4.571
			c0.293-0.293,0.293-0.768,0-1.061s-0.768-0.293-1.061,0l-5.632,5.632l5.633,5.63c0.293,0.293,0.768,0.293,1.061,0
			S29.323,28.862,29.03,28.57z"/>
	</g>
</g>
</svg>
